<svg xmlns="http://www.w3.org/2000/svg" width="242" height="60" viewBox="-8.314 -6.98 242 60" overflow="visible"><path fill="#FFF" d="M58.877 42.423c.792-1.512 1.944-2.808 5.041-4.608a33.418 33.418 0 0 1 3.96-1.8c-7.417.864-15.409 1.296-22.682 1.008-.72.864-15.481 13.825-18.505 7.345-1.008-2.088 1.296-3.096 3.6-4.032 3.816-1.512 11.953-3.672 12.097-3.745-4.393-.432-11.377-2.016-12.817-2.664-.504 1.08-11.665 6.697-16.562 6.697-3.745.072-5.833-3.097-1.872-5.257 3.672-2.016 10.945-2.52 14.761-2.736-1.8-.864-3.384-1.368-4.033-1.8-7.632-.432-18.361.504-21.746-6.841-1.152-3.672 6.121-6.192 16.201.936 1.584 1.08 6.049 4.537 6.049 4.537.792.288 3.312 1.44 4.536 2.016-2.88-4.393-6.048-12.025-3.6-16.489.648-1.224 1.512-2.088 2.808-1.8.36.072.72.216.936.36 5.617 3.96 3.744 13.033 3.96 19.37 8.569 2.665 18.146 3.024 27.218 2.521-10.655-3.099-17.207-6.339-17.207-11.379-.072-3.889 5.617-3.384 10.009-.216 1.08.72 2.088 1.656 2.952 2.592 1.8 1.944 4.896 5.761 5.833 8.857 11.881-.864 29.307-3.457 56.741-11.449-3.024-.72-9.289-.936-12.529-3.168-1.296-.864-3.96-2.736-2.304-4.393.864-.936 3.24-1.296 4.608-1.152 4.104.288 8.425 3.456 12.169 8.137 4.537-1.152 13.753-4.033 19.802-5.977-3.456-3.312-14.761-2.88-15.481-9.433 0-.216.072-.504.504-.648 1.08-.36 2.736-.576 4.896-.072 4.32 1.008 9 4.104 12.313 9.504 6.553-2.16 10.369-3.168 18.866-5.184-4.681-3.24-9.505-4.393-11.017-8.857-.36-1.08-.576-1.872.288-2.448.576-.36 1.728 0 2.376.144 3.168.504 7.777 3.672 10.513 10.585.432-.216 11.809-2.88 22.25-3.24 17.209-.576 28.154 3.888 34.635 7.633 3.096 1.8 7.201 2.736 6.409 4.248-.504.648-1.8.504-2.736.216-1.512-.432-3.888-2.376-4.537-2.88-3.24-2.16-10.873-5.256-13.321-5.833-10.801-2.448-21.746-2.808-31.971-.792-2.232 4.896-8.641 13.393-11.449 14.329-1.008.36-1.512.288-2.088-.144-.648-.576-.936-1.44-.864-2.304.216-3.6 8.281-8.569 11.377-11.305-3.457.504-13.177 2.736-17.065 3.96-1.584 2.016-5.833 9.145-8.497 11.593-1.873 1.944-4.752 3.888-6.409 2.952-1.8-1.008-.288-3.24 1.008-4.824 1.8-2.376 6.337-6.049 10.297-8.713-5.688 1.512-18.938 5.76-19.082 5.833-.072 0 0 .072-.072.144-1.8 4.248-5.617 11.017-9.577 13.393-1.656 1.08-2.808 1.152-4.104.864-.288-.072-.504-.36-.576-.72-.288-5.473 7.92-8.641 11.953-13.033-15.337 4.537-19.37 5.544-21.026 5.977-.792 1.728-5.977 9.217-8.065 11.305-2.232 2.232-5.328 3.384-6.913 3.6-.936.144-2.232-.072-2.592-1.008-.072-.288-.072-.504-.072-.72-.072-3.672 11.521-9.217 15.049-12.601-10.153 2.664-17.93 4.464-28.298 6.192-.288.288-.576.72-1.08 1.224-2.376 2.448-10.945 10.513-14.186 10.513-2.088 0-2.016-2.664-1.08-4.32zM3.576 21.901c-2.232.288-2.52 1.224-1.8 2.304 3.528 5.184 11.953 4.968 18.146 5.112-.648-.575-10.801-8.136-16.346-7.416zm23.618 12.025c-8.425.792-13.609.36-16.345 3.384-.576.648 0 1.368.36 1.584 2.88 1.729 12.961-3.311 15.985-4.968zm.216-18.145c-.936-1.08-1.44-1.152-1.584-1.224h-.216c-.144 0-.144 0-.216.072-.36.072-.72.864-.864 1.224-.432.864-.504 1.224-.576 1.872 0 .144 0 .144-.072.288-.144 1.224 0 1.008.072 2.448.648 3.96 2.664 8.425 5.041 11.521l.576.288c0-7.128 1.008-12.313-2.161-16.489zM42.1 38.103c-4.249 1.296-15.337 4.032-14.185 5.833 1.224 1.943 8.064-1.009 14.185-5.833zm12.385-9.001c-2.88-3.601-6.697-6.841-10.873-6.409-.576.144-1.368.288-1.152 1.44 1.152 5.4 8.209 6.913 14.762 9.145-.433-.864-1.585-2.736-2.737-4.176zm-8.281 15.049c0-1.152 1.008-1.584 1.44-1.584 1.08-.072 1.584.72 1.584 1.512 0 1.512-1.728 2.016-2.592 1.152a1.465 1.465 0 0 1-.432-1.08zm26.426-8.424c-1.944.648-4.825 1.8-5.4 2.016-4.104 1.728-8.713 5.112-7.489 7.561 2.952-.001 10.801-7.561 12.889-9.577zm6.841 6.192c-.216-.216-.36-.648-.36-1.008 0-.864.504-1.584 1.512-1.584 1.08 0 1.512.72 1.512 1.584 0 .648-.432 1.512-1.512 1.512-.432 0-.792-.144-1.152-.504zm5.832-16.418c0-.792.504-1.584 1.584-1.584.936 0 1.512.792 1.512 1.584 0 .576-.432 1.584-1.44 1.584-.936 0-1.656-.719-1.656-1.584zm11.953 12.602c2.232-2.232 3.816-4.464 5.041-6.48-4.032 2.952-9.505 5.329-11.881 8.497-.432.576-.504 1.296-.288 1.44.936.719 4.248-.577 7.128-3.457zm15.194-19.01c-1.8-1.224-4.249-2.232-6.265-2.52-2.016-.36-3.528 0-3.528.864.288 1.08 2.376 2.376 3.96 2.952.936.36 5.833 1.728 9.145 1.728-.936-1.08-2.088-2.088-3.312-3.024zm-3.313 15.049c-.216-.288-.432-.72-.432-1.152-.072-.72.504-1.512 1.512-1.512s1.584.792 1.656 1.512c0 .648-.432 1.656-1.584 1.656-.503 0-.864-.144-1.152-.504zm10.801-.72v-.072h.072c.144 0 3.312-2.808 6.193-8.208-1.152.864-3.816 2.808-5.329 4.032-4.537 3.6-4.104 5.329-4.176 5.544 1.08.217 2.304-.72 3.24-1.296zm.792-15.409c-.288-.36-.432-.792-.432-1.152 0-.792.504-1.584 1.944-1.584.648 0 1.152 1.152 1.152 1.584 0 .36-.144.792-.432 1.152-.216.288-.648.432-1.152.432-.432 0-.864-.144-1.08-.432zm17.138-2.88c-3.312-3.889-7.417-6.841-12.385-6.985-.288 0-.864-.072-1.008.216-.072.216.144.792.576 1.224 2.664 3.024 8.641 3.384 12.817 5.616v-.071zm3.816 11.16c2.953-2.304 4.752-5.472 6.625-8.497-2.305 2.016-6.265 4.176-8.785 7.272-.792 1.08-2.232 2.521-1.44 2.953 1.008.433 3.096-1.295 3.6-1.728zM152.197 2.1c-.432-.144-2.304-.648-2.665-.648.72 2.088 1.152 2.664 2.88 4.176 2.232 1.584 4.537 2.52 7.201 4.176-2.375-4.536-5.184-6.841-7.416-7.704zm17.066 10.512c-7.561 5.977-9.433 7.777-10.009 9.073-.36.792-.504 1.584.648 1.584 2.592.001 8.208-8.785 9.361-10.657zm-1.945-7.848c0-.864.576-1.656 1.512-1.656 1.08 0 1.584.792 1.584 1.656 0 .576-.432 1.512-1.584 1.512-.864 0-1.512-.792-1.512-1.512z"/></svg>