<svg xmlns="http://www.w3.org/2000/svg" width="241" height="60" viewBox="-9.986 -5.88 241 60" overflow="visible"><path fill="#FFF" d="M150.808 36.23c-.504-.504-.792-.936-1.08-1.224-10.368-1.728-18.146-3.528-28.298-6.192 3.528 3.384 15.121 8.929 15.049 12.601 0 .216 0 .432-.071.72-.36.937-1.656 1.152-2.593 1.008-1.584-.216-4.681-1.368-6.912-3.6-2.089-2.088-7.272-9.577-8.065-11.305-1.655-.432-5.688-1.44-21.025-5.977 4.032 4.393 12.241 7.561 11.953 13.033-.072.36-.288.648-.576.72-1.296.288-2.448.216-4.104-.864-3.96-2.376-7.776-9.145-9.577-13.393-.071-.072 0-.144-.071-.144-.145-.072-13.394-4.32-19.082-5.833 3.961 2.664 8.497 6.336 10.297 8.713 1.296 1.584 2.809 3.816 1.008 4.824-1.655.936-4.536-1.008-6.408-2.952-2.664-2.448-6.913-9.577-8.497-11.593-3.888-1.224-13.609-3.456-17.065-3.96 3.096 2.736 11.161 7.705 11.377 11.305.072.864-.216 1.728-.864 2.304-.576.432-1.08.504-2.088.144-2.809-.936-9.217-9.433-11.449-14.329-10.228-2.016-21.173-1.656-31.974.792-2.448.576-10.081 3.672-13.321 5.833-.648.504-3.024 2.448-4.536 2.88-.936.288-2.232.432-2.736-.216-.792-1.512 3.312-2.448 6.409-4.248 6.48-3.745 17.425-8.209 34.635-7.633 10.441.36 21.818 3.024 22.25 3.24C66.13 3.971 70.739.803 73.907.299c.648-.144 1.801-.504 2.376-.144.864.576.648 1.368.288 2.448-1.512 4.464-6.336 5.617-11.017 8.857 8.497 2.016 12.313 3.024 18.865 5.184 3.312-5.4 7.993-8.497 12.313-9.504 2.16-.504 3.816-.288 4.896.072.432.144.504.432.504.648-.72 6.553-12.025 6.121-15.481 9.433 6.049 1.944 15.266 4.824 19.802 5.977 3.744-4.681 8.064-7.849 12.169-8.137 1.368-.144 3.744.216 4.608 1.152 1.656 1.656-1.008 3.528-2.304 4.393-3.24 2.232-9.505 2.448-12.529 3.168 27.435 7.993 44.859 10.585 56.741 11.449.936-3.096 4.032-6.913 5.832-8.857.864-.936 1.872-1.872 2.952-2.592 4.393-3.168 10.081-3.672 10.009.216 0 5.041-6.553 8.281-17.209 11.377 9.072.504 18.649.144 27.218-2.521.217-6.336-1.655-15.409 3.961-19.37.216-.144.576-.288.936-.36 1.297-.288 2.16.576 2.809 1.8 2.448 4.464-.72 12.097-3.601 16.489 1.225-.576 3.744-1.728 4.537-2.016 0 0 4.464-3.457 6.048-4.537 10.081-7.128 17.354-4.608 16.201-.936-3.384 7.345-14.112 6.409-21.745 6.841-.648.432-2.232.936-4.032 1.8 3.815.216 11.089.72 14.761 2.736 3.96 2.16 1.872 5.329-1.872 5.257-4.896 0-16.058-5.617-16.562-6.697-1.44.648-8.425 2.232-12.817 2.664.145.072 8.281 2.232 12.098 3.745 2.304.936 4.608 1.944 3.6 4.032-3.023 6.48-17.785-6.48-18.505-7.345-7.272.288-15.266-.144-22.683-1.008.576.216 2.232.864 3.961 1.8 3.096 1.8 4.248 3.096 5.04 4.608.937 1.656 1.008 4.32-1.08 4.32-3.242.002-11.81-8.062-14.187-10.511zM54.536 4.764c0-.864.504-1.656 1.584-1.656.936 0 1.512.792 1.512 1.656 0 .72-.648 1.512-1.512 1.512-1.152 0-1.584-.936-1.584-1.512zm11.161 16.921c-.576-1.296-2.448-3.096-10.009-9.073 1.152 1.872 6.769 10.657 9.361 10.657 1.152.001 1.008-.792.648-1.584zm6.841-16.057c1.729-1.512 2.16-2.088 2.881-4.176-.36 0-2.232.504-2.665.648-2.232.864-5.041 3.168-7.417 7.705 2.664-1.657 4.969-2.593 7.201-4.177zm12.889 19.441c-2.521-3.096-6.48-5.256-8.785-7.272 1.872 3.024 3.673 6.192 6.625 8.497.504.432 2.592 2.16 3.6 1.729.792-.433-.648-1.874-1.44-2.954zM99.9 9.588c.433-.432.648-1.008.576-1.224-.144-.288-.72-.216-1.008-.216-4.969.144-9.073 3.096-12.385 6.985v.072c4.176-2.232 10.153-2.593 12.817-5.617zm4.177 19.586c-1.513-1.224-4.177-3.168-5.328-4.032 2.88 5.4 6.048 8.208 6.192 8.208h.071v.072c.937.576 2.16 1.512 3.24 1.296-.071-.216.361-1.944-4.175-5.544zm-2.088-11.161c-.288-.36-.433-.792-.433-1.152 0-.432.504-1.584 1.152-1.584 1.44 0 1.944.792 1.944 1.584 0 .36-.145.792-.433 1.152-.216.288-.647.432-1.08.432-.503 0-.934-.144-1.15-.432zm16.344 2.376c1.584-.576 3.673-1.872 3.961-2.952 0-.864-1.513-1.224-3.528-.864-2.017.288-4.465 1.296-6.265 2.52-1.225.937-2.376 1.944-3.312 3.024 3.312 0 8.209-1.368 9.144-1.728zm-5.255 12.601c.071-.72.647-1.512 1.656-1.512 1.008 0 1.584.792 1.512 1.512 0 .432-.216.864-.432 1.152-.288.36-.648.504-1.152.504-1.153 0-1.584-1.008-1.584-1.656zm21.458 7.129c-2.377-3.168-7.85-5.544-11.882-8.497 1.225 2.016 2.809 4.249 5.041 6.48 2.88 2.88 6.192 4.176 7.128 3.457.217-.144.144-.864-.287-1.44zm2.015-14.618c0-.792.576-1.584 1.513-1.584 1.08 0 1.584.792 1.584 1.584 0 .864-.721 1.584-1.656 1.584-1.008 0-1.441-1.007-1.441-1.584zm6.265 15.41c0-.864.432-1.584 1.512-1.584 1.009 0 1.513.72 1.513 1.584 0 .36-.145.792-.36 1.008-.36.36-.72.504-1.152.504-1.081 0-1.513-.864-1.513-1.512zm14.905-3.168c-.576-.216-3.456-1.368-5.4-2.016 2.088 2.016 9.937 9.577 12.889 9.577 1.224-2.449-3.384-5.833-7.489-7.561zm24.771-13.61c.216-1.152-.576-1.296-1.152-1.44-4.177-.432-7.993 2.808-10.873 6.409-1.152 1.44-2.305 3.312-2.736 4.176 6.552-2.232 13.608-3.744 14.761-9.145zm-6.769 19.946c0-.792.504-1.584 1.584-1.512.432 0 1.439.432 1.439 1.584 0 .432-.144.792-.432 1.08-.863.864-2.591.36-2.591-1.152zm7.128-5.976c6.121 4.825 12.961 7.777 14.186 5.833 1.152-1.801-9.937-4.537-14.186-5.833zm13.106-6.121c2.376-3.096 4.393-7.561 5.04-11.521.072-1.44.217-1.224.072-2.448-.072-.144-.072-.144-.072-.288-.071-.648-.144-1.008-.576-1.872-.144-.36-.504-1.152-.863-1.224-.072-.072-.072-.072-.217-.072h-.216c-.144.072-.647.144-1.584 1.224-3.168 4.176-2.16 9.361-2.16 16.489l.576-.288zm18.145 5.329c-2.736-3.024-7.921-2.592-16.346-3.384 3.024 1.656 13.105 6.697 15.985 4.968.361-.216.937-.937.361-1.584zm9.073-13.105c.72-1.08.432-2.016-1.801-2.304-5.544-.72-15.697 6.84-16.346 7.417 6.194-.145 14.619.071 18.147-5.113z"/></svg>