<svg xmlns="http://www.w3.org/2000/svg" xmlns:xlink="http://www.w3.org/1999/xlink" width="848" height="249" viewBox="218 238 848 249" overflow="visible"><defs><path id="a" d="M0 0h1280v720H0z"/></defs><clipPath id="b"><use xlink:href="#a" overflow="visible"/></clipPath><path clip-path="url(#b)" fill="#FFF" d="M411.658 353.114c-.825 17.99-13.383 42.622-37.676 73.887-25.118 32.656-46.368 48.985-63.752 48.985-10.765 0-19.881-9.94-27.323-29.834l-14.911-54.693c-5.528-19.883-11.455-29.834-17.796-29.834-1.381 0-6.219 2.909-14.498 8.703l-8.692-11.201a2330.641 2330.641 0 0 0 26.961-24.051c12.158-10.51 21.287-16.038 27.372-16.595 14.377-1.382 23.226 8.449 26.548 29.493 3.588 22.705 6.073 36.828 7.467 42.354 4.146 18.839 8.704 28.247 13.686 28.247 3.867 0 9.673-6.11 17.42-18.33 7.734-12.22 11.88-21.517 12.437-27.905 1.104-10.546-3.042-15.833-12.437-15.833-4.425 0-8.983 1.019-13.674 3.031 9.08-29.749 26.427-44.198 52.029-43.374 18.983.56 27.93 12.876 26.839 36.95"/><path clip-path="url(#b)" fill="#FFF" d="M525.681 411.386c-7.747 14.644-18.39 27.906-31.942 39.786-18.536 16.026-37.058 24.04-55.581 24.04-8.583 0-15.153-2.765-19.711-8.293-4.558-5.528-6.704-12.703-6.425-21.555.266-9.113 3.103-23.213 8.497-42.282 5.395-19.068 8.098-29.299 8.098-30.682 0-7.177-2.497-10.775-7.467-10.775-1.661 0-6.364 2.909-14.11 8.703l-9.541-11.201c8.849-8.013 17.698-16.026 26.548-24.051 11.892-10.51 20.741-16.038 26.56-16.596 9.116-.824 15.82 1.855 20.111 8.062 4.279 6.206 5.868 14.256 4.777 24.172-3.601 16.813-7.481 38.161-11.626 64.053-.279 11.856 4.012 17.771 12.862 17.771 3.867 0 10.776-4.084 20.741-12.278 8.292-6.813 15.068-13.227 20.329-19.238l7.88 10.364zM489.592 263.87c-.278 6.885-3.733 13.492-10.376 19.821-7.467 7.151-16.317 10.728-26.548 10.728-15.76 0-23.372-6.874-22.814-20.633.266-7.152 4.484-14.037 12.643-20.644 8.159-6.594 17.213-9.904 27.178-9.904 5.807 0 10.644 2.279 14.523 6.813 3.867 4.546 5.661 9.152 5.394 13.819"/><path clip-path="url(#b)" fill="#FFF" d="M784.729 411.386c-7.746 14.645-18.391 27.906-31.943 39.786-18.534 16.026-37.059 24.039-55.58 24.039-17.991 0-26.692-9.941-26.137-29.846.267-8.85 2.001-19.48 5.176-31.918 3.177-12.438 4.911-22.111 5.189-29.021.279-10.498-2.91-15.759-9.577-15.759-7.212 0-15.807 8.582-25.795 25.722-10.547 17.979-16.244 35.398-17.069 52.261-.557 11.903.606 21.032 3.491 27.385-19.298.558-32.817-2.63-40.526-9.54-6.91-6.085-10.074-16.171-9.516-30.282.266-8.849 1.624-17.698 4.072-26.547 2.437-8.85 3.795-16.729 4.074-23.652.558-10.229-3.188-15.346-11.213-15.346-6.934 0-14.414 7.891-22.439 23.65-8.025 15.759-12.461 32.221-13.286 49.362-.558 15.492.436 26.27 2.971 32.354-18.985.558-32.465-3.444-40.441-12.002-6.619-7.163-9.637-18.049-9.08-32.669.267-7.165 1.527-17.166 3.806-29.991 2.279-12.826 3.552-22.814 3.82-29.99.545-4.958-.704-7.444-3.734-7.444-1.661 0-6.365 2.801-14.111 8.391l-9.952-11.201c1.382-1.091 10.086-9.117 26.136-24.052 11.613-10.776 19.492-16.304 23.638-16.583 7.189-.557 12.995 2.413 17.42 8.91 4.424 6.498 6.643 14.038 6.643 22.608 0 2.764-.279 5.394-.824 7.88 4.146-6.352 8.983-11.892 14.522-16.596 12.717-11.055 26.961-17.287 42.721-18.668 13.552-1.103 23.226 2.073 29.045 9.54 4.69 6.085 6.897 14.802 6.631 26.136a582.83 582.83 0 0 0 6.23-5.394c6.354-7.467 12.572-13.407 18.657-17.833 10.23-7.467 20.886-11.613 31.941-12.449 13.273-1.103 22.813 2.061 28.621 9.504 4.97 6.061 7.188 14.741 6.643 26.026-.278 7.722-2.145 18.949-5.6 33.689-3.468 14.741-5.189 23.202-5.189 25.408-.277 5.794.28 9.783 1.661 11.989 1.382 2.206 4.691 3.296 9.953 3.296 3.867 0 10.775-4.084 20.74-12.278 8.293-6.813 15.067-13.226 20.33-19.238l7.881 10.363z"/><path clip-path="url(#b)" fill="#FFF" d="M940.282 410.961c-8.025 13.264-23.782 26.514-47.289 39.764-29.312 16.849-59.048 25.263-89.183 25.263-22.403 0-38.453-7.468-48.127-22.391-6.91-10.231-10.232-22.391-9.952-36.501.267-22.39 10.232-43.676 29.869-63.873 21.566-22.111 47.011-33.178 76.323-33.178 27.104 0 41.481 11.043 43.143 33.106 1.103 14.061-6.644 28.547-23.226 43.446-17.711 16.28-39.98 26.62-66.794 31.032 4.97 6.897 12.436 10.341 22.4 10.341 19.905 0 41.616-5.055 65.133-15.189 16.862-7.115 30.138-14.51 39.822-22.172l7.881 10.352zm-94.166-43.312c.268-7.419-2.764-11.141-9.115-11.141-8.291 0-16.705 5.71-25.264 17.128-8.558 11.419-12.982 22.354-13.25 32.804-.157 0-.157 1.794 0 5.37 13.528-4.946 25.264-12.51 35.204-22.693 8.001-8.8 12.146-15.964 12.425-21.468"/><path clip-path="url(#b)" fill="#FFF" d="M1052.889 383.154c-1.113 25.407-10.51 47.362-28.208 65.859-17.697 18.499-39.688 27.749-65.958 27.749-21.845 0-38.439-7.044-49.773-21.129-8.291-10.486-12.862-23.604-13.686-39.336-1.394-23.749 7.176-45.57 25.723-65.45 19.905-22.087 44.925-33.13 75.074-33.13 19.348 0 34.004 6.498 43.967 19.469 9.406 11.88 13.686 27.203 12.861 45.968m-46.877-1.563c.28-7.479-.763-14.343-3.114-20.573-2.353-6.23-5.745-9.358-10.159-9.358-14.109 0-25.725 7.625-34.838 22.864-7.76 12.474-11.905 25.771-12.45 39.893-.278 6.935.969 13.033 3.732 18.293 3.03 6.099 7.322 9.141 12.862 9.141 12.438 0 23.094-7.333 31.943-22.026 7.466-12.196 11.468-24.937 12.024-38.234"/></svg>