<?xml version="1.0" standalone="no"?>
<!DOCTYPE svg PUBLIC "-//W3C//DTD SVG 1.1//EN" "http://www.w3.org/Graphics/SVG/1.1/DTD/svg11.dtd" >
<svg xmlns="http://www.w3.org/2000/svg">
<metadata></metadata>
<defs>
<font id="salt__pepperscript_smooth" horiz-adv-x="1228" >
<font-face units-per-em="2048" ascent="1638" descent="-410" />
<missing-glyph horiz-adv-x="500" />
<glyph horiz-adv-x="0" />
<glyph horiz-adv-x="682" />
<glyph unicode=" " />
<glyph unicode="!" horiz-adv-x="737" d="M215.5 1725q12.5 245 45 465t81.5 411q28 106 91.5 342t68.5 256q5 22 7.5 30t9.5 21t17.5 17.5t26.5 3.5q57 -12 17 -234q-65 -319 -141.5 -836.5t-76.5 -678.5t17 -364t39 -357q3 -23 12.5 -72.5t13 -75t-0.5 -55.5t-21 -45q-15 -6 -31.5 11t-32 48t-28 65t-21.5 68 q-60 220 -83 477.5t-10.5 502.5zM342 106q3 76 10 127q-6 41 33 54q36 5 61 -29.5t36 -86.5t14 -122q4 -96 -2 -116q-18 -37 -64 -39q-23 0 -43.5 22.5t-28.5 52.5q-16 71 -16 137z" />
<glyph unicode="&#x22;" horiz-adv-x="798" d="M123 2865v94q0 26 1 41.5t10 36t26 27.5q26 13 42 14t25 -5t27 -24l8 -8q19 -21 15.5 -86.5t-16 -135.5t-39.5 -124.5t-56 -54.5q-18 0 -30.5 83t-12.5 142zM498 2865v94q0 26 1 41.5t10 36t26 27.5q26 13 42 14t25 -5t27 -24l8 -8q19 -21 15.5 -86.5t-16 -135.5 t-39.5 -124.5t-56 -54.5q-24 0 -33.5 75.5t-9.5 149.5z" />
<glyph unicode="#" horiz-adv-x="1597" d="M-164 958q4 3 29.5 -10t79.5 -32t114 -23q59 -4 258 34t209 48q19 189 21 301q4 190 16 315q5 58 13 73q15 27 57 22q56 -9 53 -236q0 -11 -6 -173.5t-4 -264.5q15 4 82.5 18.5t131.5 30t97 29.5q47 278 96 477q14 62 39 132t47 85q14 11 45 4q40 -56 11 -232 q-20 -112 -38 -247t-18 -164q26 7 82 23t89 25t87 21t90 16.5t82 6.5t79 -5t66 -22.5t56 -40.5q43 -63 33 -106t-70 -31l-16 15q-11 21 -11.5 37.5t4.5 25t14 20.5t13 19q-87 83 -348 25q-29 -6 -64 -16t-60 -18t-66 -21t-60 -19q-9 -46 -15.5 -132t-10 -174.5t-4.5 -97.5 q188 37 276 60q168 40 264 24q120 -21 136 -112q5 -49 -40 -68.5t-114 -19.5q-9 0 -18.5 8.5t-14.5 19.5q-9 19 2.5 29t35 12t48.5 3t44.5 4t21.5 12q-5 19 -24.5 40t-39.5 27q-44 14 -99 15t-131.5 -13.5t-139 -29.5t-170.5 -44q-25 -7 -37 -10q0 -2 -1.5 -24t-4.5 -54 t-8.5 -74t-15 -95.5t-22.5 -106.5q-43 -178 -51 -197q-36 -64 -90 -28q-29 16 -32 68t4 114l20 336q-24 -11 -139.5 -47.5t-120.5 -38.5q-1 -22 -2 -107t-2 -110q0 -18 0.5 -58.5t0 -65t-0.5 -64.5t-2 -66t-4.5 -60t-7 -56.5t-10.5 -45t-15.5 -36t-20.5 -19.5 q-4 -2 -10.5 -2t-15.5 1t-13 1q-40 0 -61 38.5t-27 123.5q-1 31 7.5 234.5t5.5 246.5q-76 -15 -173 -23t-181 -3t-103 26q-14 22 7 21q8 0 32 -6q16 -4 24 -5q155 -16 398 43q0 101 8 228t10 186q-12 -2 -123.5 -23.5t-217.5 -33.5t-175 -3q-34 3 -75.5 17.5t-70 35 t-24.5 37.5zM676 757.5q0 -68.5 2 -159.5v-43q39 7 82 19.5t98.5 31.5t81.5 27q1 13 8 87t16 163t19 164q-298 -82 -305 -89q0 -23 -1 -77.5t-1 -123z" />
<glyph unicode="$" horiz-adv-x="1597" d="M21.5 364.5q-10.5 133.5 25.5 240.5t119 165q45 30 104 49.5t139 24t160 -22.5q155 -52 160 -159q2 -40 -15 -75t-48 -32q-27 3 -34 16.5t2 32.5t21.5 39t21.5 41.5t5 34.5q-12 34 -75.5 58t-123.5 32q-175 19 -282 -56.5t-133 -213.5q-29 -166 24 -376.5t179.5 -404.5 t291.5 -295q18 51 49 183q85 378 140.5 802t42.5 648q-3 10 -10 22.5t-19 29.5t-18 28q0 -1 -25 45t-50.5 92t-25.5 45q-34 65 -110 223q-8 16 -59.5 156.5t-63.5 185.5q-21 85 -23 171t17.5 162.5t56 136t95 95t130.5 37.5q38 1 80 -12t68 -27t71 -41q21 114 33 373 q7 100 -2 178q7 50 98 31q7 -3 9.5 -15.5t3 -40.5t0.5 -34q6 -60 8.5 -131.5t1.5 -131t-5 -130t-7.5 -111t-8 -91.5t-4.5 -56q1 -14 14 -44t15 -40q48 -190 -88 -301q-3 -58 -19.5 -301t-21.5 -371q0 -7 -2.5 -33t-2 -31t2.5 -28q4 -16 17 -36.5t35.5 -51.5t31.5 -45 q120 -187 244 -400q194 -353 251 -579q24 -108 19.5 -209t-42.5 -191t-95.5 -158.5t-141 -110t-178.5 -46.5q-205 -10 -377 55q-7 -26 -29 -114t-31.5 -122.5t-29 -95.5t-39.5 -110q-2 -4 -10.5 -28.5t-13.5 -34t-15.5 -24.5t-24.5 -19.5t-32 -0.5q-23 10 -31.5 35 t-2.5 63.5t14.5 70.5t24 79t20.5 66q16 59 35.5 162.5t23.5 136.5q-3 5 -12.5 13t-26 19.5t-26.5 20.5q-136 106 -241 259.5t-167 336.5q-52 153 -62.5 286.5zM520.5 2157.5q-6.5 -83.5 11 -171t41.5 -164.5t69 -170t79 -156.5t86 -152.5q3 12 17.5 213t17.5 273l-66 -12 q-7 -1 -21 -4t-21.5 -4t-16.5 -1t-14.5 2.5t-8.5 8.5q-1 5 4 9.5t15.5 7.5t20 5t22.5 4.5t18 3.5q7 2 34 7t42 10q8 63 30 277t27 263q-12 26 -74.5 55.5t-113.5 32.5q-26 1 -45.5 -5.5t-33.5 -17t-29.5 -36.5t-26 -49t-29.5 -68q-28 -77 -34.5 -160.5zM705 -608 q95 -39 216.5 -45.5t206.5 30.5q103 48 167.5 156t75 246.5t-33.5 294.5q-38 132 -105 266t-166 299t-138 240q-3 -23 -18.5 -180t-33.5 -312.5t-36 -271.5q-21 -140 -76 -418t-59 -305zM991 1970q37 57 44.5 123t-15.5 117q-8 -27 -17.5 -111.5t-11.5 -128.5z" />
<glyph unicode="%" d="M13 -505q1 21 8 54.5t14 63t18 72.5q63 239 189.5 587.5t277.5 704t321.5 679.5t305.5 492q7 10 23 37t27 36.5t22 0.5q9 -5 10.5 -19t-3.5 -36t-12.5 -44.5t-21 -53.5t-24.5 -55.5t-27.5 -56.5t-26 -50t-23.5 -44t-16 -30q-230 -437 -527 -1129.5t-388 -1010.5 q-5 -16 -13 -46.5t-14.5 -52.5t-15 -50.5t-16.5 -48.5t-17 -38.5t-18.5 -27.5t-18.5 -9q-14 0 -22.5 8t-10.5 27t-1 40zM98.5 1661.5q-9.5 66.5 8 132t59.5 123.5t98 82q86 35 183 3t133 -101q29 -57 28 -123.5t-30 -126.5q-28 -57 -81 -99t-113 -59t-124.5 -2t-112.5 65 q-39 39 -48.5 105.5zM240 1602q19 -91 108 -91q61 2 118.5 51t87 123t15.5 142q-12 58 -69 103.5t-103 33.5q-40 -7 -102 -127q-35 -66 -50.5 -122t-4.5 -113zM637.5 -9.5q-9.5 66.5 8 132t59.5 123.5t98 82q86 35 182.5 2.5t132.5 -101.5q29 -57 28 -123t-30 -126 q-28 -57 -80.5 -99t-112.5 -59t-124.5 -2t-112.5 65q-39 39 -48.5 105.5zM778 -70q19 -90 109 -90q61 2 118.5 51t87 123t15.5 142q-12 58 -69 103.5t-103 33.5q-40 -7 -102 -127q-35 -67 -51 -123t-5 -113z" />
<glyph unicode="&#x26;" horiz-adv-x="1781" d="M-2 711q0 221 45 394.5t138.5 307t225.5 232.5t318 180q-89 143 -127.5 298t-15 309.5t113.5 272.5q60 81 143.5 132t168.5 67t170 1.5t151.5 -57t109.5 -118t46 -172.5q4 -77 -22 -163t-68 -136q-46 -53 -90 -39q-26 6 -7 31q17 20 37 24q38 20 74.5 75.5t53 138 t-22.5 173.5q-46 109 -143.5 172t-188.5 54q-95 -6 -171 -84.5t-118.5 -195t-60 -250.5t-6.5 -259q3 -33 12.5 -70.5t17.5 -60t22 -58t17 -44.5q62 24 94 31.5t80 7.5q121 3 160 -68q37 -80 -20 -129q-53 -40 -126 -37t-146.5 35t-119.5 78q-130 -82 -222.5 -173.5 t-151 -188.5t-91 -216.5t-43 -241.5t-6.5 -280q4 -184 66 -341.5t168 -271.5t251.5 -188.5t317.5 -99.5q22 198 36.5 536.5t12.5 614.5q-49 -7 -87 -34t-76 -65t-68 -55q-19 -3 -15 13q9 32 78 89q89 74 170 93q2 72 0 188.5t-3.5 176t3.5 102.5q5 26 20.5 34.5t30.5 -5.5 t19 -44q16 -121 23 -442q81 -9 155 -49.5t131 -102.5t101 -142t69.5 -167.5t31 -179t-9.5 -178t-57 -163t-105.5 -134t-161.5 -91.5t-220 -36q-23 -153 -75.5 -349t-85.5 -294.5t-58 -167.5q-40 -107 -80 -175t-59 -59q-8 5 -10.5 14.5t1.5 23t10.5 29t17.5 36t21.5 39.5 t22.5 43.5t21 44.5q52 121 109 368.5t79 444.5q-161 19 -313.5 75.5t-281 146t-225.5 203t-151.5 254.5t-54.5 292zM844 1829l14 -25q96 -113 189 -104q57 5 81 51q23 43 -6 82q-34 45 -136 40.5t-142 -44.5zM1116 -221q111 4 200 37t147 87t96.5 125.5t52.5 151.5 t9.5 165.5t-27.5 167t-63 155.5t-92 132t-119.5 97t-141.5 49q2 -199 -16.5 -591t-45.5 -576z" />
<glyph unicode="'" horiz-adv-x="409" d="M123 2865v94q0 26 1 41.5t10 36t26 27.5q26 13 42 14t25 -5t27 -24l8 -8q19 -21 15.5 -86.5t-16 -135.5t-39.5 -124.5t-56 -54.5q-18 0 -30.5 83t-12.5 142z" />
<glyph unicode="(" d="M43 1108q-11 432 44.5 806t178.5 613q37 71 76 129.5t94.5 119t117 104.5t143.5 76t175 42q76 11 167 3t149 -35q9 -5 12.5 -14.5t-2.5 -13t-22 4.5q-29 14 -58.5 21t-44.5 7.5t-53 0.5q-56 3 -109 -14.5t-97 -51.5t-74.5 -63.5t-62.5 -64.5q-9 -10 -13 -15 q-111 -126 -194 -356t-126 -502t-60 -570t-5 -576t49 -503q10 -67 24 -132.5t35.5 -141t47 -140t60.5 -125t74.5 -102t90 -64.5t106.5 -18q4 0 17.5 1t16.5 1.5t14 2t15.5 3t14.5 4t17 6.5t17.5 9t22.5 12q5 1 9 0.5t7.5 -2.5t6 -4.5t4.5 -5.5t2.5 -5.5t0 -5t-2.5 -4.5 q-57 -32 -115 -41q-112 -16 -233 42.5t-207 154.5q-62 69 -111.5 158.5t-82 169t-57 199.5t-37 193t-22 210.5t-11.5 191t-6 191.5q-2 64 -3 94z" />
<glyph unicode=")" horiz-adv-x="1034" d="M-21 -415.5q2 11.5 23 -0.5q38 -16 74.5 -19t68.5 1q44 -1 88 15t74 36t65.5 56t50.5 54.5t40 51.5q99 127 168 355t100 496t36.5 559.5t-15.5 562.5t-62 489q-13 78 -31.5 153.5t-45 159.5t-62 153t-77 124.5t-95.5 83t-113 20.5q-30 -3 -41.5 -4.5t-33 -10.5t-48.5 -28 q-14 -3 -23 7.5t-3 18.5q54 30 104 43q104 18 219 -34t193 -144q45 -49 83.5 -110t67 -118t53.5 -136t41.5 -137.5t32 -150t23.5 -145t17 -152t12 -142t9.5 -143t8.5 -128.5q24 -420 -15.5 -788t-144.5 -608q-40 -90 -85 -161.5t-109.5 -142t-152.5 -117t-193 -61.5 q-69 -16 -151.5 -10.5t-139.5 31.5q-13 9 -11 20.5z" />
<glyph unicode="*" horiz-adv-x="573" d="M-27 2093q8 -6 21.5 -3t19.5 6t19.5 10.5t21.5 11.5q83 38 144 84q-1 -11 -4.5 -61t-10.5 -73q-2 -6 -11.5 -17t-12 -17t3.5 -19q26 4 44.5 17.5t29.5 36t17.5 43t14 52t13.5 48.5q5 -5 16 -15.5t16.5 -15t16.5 -13t24 -16.5q74 -49 88 -10q7 18 -52 53q-73 43 -85 53 q-46 39 4 66q22 -6 78 -29.5t84 -29.5q2 0 13.5 -2.5t17 -3t16.5 -1t17.5 1t14 5.5t11.5 10q-10 15 -25.5 22.5t-43 13.5t-35.5 9q-16 5 -53 19.5t-56 19.5q66 74 99 109q5 5 25 24t29 28.5t20.5 27.5t15.5 36q-12 0 -25 -3.5t-21.5 -7t-21.5 -12.5t-18.5 -13.5t-19.5 -16 t-17 -14.5q-10 -8 -35 -29t-43.5 -35t-36.5 -24q4 18 11 60t12 64t13 54t19 55t25 41q4 6 14 16t15 15.5t9 17t-3 21.5q-14 1 -27 -4.5t-19 -10t-19.5 -19t-14.5 -15.5q-45 -50 -71 -116t-46 -161q-20 46 -35 94q-1 4 -6.5 32t-14.5 39.5t-28 12.5q-3 -35 2 -71t13 -73 t10 -52q-21 -1 -54 16t-51 12q0 -23 23.5 -40t51.5 -25t51 -23t22 -35q0 -6 -9 -16.5t-25.5 -25.5t-18.5 -17q-18 -16 -58.5 -51t-69 -61t-49.5 -50v-10z" />
<glyph unicode="+" d="M29 645q0 47 243 47l287 4q2 20 2 43q0 83 -3.5 187t-2 151.5t11.5 87.5q1 2 5.5 16t7.5 19.5t10 12.5t16 8q47 0 47 -244l4 -281q288 0 394 -4q26 -1 40 -3t43 -8.5t41 -21t5 -36.5q-16 -48 -523 -27q0 -291 -4 -397q-1 -26 -3 -40t-8.5 -43t-21 -41t-36.5 -5 q-43 15 -27 528q-23 2 -47 2q-83 0 -187 -3.5t-151.5 -2t-87.5 11.5q-3 1 -12.5 4.5t-15 6t-12.5 6.5t-10.5 9.5t-4.5 12.5z" />
<glyph unicode="," horiz-adv-x="307" d="M6 209q1 30 30 54t62 26q39 1 85 -40.5t55 -82.5q12 -43 13 -76t-13 -68t-29 -59t-49 -72q-25 -36 -63.5 -79.5t-51.5 -34.5q-5 3 -6 8.5t1.5 12t6 13.5t9 14.5t10.5 13.5t10.5 12.5t7.5 9.5q23 31 34.5 48t24 50.5t7.5 58.5q-8 32 -33.5 58t-50.5 40t-44 38t-16 55z" />
<glyph unicode="-" horiz-adv-x="1044" d="M61 825q0 24 105 41q45 6 139 6q2 0 46.5 1.5t97.5 2.5t142 0t177 -4q26 -1 40 -3t43 -8.5t41 -21t5 -36.5q-8 -27 -62 -32.5t-158 2t-134 7.5q-9 0 -97.5 -2.5t-134.5 -2t-115 3.5t-102 15t-33 31z" />
<glyph unicode="." horiz-adv-x="245" d="M54.5 95q6.5 -29 33.5 -36q37 -11 64 12.5t37 60t9 73t-14 49.5q-28 33 -82 20q-11 -2 -18 -9t-9.5 -12.5t-5 -18t-3.5 -15.5l-11 -59q-7 -36 -0.5 -65z" />
<glyph unicode="/" d="M-51 -337q1 23 9 62t15.5 70.5t20.5 81.5q37 139 69.5 255.5t70 233t64 200t70 194t68.5 175.5t80 183t82.5 178t97.5 200.5t105 209t124 243.5q55 108 84 165q58 118 175.5 318t142.5 230q9 12 26.5 42t29.5 41t24 1q11 -7 11.5 -27t-7 -48t-21 -63.5t-29.5 -70.5 t-34.5 -72.5t-33.5 -67t-28 -55t-18 -36.5q-149 -327 -321 -694.5t-257 -550t-179.5 -400t-156 -393.5t-118.5 -381q-3 -13 -10.5 -40.5t-12.5 -45.5t-12.5 -45.5t-13.5 -45.5t-14 -41t-15.5 -37.5t-15.5 -27.5t-16.5 -19t-16.5 -5q-17 -1 -26.5 8t-11.5 30.5t-1 44.5z" />
<glyph unicode="0" horiz-adv-x="1474" d="M163.5 909.5q-1.5 23.5 4 72.5t7.5 72t10 71t12 70.5t13 69.5t13 68q12 71 82.5 248.5t112.5 237.5q31 45 58 76t71.5 68t103 56t129.5 19q80 0 189 -47.5t172 -104.5q18 -16 32.5 -34t6.5 -23q-5 -3 -17 9.5t-44.5 40.5t-76.5 52q-121 67 -180 62q-86 -15 -182.5 -170 t-164.5 -361t-85 -379q-9 -81 -9 -190t8.5 -233t30.5 -248t54 -230t82.5 -184.5t112.5 -106.5q63 -21 124.5 -8.5t119 53t104 96t80.5 120.5q86 161 152 400t81.5 475.5t-59.5 383.5q-49 89 -76.5 127.5t-75.5 87.5q-20 -3 -48.5 -9.5t-42 -9t-44.5 -5t-55 1.5 q-81 8 -129 47q-51 44 -55 92.5t51 54.5q43 4 120 -22.5t123 -55.5q51 -28 107.5 -80.5t91.5 -97.5q92 -120 120.5 -307t-1.5 -389t-98 -404t-164 -368q-66 -111 -149 -165t-187 -65q-19 -2 -61 5t-74 18q-129 48 -223.5 142t-151.5 224.5t-86.5 277t-38.5 325.5 q1 50 -0.5 73.5zM823 1743q-3 -29 28 -55.5t76 -41t98.5 -14.5t90.5 19q-32 32 -92.5 65t-93.5 39q-6 1 -16.5 3t-17 3t-15.5 2.5t-15 1.5h-13.5t-12 -1.5t-8.5 -4t-6.5 -6.5t-2.5 -10z" />
<glyph unicode="1" horiz-adv-x="675" d="M-205 1866q0 7 5.5 9t15.5 0t20 -5t22.5 -7t18.5 -5q49 -9 97 -9.5t89 6.5t77 17t69 24.5t57 26.5t49 26t37 19q33 77 78 252q5 19 5 37.5t2 29.5t14 23q29 12 62.5 1t51.5 -42q12 -17 13 -39t-2.5 -36t-15.5 -47.5t-15 -43.5q-95 -303 -176 -940.5t-70 -959.5 q5 -116 2 -210.5t-13.5 -159.5t-37 -95t-68.5 -17q-16 5 -24.5 15.5t-10.5 27.5t-1.5 33t2.5 41t2 41q0 38 -4.5 228t-4.5 239q-8 215 67 771.5t132 787.5q-38 -12 -96.5 -37.5t-108 -39t-108.5 -13.5q-40 0 -131 14q-14 2 -32 3.5t-28.5 2t-21 3.5t-15 9.5t-4.5 18.5z" />
<glyph unicode="2" horiz-adv-x="1556" d="M38.5 235q24.5 29 84.5 27q99 -6 237 -86q223 147 370.5 356t201.5 457q42 200 59 362t7 297.5t-55.5 229t-127.5 137.5q-18 14 -64.5 6t-97.5 -27t-106 -59.5t-90 -89.5q-102 -147 -33 -297q23 -39 58.5 -55.5t68.5 -12t61.5 20.5t42.5 37q31 48 46 90.5t22 122.5 q1 18 2.5 31.5t5 35t10 32.5t15.5 8q28 -8 4 -144q-10 -112 -67.5 -192t-143.5 -76q-115 3 -162 106q-35 77 -22.5 156.5t55 147.5t114.5 118.5t156 67.5q71 16 133.5 9.5t128.5 -38.5q64 -34 109 -89t70.5 -119.5t37 -148t10.5 -165t-12.5 -180.5t-27 -183.5t-37.5 -185.5 q-57 -259 -238.5 -476t-429.5 -319q531 -362 762 -403q87 -16 167.5 -20.5t154.5 3.5t123 37.5t59 79.5q1 6 -1 17.5t-3.5 21.5t-2 19.5t4.5 14.5t16 3q8 -1 12.5 -12t4.5 -21q7 -75 -34 -122t-119.5 -62t-174 -10.5t-209.5 26.5q-106 24 -219 75t-195 102t-194.5 120 t-192.5 109q-80 -14 -124 -19.5t-94 -5t-80.5 15t-51.5 44.5q-29 46 -4.5 75zM58 212q-5 -13 12 -36q22 -31 77 -37.5t101 2t78 21.5q-60 44 -161 63q-95 18 -107 -13z" />
<glyph unicode="3" horiz-adv-x="1331" d="M155 2195q-4 9 3 11q97 33 170.5 35t146 -35t137.5 -123q130 26 230.5 7.5t173 -67t117.5 -120t64.5 -151.5t14.5 -161t-34 -149q-13 -31 -33 -61.5t-40.5 -54t-50.5 -50t-51.5 -43t-56 -39t-52.5 -33.5t-52.5 -31t-44.5 -26q134 -101 223.5 -245.5t122.5 -294.5t28 -297 t-52 -268t-124 -194q-69 -65 -204.5 -99.5t-280 -19.5t-227.5 83q-51 41 -81 104t-20 128.5t70 100.5q71 41 164 37q154 -8 207 -109q27 -50 18 -87q-3 -11 -8 -11q-14 -1 -18 11t-3 29.5t-11.5 43t-39.5 45.5q-69 58 -199 39q-67 -11 -104.5 -43.5t-41.5 -73.5t10 -84.5 t45.5 -81t68.5 -57.5q80 -39 203 -43q39 0 87 11t108 43t111 80t90 130.5t52.5 186.5t-10.5 256.5t-90 331.5q-65 179 -180 305q-238 -100 -365 24q-46 48 -39 82q9 47 80 67t141 5q51 -11 98 -31.5t64 -30.5t47 -30q53 39 122.5 139t124 237t48.5 242q-3 44 -11 93 t-30.5 106t-54.5 74q-125 49 -301 10q39 -60 48 -122t-9.5 -109.5t-65 -79t-112.5 -33.5q-93 -3 -145 60q-51 61 -25 136q33 97 178 152q30 12 65 21q-39 56 -78 87.5t-86 41.5t-93.5 6t-116.5 -21l-23 -4q-11 0 -17 12zM342 1157q-3 -18 26.5 -44.5t80.5 -45.5t98 -12 q63 8 127 49q-58 81 -148 110q-51 19 -112.5 2t-71.5 -59zM370 1783q36 -53 118 -47q16 1 32 5q31 9 57.5 28.5t47.5 53.5t13.5 90t-48.5 125q-163 -44 -217 -137q-38 -65 -3 -118z" />
<glyph unicode="4" horiz-adv-x="1495" d="M18 612q21 66 287 19q132 192 160 385t-37 424q-9 21 -2 43q21 43 60 19q51 -31 82 -141q10 -38 16 -81q28 -173 -4.5 -357.5t-130.5 -326.5q23 -5 125 -41t192 -59q104 665 196.5 1058t213.5 783q2 10 8 10q19 0 28 -10q64 -81 48 -135q-56 -196 -168.5 -704 t-196.5 -1033q88 -20 139.5 -28.5t126 -7t135.5 23.5q62 23 109 73q6 7 15.5 -0.5t4.5 -15.5q-25 -38 -61.5 -63t-82.5 -35.5t-91 -13.5t-102.5 3.5t-99 13.5t-97.5 19q-57 -347 -91.5 -578t-43 -304t-13 -117t-8.5 -66q-7 -67 -27.5 -113t-41.5 -44t-37 18t-19 49 q-10 75 -10 151t7.5 145t24 167t34.5 189.5t45 241.5t49 296q-93 24 -195.5 59.5t-140.5 44.5q-50 -64 -139 -99.5t-170 -8.5q-37 12 -73 59t-24 88zM59 592q-5 -22 8.5 -45t30.5 -37q44 -27 90.5 2.5t96.5 87.5q-48 12 -93.5 18t-86 1t-46.5 -27z" />
<glyph unicode="5" horiz-adv-x="1433" d="M143 243q-21 112 61 182q76 64 224 69q122 3 238.5 -51t214.5 -169q131 184 176.5 362t-3 334t-190.5 267q-74 57 -158.5 55.5t-166 -47.5t-148.5 -127q-6 -202 -55 -239q-11 -8 -14.5 -10.5t-13.5 -8.5t-15 -7.5t-12 -4t-12.5 -1t-10.5 4.5q-38 28 -38.5 150.5 t22.5 264.5t61 302q5 21 16.5 77t20.5 90.5t20 67.5q28 81 63.5 99.5t121.5 5.5q78 -20 141 -23t108 10t74 29t58 41q93 93 100 256q3 3 8.5 2.5t11 -5.5t5.5 -11q6 -119 -34 -196t-130 -120q-19 -9 -38 -15.5t-34.5 -11.5t-36 -7.5t-32 -4t-34.5 -0.5t-32 1t-34 3.5 t-32 4.5t-36 6t-35 6q-110 -481 -135 -662q107 101 243 114t264 -66q159 -99 240.5 -244.5t81 -300.5t-64.5 -310.5t-183 -285.5q68 -122 119 -291q33 -112 45 -238q0 -11 -15 -6q-13 6 -14 15q-53 302 -161 501q-79 -70 -180.5 -100t-233.5 -37q-166 -8 -289 94 q-96 80 -117 186zM177 233.5q6 -41.5 28 -82t55.5 -73.5t81 -55.5t100.5 -28.5q35 -2 69.5 -3t76 13.5t83 40.5t92 79t101.5 128q-36 45 -106 104q-142 108 -312 105q-76 -3 -132.5 -23.5t-86.5 -52t-43 -71t-7 -81z" />
<glyph unicode="6" horiz-adv-x="1413" d="M155 1091q5 133 32 267t65.5 258t95 232t120.5 189t142.5 130t161.5 55q89 6 166 -37t127 -125q19 -32 35 -71q12 -30 30 -83.5t21 -62.5q1 -4 -2 -7t-6 -3q-6 0 -10 4q-6 3 -9 6l-6 19q-8 18 -20.5 52.5t-18.5 49.5q-25 56 -47.5 93.5t-55.5 72t-76 49t-97 10.5 q-25 -18 -54 -44t-77 -84.5t-90 -128.5t-86 -180.5t-72.5 -236.5t-41.5 -300.5t-1 -368.5q5 -88 19.5 -177.5t27.5 -150.5t38.5 -143t36.5 -113.5t39.5 -106t30.5 -79.5q40 -109 101 -182t102 -76q63 7 107 20q-45 83 -64.5 202t-14.5 241t32.5 241.5t72 210t109 141.5 t137.5 39q45 -7 92.5 -38t69.5 -76q24 -50 24 -135.5t-19.5 -182t-56 -200.5t-81.5 -193t-100 -158t-107 -96q75 -168 164 -246q9 -7 25 -18t36 -24.5t27 -18.5q8 -4 8 -14q0 -9 -6 -9q-9 0 -49 28t-58 42q-139 100 -219 231q-182 -52 -311 14.5t-219 237.5 q-97 179 -144.5 363t-70.5 411q-10 127 -5 260zM918 143q9 -152 47 -272q84 48 167 202t131 332.5t42 303.5q-3 43 -19 78.5t-37.5 55t-43.5 30t-40 10.5q-92 -52 -153 -174t-82 -268t-12 -298z" />
<glyph unicode="7" horiz-adv-x="1433" d="M123 1927q-9 58 5 97t47 57.5t74.5 26.5t96.5 6t103.5 -6.5t104 -9t89.5 -3.5q282 4 459 90q5 4 33.5 33.5t56.5 53.5t61 48q1 0 13 -12q16 -16 20 -41q3 -50 -44.5 -133.5t-112 -165t-143 -193t-120.5 -196.5q373 110 490 4q25 -20 43 -65q4 -11 -7 -11q-13 2 -18 13 q-12 29 -34 47t-54 26t-59 10.5t-66 2.5q-41 0 -96 -18.5t-127 -49.5t-109 -43q-260 -532 -299 -1087q-16 -222 23 -584q4 -32 -4 -62t-17 -44t-18 -23q-5 -6 -15.5 -0.5t-13.5 14.5q-10 17 -20 41q-61 127 -74.5 346.5t15 459.5t89.5 483.5t142 426.5q-59 -11 -122 -11 t-124 18.5t-109 46t-77.5 70.5t-28.5 93q2 5 10 5q10 -1 13 -9t5 -26t7 -31q21 -45 69.5 -75.5t111 -42t131.5 -10t134 16.5q148 331 383 605q-125 -42 -271.5 -50t-251 2t-195.5 10.5t-136 -36t-41 -125.5q0 -3 -2.5 -5t-6.5 -1t-9 6q-1 1 -2 4.5t-2 5.5z" />
<glyph unicode="8" horiz-adv-x="1331" d="M233 1573q-10 104 3 189t50 151t107 100t168 29q220 -12 326 -115t123 -311q0 -7 -9.5 -7.5t-15.5 5.5q-4 4 -9 24.5t-10.5 49t-18 64t-29.5 71t-48 70t-71 60.5t-100.5 42t-133.5 16q-70 -32 -107 -103.5t-42 -156.5t10.5 -188.5t41 -191.5t58.5 -173q27 -69 98 -238.5 t109 -271.5q248 309 354 492q101 179 124.5 353.5t-28.5 320t-192.5 254t-353.5 151.5q-99 -120 -238 -107q-43 4 -71 20t-36 35.5t-7.5 37.5t8.5 30q10 16 31 26t54.5 12.5t58 3t67.5 -4.5t56.5 -6.5t49.5 -7.5q6 8 29 36t33 38.5t30.5 30t41.5 31t47 20.5q8 5 18 -5t0 -16 q-16 -7 -32 -18t-26.5 -19.5t-27 -26.5t-22.5 -24.5t-24.5 -29.5t-21.5 -27q165 -37 291.5 -115t201.5 -190t99.5 -248t-14.5 -298.5t-141 -332.5q-118 -187 -342 -463q9 -25 24 -64.5t26.5 -69.5t26.5 -71.5t26.5 -75t24 -75t21.5 -76t16.5 -73t10.5 -72t3 -67.5t-5 -63 q-11 -74 -54 -150t-100 -118q-80 -59 -159.5 -53t-144.5 52.5t-108 117.5t-51 143q-13 118 62 254q25 49 107 167t106 142q-21 58 -95 247.5t-129 348.5t-88 295q-21 85 -37 193zM321 2224q5 -35 61 -41q31 -4 73 4q72 15 135 82q-3 0 -26 3t-32.5 4.5t-32.5 3.5t-36 2.5 t-33.5 0.5t-34 -1.5t-27.5 -5t-24 -9.5q-26 -15 -23 -43zM345.5 -66.5q0.5 -69.5 31.5 -126.5q31 -58 80.5 -104.5t105.5 -54.5q9 -1 17 -2t15.5 -0.5t13 1t12.5 2t10.5 2t10 3t8.5 3.5t8.5 4t7.5 3q44 27 67 74t23 108t-8.5 122.5t-31 136t-41.5 128t-43.5 119t-33.5 90.5 q-52 -65 -89.5 -116.5t-80.5 -125.5t-63 -135.5t-19.5 -131z" />
<glyph unicode="9" horiz-adv-x="1351" d="M31 -18q-8 59 8.5 108t45 75t61 45.5t56.5 18t31 -7.5q3 -13 -8 -14q-3 -1 -9 -1l-7 -1q-87 -28 -124.5 -103t-13.5 -163t103 -152q144 -108 324 75q172 174 321 546q159 394 210 797q51 402 -34 640q-27 75 -56 143.5t-65.5 140t-76.5 120.5t-76 61q-117 6 -227 -67 t-176 -185.5t-70 -224.5q-2 -51 11.5 -112t45 -124t76.5 -113t113.5 -80.5t148.5 -25.5q78 5 138.5 38.5t91.5 85t13 126t-91 152.5q-4 5 -5 9t0.5 6t4.5 2.5t7 -1t7 -4.5q139 -131 110 -258q-21 -93 -122 -146q-112 -60 -244 -33q-164 32 -261 183q-60 92 -85 221 q-13 65 0.5 138.5t48 142t88.5 128.5t118.5 103t141 61t152.5 7.5t156.5 -63.5t150.5 -146q111 -148 162 -371.5t42 -465t-66.5 -496.5t-151 -470.5t-224 -382t-274.5 -235.5q-128 -53 -239 -23t-189 114t-92 182z" />
<glyph unicode=":" horiz-adv-x="409" d="M106 1189q8 -33 35 -40q37 -11 64.5 12.5t37.5 60t9 72.5t-14 49q-28 34 -82 21q-11 -2 -18 -9t-9.5 -12t-5.5 -18.5t-4 -15.5l-10 -60q-11 -27 -3 -60zM128.5 93.5q8.5 -33.5 35.5 -40.5q37 -11 64 12.5t37 60t9 73t-14 49.5q-28 33 -82 20q-11 -2 -18 -9t-9.5 -12 t-5.5 -18.5t-4 -15.5l-10 -59q-11 -27 -2.5 -60.5z" />
<glyph unicode=";" horiz-adv-x="245" d="M6 213q1 30 30 54t62 26q42 2 85 -35.5t55 -87.5q12 -43 13 -76t-13 -67.5t-29 -58.5t-49 -72q-25 -37 -63.5 -80.5t-51.5 -34.5q-5 3 -6 8.5t1.5 12t6 13.5t9 14.5t10.5 13.5t10.5 12.5t7.5 9.5q23 30 34.5 48t24.5 51.5t7 58.5q-8 32 -33.5 58t-50.5 39.5t-44 37.5 t-16 55zM30.5 1193q8.5 -33 35.5 -40q37 -11 64 12.5t37 60t9 73t-14 49.5q-28 33 -82 20q-11 -2 -18 -9t-9.5 -12t-5.5 -18.5t-4 -15.5l-10 -60q-11 -27 -2.5 -60z" />
<glyph unicode="&#x3c;" horiz-adv-x="1064" d="M106 963q0 -18 31 -39q61 -38 331.5 -175t309.5 -167q8 -6 26 -28t33 -31t29 1q15 17 17 32.5t-1.5 25t-18.5 21.5t-21.5 15.5t-24.5 12.5q-13 6 -43 22t-56 28.5t-46 20.5q-146 66 -214 101.5t-155 95.5q488 273 555 340q7 7 25 22.5t29.5 25.5t25 27t19.5 31t5.5 32 t-10.5 36q-18 15 -32 21t-30 1t-25 -10.5t-32 -22.5t-36 -26q-86 -59 -254 -149.5t-291 -160t-146 -103.5z" />
<glyph unicode="=" horiz-adv-x="1249" d="M49 524q0 47 244 47q2 0 63.5 1t148 2t187 1.5t204 -0.5t175.5 -4q26 -1 40 -3t43 -8.5t41 -21t5 -36.5q-5 -15 -69 -23t-159 -8.5t-184 1t-169 4.5t-89 3q-83 0 -187 -3.5t-151.5 -2t-87.5 11.5q-3 1 -12.5 4.5t-15 6t-12.5 6.5t-10.5 9.5t-4.5 12.5zM49 971 q0 47 244 47q2 0 63.5 1t148 2t187 1.5t204 -0.5t175.5 -4l24 -1.5t29 -3.5t33 -7.5t25.5 -11.5t18 -19t-0.5 -27t-69 -23t-159 -8.5t-184 1.5t-169 5t-89 3q-83 0 -187 -3.5t-151.5 -2t-87.5 11.5q-3 1 -12.5 4.5t-15 6t-12.5 6.5t-10.5 9.5t-4.5 12.5z" />
<glyph unicode="&#x3e;" horiz-adv-x="1064" d="M106.5 1377q-0.5 -18 5.5 -32t19.5 -31t25 -27t29.5 -25.5t25 -22.5q67 -67 555 -340q-87 -60 -155 -95.5t-214 -101.5q-20 -8 -46 -20.5t-56 -28.5t-43 -22q-18 -9 -24.5 -12.5t-21.5 -15.5t-18.5 -21.5t-1.5 -25t17 -32.5q14 -10 29 -1t33 31t26 28q39 30 309.5 167 t331.5 175q31 21 31 39q-23 34 -146 103.5t-291 160t-254 149.5q-13 9 -36 26t-32 22.5t-25 10.5t-30 -1t-32 -21q-10 -18 -10.5 -36z" />
<glyph unicode="?" d="M86 2386q-2 59 23 119t69 111.5t87 90.5t93 74q-16 32 -30 55.5t-22 36.5t-22 27.5t-17 17.5t-22 16.5t-22 16.5q-11 7 -25.5 12t-26.5 7.5t-23 5t-16.5 5.5t-4.5 9q1 8 16 11t41.5 -4.5t57 -26t69 -61t72.5 -103.5q272 157 465 151q224 -11 332 -170t49 -442 q-19 -88 -58 -169t-94 -152.5t-107.5 -129.5t-122 -132.5t-112.5 -127.5q-33 -44 -106 -129q-34 -40 -51.5 -61t-49 -61t-48 -65.5t-41 -66.5t-36.5 -73.5t-26 -77t-18.5 -86t-4.5 -91.5t8 -102q12 -80 43 -143.5t78 -77.5q16 -5 29 4t18.5 21t14.5 19t18 -1q20 -17 13 -35 t-23 -31t-31 -18q-101 -19 -183 58.5t-95 183.5q-10 73 -9 141t9.5 128.5t25 118t38 109t48.5 102t56 96t60.5 91.5t62.5 89q6 7 9.5 12t6.5 10q149 209 359 456q43 50 62.5 73.5t50 62.5t43 60t31 55t24 59t12 59.5t6 69.5t-5.5 78q-6 48 -69.5 125.5t-154.5 111.5 q-32 12 -68 15t-78 -6.5t-73 -18t-79 -31.5t-70 -33.5t-71.5 -38t-59.5 -32.5q11 -29 30 -100t25 -107q15 -94 -9.5 -174.5t-95.5 -122.5q-84 -49 -144 -42.5t-94 52.5t-36 117zM123 2324q10 -33 33.5 -53.5t48.5 -23.5q59 -6 101 23t61.5 79t29 111t6.5 118t-10.5 100 t-17.5 58q-21 -7 -84 -70q-111 -108 -148 -195t-20 -147zM335.5 156.5q-6.5 51.5 11 93t56.5 53.5q42 11 64 -24q23 -36 35.5 -92t14.5 -81.5t5 -91.5q4 -45 -3 -67.5t-34 -18.5q-37 5 -71 41t-53 86t-25.5 101.5z" />
<glyph unicode="@" horiz-adv-x="2560" d="M-89.5 637.5q7.5 166.5 50 328t129.5 324t213 307.5q117 135 252.5 222.5t270.5 122.5t273.5 27.5t265.5 -56t243 -134.5t209 -201t160.5 -263t100.5 -313.5t26 -359.5t-60 -394q-90 -342 -280 -497q-140 -116 -288 -93q-133 19 -215 141q-84 125 -79 314q1 75 19 152.5 t36 125.5t60.5 147.5t62.5 149.5q-43 -34 -87.5 -86.5t-78.5 -102.5t-76 -104.5t-81 -97t-92 -76t-111 -45.5q-167 -38 -226 94q-53 119 -5 320q49 200 165 349q133 171 285 176q78 3 155 -42q59 -34 91 -79t32 -86.5t-21 -76.5t-69 -54.5t-111 -16.5q-6 0 -12 5.5t-4 10.5 q1 2 16 2q34 2 73 21t67 51q43 50 12 118.5t-94 88.5q-46 6 -82 -2.5t-65 -34t-50.5 -56t-50.5 -81.5q-71 -127 -134 -289.5t-56 -237.5q5 -64 30.5 -96t83.5 -33q60 24 114 74t97.5 109t85.5 118.5t95 116.5t108 90l10 7q10 8 14 10.5t15 9t17.5 9t17.5 5.5t19.5 2t19 -4 t20.5 -10q30 -26 30.5 -73t-21 -108t-52 -132t-60 -153.5t-47.5 -164t-11.5 -171t44.5 -167.5q13 -27 28 -46.5t28 -31.5t30 -18.5t27 -9.5t28 -1t24.5 3.5t23.5 6.5t18 5q92 25 173 101t141 186t99.5 250t54 291t-1.5 311.5t-60 308t-128 284.5t-200 238q-516 447 -1049 37 q-97 -74 -171 -155.5t-124 -160t-91.5 -180.5t-68 -193.5t-57.5 -223.5q-34 -146 -38 -306t28 -328.5t98 -319t182.5 -282t270.5 -214.5q185 -99 382.5 -144t378 -31.5t337 74t273 175.5t173.5 270q43 117 66.5 240.5t29 210.5t12.5 165t27.5 132t63.5 83q13 5 30.5 6 t28.5 -13t2 -38q-7 -15 -30.5 -33.5t-30.5 -27.5q-38 -55 -50.5 -106t-17 -151t-12.5 -165q-11 -66 -22 -117t-28 -112t-36.5 -109t-47.5 -101.5t-62 -96t-79.5 -86t-99.5 -78t-123 -66t-149 -55.5q-186 -54 -404 -47q-172 7 -333 54.5t-297 126.5t-252.5 188t-204.5 237.5 t-149 277.5t-89.5 305t-21 322.5z" />
<glyph unicode="A" horiz-adv-x="1884" d="M-395 1853q-5 27 -5 52q0 59 28 106q40 66 132 94q32 7 66 7q108 0 229 -74q3 -2 8.5 -5t9.5 -5t8.5 -5t7 -5.5t4 -5t1.5 -5.5t-2 -6q-4 -4 -13.5 -0.5t-25 13.5t-16.5 11q-75 37 -141 51q-44 10 -83 9q-19 0 -37 -2q-55 -7 -90.5 -46t-43.5 -108q-1 -10 -1 -20 q0 -46 19 -99q23 -65 61 -120.5t69.5 -94t57.5 -63.5q152 -138 304.5 -200t287.5 -62q45 103 169.5 441.5t213.5 508.5q33 56 63 95t50.5 56.5t39.5 27.5q16 8 26 9q2 0 4 -1q12 -2 24 -1q70 -8 129 -89t96 -198.5t63 -260.5t37 -269t11 -229q23 -3 83.5 -10.5t92 -12 t78 -16t82.5 -27.5q46 -19 137 -66t127 -71q51 -31 51 -44q0 -3 -2 -5q-7 -5 -25.5 4.5t-45.5 28.5t-41 26q-121 70 -195 95q-105 34 -260 34q-37 0 -76 -2l-59 -549l-60 -491l-57 -614q-1 -11 -2 -35q-8 -135 -8 -234q0 -93 7 -155q34 -288 220 -349q58 -13 117 -14 q250 0 504 246q34 33 55 52.5t59 49t69 45t77 32t92 19.5q16 1 33 1q33 0 71 -4q60 -6 125 -23q10 -3 31.5 -7.5t34.5 -8t27.5 -12.5t21.5 -23q7 -10 7 -17t-5 -12q-9 -13 -23.5 -7.5t-25 16t-26 24t-27.5 16.5q-89 27 -172.5 27t-161.5 -27q-44 -19 -88.5 -53t-85 -74.5 t-83.5 -83t-101.5 -89.5t-120.5 -83q-7 -3 -41 -17.5t-53.5 -21.5t-60.5 -17.5t-76 -12.5q-16 -1 -35 -2q-23 0 -49 2q-50 3 -101 16q-86 28 -141 69.5t-101 116.5q-58 93 -86 236q-57 305 -57 640v44l20 500l54 845q-57 -3 -171 -15q-115 -12 -227 -20q-68 -4 -132 -5 q-43 0 -85 2q-43 -87 -74 -193q-108 -354 -145 -614q155 -167 227 -328q2 -5 12 -24.5t14.5 -33t0.5 -18.5q-4 0 -7 -1t-6.5 3t-6 6.5t-5.5 8.5t-4.5 9.5t-4 9.5t-3.5 9q-41 89 -100.5 175t-122.5 145q-3 -9 -9.5 -40t-12.5 -55t-19.5 -61t-29 -65t-42 -58.5t-58 -50.5 t-77.5 -33q-43 -12 -92 -12h-8q-102 1 -172 81.5t-76 190.5q-2 31 -2 59q0 222 141 265q48 15 94 15q1 -1 3 -1q48 0 86 -9.5t83 -34.5t78 -49t80 -62q67 384 209 766q-237 25 -401 124q-147 89 -273 236.5t-147 275.5zM-315 252q10 -76 53.5 -141t111.5 -84q36 -10 69 -11 h7q29 0 52 8q26 8 48 19t41 29.5t32.5 33.5t27.5 35q24 34 41 82t24 82.5t19 104.5q-75 76 -163 122t-174 46h-2q-88 0 -140 -64q-33 -38 -45 -112q-7 -40 -6 -81q-1 -34 4 -69zM492 1266h9q134 0 334 28q207 29 271 45q3 55 9.5 151.5t9.5 149.5t6 129q2 57 2 110v35 q-1 70 -5 144q-2 49 -15 112.5t-40 122t-59 64.5q-3 1 -7 1q-46 0 -112 -105q-27 -43 -137.5 -294.5t-124.5 -299.5q-76 -200 -141 -393z" />
<glyph unicode="B" horiz-adv-x="1413" d="M-601 -856q0 2 1 6q4 9 10.5 10.5t16.5 -5t19.5 -15t23 -20.5t24.5 -19q38 -24 94 -27q10 -1 20 0q43 0 66 11q47 10 87 43.5t67.5 83.5t48.5 104t35.5 119t23 112.5t16.5 99.5t11 68q15 140 38.5 446t29.5 449q34 588 61 837q51 471 154 810q-176 69 -318 184 q-16 13 -48 36.5t-49.5 37t-37 32t-25.5 33t-1 27.5q4 9 11 9q11 0 31 -22l38 -44q6 -5 10 -8q63 -55 98.5 -82t103.5 -70q105 -65 199 -96q24 49 38 74.5t40 64t51.5 62t65 49t88.5 43.5q32 13 65 13q10 0 20 -1q42 -5 74.5 -27.5t56 -57.5t26.5 -78v-14q0 -37 -13 -75 q-16 -44 -94 -90q-20 -11 -41 -18t-46.5 -10.5t-43.5 -5.5t-48 -0.5t-43 2t-47 3.5t-42 4q-8 -16 -14 -34l-10.5 -31.5t-9.5 -37t-7 -33.5t-5.5 -39.5t-4.5 -36t-5 -42t-4 -39.5q10 -4 33 -5q22 0 52 2q25 2 56 3q6 -1 12 -1q38 0 79.5 -2t87 -12.5t89.5 -26.5t88.5 -46.5 t83.5 -71t74 -101.5t60 -136q25 -77 26 -148q0 -54 -16 -105q-34 -117 -124 -204.5t-218 -134.5q53 -42 111.5 -107t121 -156t112 -190.5t81 -218t31.5 -229.5q2 -27 2 -53q-1 -142 -55 -278q-64 -162 -138 -224q-84 -76 -198 -94q-36 -6 -72 -6q-70 0 -136 22 q-102 33 -175 112t-92 187q-6 31 -6 61q1 100 63 182q80 108 235 130q21 3 47 4q16 0 33 -2q31 -2 64.5 -8.5t66 -17t49.5 -26t9 -32.5q-5 -12 -15 -13t-23 5.5t-26.5 15t-29.5 17.5t-27 12q-51 13 -105 13q-11 0 -22 -1q-72 -4 -128.5 -34t-89.5 -76.5t-49 -100.5 q-14 -48 -15 -98q0 -6 1 -12q10 -96 80.5 -172.5t173.5 -104.5q22 -6 44 -6q140 0 272 238q57 124 80.5 215.5t23.5 212.5q0 196 -123 423t-299 392q-117 3 -156 13q-73 19 -79 73q-1 9 -1 17q-1 35 21 49q15 9 36 9q16 0 37 -6q46 -13 84 -30t71 -37q175 78 260 212 q52 82 52 175q0 61 -22 127q-27 82 -78.5 147.5t-110 105.5t-129 67.5t-128 39.5t-115.5 17v-16q1 -77 -17 -467q-20 -446 -55 -969.5t-65 -685.5q-5 -27 -14 -71.5t-40.5 -151.5t-66.5 -179q-58 -130 -173.5 -227.5t-235.5 -101.5h-7q-104 0 -211 81q-2 2 -6.5 5t-7 5 t-6 5.5t-3.5 5.5zM373 1063q-18 -13 -18 -26t19 -25q30 -18 71 -18q11 0 22 1q14 2 25 6q-20 29 -62.5 51t-56.5 11zM373 2267q7 1 53 -1q37 -2 75 -2h19q48 0 103.5 15.5t85.5 47.5q33 36 35 83v5q0 45 -33 96q-32 46 -89 46q-23 0 -49 -7q-42 -11 -90 -74.5t-77 -124 t-33 -84.5z" />
<glyph unicode="C" horiz-adv-x="1617" d="M8 494q4 80 38 214.5t66 229.5l31 94q7 23 17.5 51.5t23 58t26.5 60.5t28 60.5t27.5 56.5l25.5 51t20.5 40.5t14.5 27.5l6 12q-21 27 -41 57q-68 111 -68 262v17q4 103 30.5 198.5t79.5 181.5t127.5 152.5t179.5 112t230 59.5q99 11 201 12q35 0 69 -2q138 -5 144 -26 q6 -16 -19 -19q-5 -1 -30 -1q-35 2 -103.5 8t-116.5 10q-31 2 -67 2q-21 0 -43 -1q-62 -2 -108 -13q-149 -36 -258.5 -116.5t-173.5 -191.5q-37 -65 -63 -133q-24 -68 -40 -148q-10 -50 -10 -101q0 -32 4 -64q10 -86 45 -164q10 -20 41 -63q191 379 477 579q75 50 177 82 q62 19 120 20q36 0 70 -8q70 -15 112.5 -38.5t79.5 -77.5q31 -51 31 -114.5t-33.5 -134.5t-84 -141.5t-121.5 -136t-145 -116.5t-154.5 -84t-151.5 -39h-15q-80 0 -186 37q-28 -63 -73.5 -183.5t-113.5 -344.5t-95 -398q-7 -31 -13 -111q-4 -60 -5 -150q0 -30 1 -62 q2 -132 19 -242q41 -291 174 -359q76 -38 130 -52q36 -9 77 -10q21 0 41 3q62 7 137 41q78 35 148 95t119 124t105 138t105.5 137t120 121t149.5 91q90 46 172 48q12 1 24 1q152 0 245 -106q15 -15 19 -31q1 -4 0 -8q0 -10 -7 -14q-19 -8 -32.5 -6t-31 16t-30.5 29t-30.5 32 t-31.5 25q-55 27 -103 27h-7q-80 -6 -149.5 -35.5t-120.5 -72.5t-108.5 -107.5t-104.5 -127t-116.5 -145t-136.5 -147.5q-71 -73 -172 -121q-83 -39 -181 -39q-21 0 -42 2q-132 9 -244 70q-187 103 -254 276q-65 170 -91 384q-14 114 -14 219q0 93 11 180zM535 1331 q45 -21 103 -27q31 -3 60 -3q24 0 44 2q46 5 83 16q97 29 208.5 113.5t196.5 185.5q86 100 126 210q21 58 21 106q0 42 -17 77q-26 52 -94 84q-48 23 -85 23q-15 0 -28 -4q-51 -14 -79.5 -30t-67.5 -48q-188 -150 -365 -471q-8 -10 -61 -122q-46 -97 -46 -110q0 -2 1 -2z " />
<glyph unicode="D" horiz-adv-x="2027" d="M-55 2339q-7 41 -7 78q0 52 13 98q22 79 89 129q62 46 154 45h15q105 -3 235 -82q7 -5 6.5 -9.5t-10.5 -4.5q-22 7 -83 32t-105 35q-27 6 -54 6q-16 0 -32 -2q-63 -9 -106.5 -39t-64.5 -74t-27 -100q-2 -20 -3 -40q0 -38 8 -78q21 -129 115 -209.5t234 -98.5q46 -6 96 -6 q102 0 221 25q0 132 36.5 285t65.5 196q55 83 116 111q52 23 133 23q15 0 30 -1q60 -11 98.5 -60.5t44.5 -110.5q2 -18 2 -37q0 -43 -10 -87q-28 -93 -142 -186t-257 -154q-1 -28 -1 -102t1 -195v-81q0 -222 -8 -544q-10 -383 -33 -556q-14 -129 -37.5 -241.5t-47 -191.5 t-64.5 -171t-69.5 -146.5t-82.5 -150.5q20 -5 89 -23.5t105 -24.5t126 -12q52 -3 112 -4q44 0 92 2q62 4 117.5 23t99 45t85 68.5t71.5 81t62.5 95t53.5 98.5t50 103q55 119 81 279q20 118 20 249q0 48 -2 96q-10 184 -52.5 367.5t-135 364t-223.5 317.5q-19 20 -48.5 39.5 t-53.5 26.5q-56 15 -65 27q-7 10 1 24q7 9 20 9q24 -1 69 -29q71 -46 145 -111q190 -170 307.5 -334t180.5 -367.5t63 -451.5q0 -289 -114.5 -538t-319.5 -406q-48 -38 -138 -64q-88 -28 -188 -38q-95 -10 -191 -10h-9q-100 0 -179 14q-29 5 -81.5 15.5t-95.5 17t-83 8.5 q-35 -59 -93 -107q-57 -50 -117 -74q-38 -15 -74 -15q-21 -1 -43 5q-56 14 -85 76q-19 37 -19 67q0 86 160 101q26 2 62 3q66 0 166 -9h4q41 70 89 282.5t92 515t73 717t29 830.5q-93 -11 -173 -11q-452 0 -511 357zM64 -552q13 -2 26 -2q60 0 130 44q79 51 106 123 q-15 1 -52.5 4t-63.5 4.5t-63.5 2t-62.5 -4t-49 -13t-36 -24.5q-11 -15 -12 -37q1 -84 77 -97zM760 2062q188 82 294 221q75 98 75 182q0 34 -13 66q-24 49 -59 69q-25 14 -51 14q-10 0 -20 -2q-36 -8 -69 -34.5t-59 -66.5q-36 -59 -71 -229q-28 -139 -28 -197q0 -14 1 -23z " />
<glyph unicode="E" horiz-adv-x="1556" d="M-46 2159q-4 24 -3 47q0 36 9 66q15 50 49.5 89.5t87.5 60.5q53 22 119 28q17 2 35 1q52 0 111 -14q17 -2 35 -3.5t30.5 -2.5l25 -2t20.5 -2t15 -3t10.5 -5.5t6 -8.5t1.5 -11.5t-4 -16.5q-4 -9 -19 -9.5t-38 6t-47.5 14t-52.5 15t-48 9.5q-54 3 -99 3t-89.5 -20.5 t-79.5 -64.5q-29 -31 -37 -90q-4 -28 -3 -53q1 -30 5 -56q8 -50 22 -78q62 -135 155.5 -210.5t227.5 -112.5q48 244 117 383q27 75 102.5 168.5t171.5 164t168 74.5q35 6 67 6q75 0 137 -32q88 -45 116 -140q10 -36 11 -74q1 -45 -15 -93q-28 -88 -92.5 -166.5t-152 -147 t-187.5 -119.5q-58 -30 -130.5 -47t-99 -18.5t-45.5 -1.5v-9q0 -89 35 -207q37 -124 82 -169q36 39 78.5 57.5t75.5 19.5h7q29 0 59 -8q34 -8 49.5 -15.5t25.5 -14.5q59 -38 68 -94q1 -7 1 -14q0 -48 -52 -80q-41 -25 -108 -25q-32 0 -69 6q-30 4 -85.5 25.5t-63.5 23.5 q-4 -5 -39.5 -43.5t-57 -64t-61 -78.5t-68 -100.5t-60 -116t-52.5 -138.5q-25 -131 -35 -209q-8 -60 -8 -133q0 -23 1 -45q3 -100 25 -221l62 -238l37 -98q57 -129 160 -201q83 -58 178 -58q22 0 45 3q86 13 166 76.5t129 146.5q108 186 177 268.5t199 167.5q100 58 214 86 q100 24 184 24h24q94 -4 164 -33.5t90 -80.5q6 -15 6 -29q0 -7 -2 -15q-5 -22 -18.5 -35t-30.5 -23t-33 -9.5t-26 7.5q-32 28 -26 47.5t27 29.5t42.5 18.5t19.5 12.5q-29 36 -67 56q-39 20 -85 24q-32 2 -58 3q-11 -1 -21 -1q-33 -2 -82 -8q-196 -29 -342 -132.5 t-260 -293.5q-5 -12 -17.5 -32.5t-27 -42t-17.5 -27.5q-64 -113 -158 -173.5t-198 -63.5h-12q-98 -1 -202 45q-110 48 -210 145q-16 15 -31 32t-27.5 32t-25.5 33.5t-22 32t-19.5 31.5t-16.5 29t-14.5 28t-11.5 24t-10 21.5t-8 16.5q-29 75 -44.5 152.5t-17.5 102t-4 71.5 q-2 43 -2 83q0 60 4 115q6 91 23 162.5t27.5 104.5t29.5 84q35 81 80.5 154.5t83.5 121.5t89 97t78.5 71.5t70.5 55.5q-84 126 -117 211.5t-55 228.5q-137 44 -239.5 121.5t-168.5 208.5q-34 66 -44 129zM567 1724q130 0 275.5 79t265.5 196q25 26 36.5 38t34.5 39.5t34 46 t25 48.5q14 31 18 57q2 19 2 40v20q-2 34 -13 69q-27 71 -75 101q-36 23 -78 23q-13 -1 -27 -3q-57 -10 -119 -47t-123 -98q-111 -95 -189 -285q-68 -165 -69 -287q0 -19 2 -37zM727 1243q74 -74 178 -78h5q30 -1 60 21q32 24 38 61q1 4 1 8q0 34 -42 74q-30 27 -72 27 q-21 0 -45 -7q-72 -20 -115 -92z" />
<glyph unicode="F" horiz-adv-x="1945" d="M-502 1362q-1 8 -1 14q0 22 16 27q12 0 16.5 -13t7 -37t6.5 -36q20 -63 72 -105q68 -54 173.5 -83.5t219.5 -34.5q91 1 173 19t162 56.5t145 79.5t155 105q7 5 192.5 135.5t217.5 152.5q15 51 76 346t75 345q-46 -20 -513.5 -181t-581.5 -221q-150 -75 -222 -170 q-46 -61 -47 -121q0 -27 10 -53q4 -13 11.5 -30t10.5 -24.5t4.5 -20.5t-5.5 -19q-11 -13 -25 -8t-25 17t-18 26q-25 54 -28 104q-1 10 -1 19q0 38 10 68q12 38 42.5 74.5t61 61.5t76 50.5t76.5 39.5t73 31q31 13 258.5 100t267.5 101q49 18 156 56.5t170 62t138.5 54.5 t119.5 54q106 295 207 469q42 75 84 125t74.5 72t64.5 28q17 4 31 4q12 0 22 -2q21 -6 41 -18q63 -36 83 -90q11 -29 11 -60q0 -24 -7 -48q-16 -54 -56.5 -116t-88 -111.5t-100 -96.5t-82.5 -70t-45 -34q-31 -59 -100.5 -309.5t-89.5 -413.5q54 21 113.5 36.5t135.5 26.5 q37 5 74 6q39 0 77 -6q76 -12 132 -47q29 -18 61 -48.5t44 -51.5q19 -28 19 -53q0 -8 -2 -15q-5 -19 -25 -19q-12 0 -29 7q-18 16 -22 34t-0.5 30.5t-2.5 29.5q-17 40 -85.5 73t-123.5 38q-19 2 -39 2q-35 0 -71 -6q-58 -8 -95 -19.5t-93.5 -31.5t-71.5 -25 q-4 -27 -34.5 -299.5t-68 -551t-71.5 -419.5q-9 -39 -36 -158.5t-47.5 -202.5t-41.5 -157q-139 -484 -402 -801q-97 -113 -180 -188t-193 -135.5t-235 -86.5q-73 -15 -168 -20q-55 -5 -104 -5q-6 0 -12 -1q-43 -1 -77 3q-40 4 -61.5 13.5t-19.5 24.5q2 7 5.5 10t10.5 2.5 t13 -2t16.5 -5t17.5 -5.5q79 -10 151 -11q162 0 289 52q140 66 264.5 182t184.5 213q187 304 276 672q58 217 157 778t145 985q-50 -27 -106.5 -64.5t-162.5 -113.5t-168 -119q-157 -109 -287 -162q-131 -52 -241 -56q-18 -1 -35 -1q-94 0 -197 18q-48 8 -94 23t-91.5 38.5 t-82 58t-55.5 75.5q-23 50 -29 84zM1493 2533q52 30 113.5 88t89 89.5t47.5 56.5q29 33 57 106q17 44 17 79q0 22 -7 40q-16 41 -42 41t-64 -40q-48 -53 -92 -146q-19 -42 -39 -93.5t-44 -120t-36 -100.5z" />
<glyph unicode="G" horiz-adv-x="1699" d="M13 1200v50q0 141 14 288q43 365 225 735q23 47 39.5 77.5t47.5 79.5t60 81t73.5 68.5t90.5 56t107 28.5q33 6 68 6q30 0 61 -4q89 -12 167.5 -67.5t112.5 -157.5q11 -34 11 -79q0 -72 -29 -173q-1 -3 -2 -8.5t-2 -9t-2.5 -9t-3 -8.5t-3.5 -6.5t-4.5 -5.5t-5.5 -3.5 t-7 -1t-9 2.5q-8 3 -8.5 16.5t5 33t12.5 39.5t14 44t10 39q5 29 5 56q0 55 -20 98q-42 100 -140 138q-58 23 -116 23q-38 0 -75 -10q-48 -14 -89 -41t-74.5 -66t-57 -75t-50.5 -84q-65 -117 -111 -297.5t-65 -388.5q-25 -298 -31 -592q0 -588 121 -637q22 -7 45 -7 q42 0 90 23q74 34 146 107t136.5 161.5t121.5 188.5q21 35 44.5 80.5t39 78t42 89.5t38.5 82q7 15 20.5 50t24.5 63.5t29.5 59t38 45.5t48 12.5t60.5 -29.5q22 -19 37.5 -42t25 -43t13.5 -52t5.5 -51t-1.5 -58t-5 -56.5t-8 -62.5q-3 -20 -4 -31l-137 -1331q139 41 194 49 q44 7 84 7q149 0 236 -97q6 -7 31 -28.5t35 -37.5q4 -8 4 -16q0 -7 -4 -14q-4 -5 -9 -5q-20 0 -64 57q-4 5 -5 7q-83 97 -225 97q-120 0 -281 -68q-43 -461 -76 -598q0 -2 -5 -26t-9 -41.5t-12.5 -52t-17.5 -62t-23.5 -65t-30.5 -69t-38 -66t-46 -62.5q-103 -117 -227 -156 q-76 -20 -147 -20q-20 0 -38 1q-90 7 -143 37q-63 35 -107.5 104t-58.5 142q-10 59 -10 114q0 26 2 50q7 77 61.5 162t161.5 176q3 3 37.5 32t43.5 36.5t44 36.5t51 41.5t51.5 40.5t58.5 44.5t58.5 42t65 44.5t65 42t70.5 43q180 1106 180 1551q0 95 -8 160 q-34 -62 -97 -192.5t-121.5 -237.5t-119.5 -189q-106 -142 -186 -217q-49 -45 -99 -73t-125 -36q-9 -1 -18 -1q-41 0 -93 24q-65 30 -116 96q-55 71 -92.5 173.5t-50.5 203.5q-17 138 -20 303zM248 -1204q5 -80 47 -162q58 -115 149 -135q50 -11 91 -11q58 0 100 22 q72 37 131 147q13 26 56.5 179.5t90 375t52.5 362.5q-93 -52 -233 -154t-243 -194q-79 -68 -132.5 -135t-83.5 -141q-26 -63 -26 -131q0 -12 1 -23z" />
<glyph unicode="H" horiz-adv-x="1966" d="M-195 1588q-1 6 -1 10q0 5 2 9q2 6 8 5q14 -1 19.5 -15t7.5 -37t5 -32q22 -62 74.5 -105t113 -62.5t138.5 -27.5q70 -7 124 -7h14q58 1 122 7q66 5 78 13q59 435 59 695q0 96 -8 169q-15 136 -59 266t-105 150q-14 4 -28 -2t-24 -15t-19 -16t-16 -3t-13 23q-6 27 22 39 q21 9 47 8q8 0 18 -1q38 -4 65 -17q64 -30 116.5 -99.5t79.5 -154.5q37 -112 49 -290q8 -114 7 -216q0 -56 -2 -108q-7 -145 -16 -271t-9 -129q105 16 371 95t358 112q21 292 62.5 544.5t82.5 377.5q34 115 105 194t135 109q34 21 65 21q25 0 48 -13q15 -7 25.5 -28 t9.5 -40.5t-15 -21.5q-27 -3 -23 43v3q0 7 -0.5 11t-3.5 8t-10 2q-78 -21 -139 -115.5t-86 -228.5q-36 -198 -57 -420.5t-23 -408.5q85 9 159 9q194 0 322 -60q73 -37 156 -111q36 -33 48 -66q12 -32 -23 -30q-9 1 -17.5 8t-14.5 15t-16.5 24.5t-17.5 26.5q-33 45 -78.5 77 t-99 48.5t-103.5 25.5q-48 9 -106 9h-6q-61 0 -104 -3.5t-97 -9.5q-23 -407 -27 -877q-1 -98 -1 -192q0 -354 14 -637q14 -416 32 -676q1 -9 4 -67t6.5 -101.5t9.5 -113.5t15 -124.5t20 -111t27 -96t35 -58.5q28 -26 68 -26q7 1 14 1q49 6 103 44q33 27 60 73t40 83.5 t33.5 104t29.5 93.5q45 128 78 178q71 108 187 108q20 0 41 -3q106 -14 106 -45q0 -9 -9.5 -10t-26.5 4.5t-39.5 11t-48.5 8.5t-54 -2q-58 -10 -101 -55t-70 -110.5t-47 -132.5t-44.5 -141t-50.5 -116q-49 -79 -123 -107q-42 -16 -77 -15q-28 0 -52 9q-172 66 -220 263 q-19 71 -72.5 459t-76.5 696q-8 158 -8 361q0 497 47 1269q-44 -17 -365.5 -104t-367.5 -95q-41 -351 -103 -776q-19 -116 -29.5 -171t-38 -178.5t-62.5 -208.5t-77 -136q-82 -100 -151 -100q-13 0 -25 3q-59 17 -101.5 75t-61.5 123t-21 130q0 19 6.5 36t18.5 13 q21 -7 22 -43v-13q1 -30 -3 -63q-1 -8 -1 -15q0 -34 16 -68q31 -59 79 -79q17 -7 32 -7q26 0 45 22q20 26 39.5 78.5t29 92t21.5 99t12 60.5q25 106 52 248t48.5 281.5t38 252.5t30 210.5t14.5 105.5q-101 -9 -185 -9q-257 0 -372 80q-45 29 -75.5 67.5t-53.5 106.5 q-4 15 -5.5 21t-3.5 19z" />
<glyph unicode="I" d="M-92 2563q-3 14 -2 29q0 34 14 72q20 54 66 99q68 68 136.5 107t176.5 48q5 25 5 79v53v52v15q0 44 3 85q3 48 18 72q11 17 27 18q7 0 15 -3q17 -7 25.5 -17.5t9 -27.5t-1.5 -31t-7.5 -39t-7.5 -39q-11 -68 -16 -213q104 -27 197.5 -132t154 -239.5t86.5 -275.5 q35 -135 49 -367q9 -138 8 -278q0 -97 -4 -196q-13 -324 -106.5 -701t-223.5 -665q-82 -181 -199 -361.5t-165 -230.5q-5 -6 -21.5 -23.5t-25 -26.5t-22.5 -22t-26 -20.5t-24 -12.5q-19 -9 -43 -15q-16 -4 -33 -4q-8 0 -17 1q-26 3 -32 24q-4 15 5 18.5t27 1.5t23 -1 q33 7 64 29.5t52 44t50.5 72t43.5 77.5t47 96q15 30 22 45q184 376 301 815t147 870q10 138 10 271q0 284 -44 547q-21 120 -68.5 257.5t-91.5 213.5q-63 108 -137 137q-9 -34 -11 -53q-26 -217 -80 -318t-165 -104h-9q-50 0 -92 20q-46 22 -73 61t-35 86zM-48 2620 q-5 -21 -5 -41q1 -31 13 -59q20 -46 69 -71q34 -16 65 -16q24 0 47 10q46 17 78.5 62.5t48.5 109.5t22 128q5 49 5 101v33q-99 -16 -175.5 -57.5t-115 -93.5t-52.5 -106z" />
<glyph unicode="J" horiz-adv-x="1351" d="M-271 1128v7q0 62 15 119q17 62 57 130t93.5 135t132.5 152q69 79 416 439t358 372q3 36 20 137.5t19 122.5q7 89 44 216t81 220q58 120 133.5 202.5t154.5 92.5q13 2 26 2q66 0 115 -43q58 -51 81 -127q9 -31 9 -64q0 -45 -16 -91q-29 -82 -77 -148q-28 -39 -59.5 -78 t-54 -65t-64.5 -69t-60 -60t-74.5 -71t-74.5 -72q-11 -182 -21.5 -467.5t-21.5 -663t-17 -534.5q0 -123 -24 -457q-34 -433 -43 -526q22 -7 39 -15t39 -19.5t34 -17.5q95 -48 201 -143q5 -5 14 -11l16.5 -11t15.5 -11t13.5 -11.5t8.5 -11.5t2 -11.5t-7 -10.5q-8 -7 -20 1 t-33 30t-29 29q-105 93 -294 174q-8 -61 -16.5 -227.5t-17.5 -309.5t-37.5 -295t-74.5 -223q-104 -163 -291 -178q-43 -4 -82 -4q-142 0 -241 56q-127 72 -189 261q-32 95 -34 194q-1 8 -1 16q0 90 25 173q26 91 74.5 176t119.5 155.5t156 125t187 87.5t209 40q0 121 41 577 l18 283q1 69 11.5 298t29.5 611.5t31 665.5q-580 -545 -879 -897q-130 -148 -144 -323q-1 -19 -1 -37q0 -155 104 -294q74 -96 178 -145q87 -42 180 -42q40 0 82 8q136 27 234 132q8 9 20 28.5t20 26t17 -0.5q7 -4 7 -12q0 -25 -64 -85q-23 -23 -68 -53q-102 -66 -217 -74 q-19 -1 -37 -1q-95 0 -179 35q-99 43 -179.5 132.5t-116.5 210.5q-22 71 -23 137zM-68 -743q-5 -46 -5 -90q0 -140 53 -259q44 -101 138 -162q90 -57 189 -57h10q59 1 105 21t76 56t48.5 72t33.5 83q15 45 25.5 102t17 106.5t12.5 148t9.5 163.5t10 219t11.5 252 q-143 -10 -274 -69.5t-226 -149.5t-157 -204t-77 -232zM1008 2646q56 48 175 177.5t154 178.5q6 9 23 32.5t25 36t19.5 31.5t18.5 36q18 39 25 92q1 15 1 30q0 38 -11 74q-15 35 -50.5 69t-68.5 40q-14 3 -26 4h-5q-9 0 -18 -3q-11 -3 -18.5 -5.5t-16.5 -11t-13 -12 t-12 -15.5l-10 -15t-10 -16l-15.5 -31t-15 -32.5t-12.5 -29.5t-12 -32.5t-10 -29.5t-10 -32.5t-9 -29.5t-10 -33.5t-9 -32.5q-29 -98 -54 -245.5t-25 -194.5z" />
<glyph unicode="K" horiz-adv-x="1740" d="M-195 1632q7 5 28.5 -3.5t51 -23t47.5 -18.5q25 -5 48 -4t40 3t34.5 14t28.5 19t25 27t20 28t18 33t14.5 30.5t13.5 31.5q12 27 114 263.5t161 361.5q126 257 159 314q69 117 120 126q25 4 50 -14q60 -40 76 -154q6 -47 5 -109q0 -67 -6 -151q-13 -162 -38.5 -359 t-30.5 -265q-2 -34 23.5 -53t67.5 -22q12 -1 25 -1q31 0 66 6q49 8 95 23q65 22 123 63.5t103 91.5t88 124t74 141.5t65 165t57.5 174.5t54.5 188q19 69 38 123.5t44 106.5t52 86t62 54.5t74 20.5h12q40 0 92 -12q60 -14 64 -27q1 -6 1 -11q1 -20 -13 -22q-16 -2 -46 13 q-22 9 -34.5 13.5t-39 9.5t-40.5 -1q-109 -19 -180 -204q-28 -76 -83 -293q-3 -11 -5 -21q-37 -145 -80.5 -263t-107 -229t-138 -187t-176 -123t-219.5 -50q63 -49 141.5 -189t137 -285t86.5 -251q27 -105 143.5 -736t130.5 -681q36 -135 81.5 -240t119.5 -186q13 -3 24.5 2 t20.5 21t15 29.5t12.5 40.5t9.5 39.5t8 39.5q7 38 7 72q0 11 -1 23q-3 44 -7.5 79t-7 60.5t6.5 41t33 19.5h4q31 0 31 -80q0 -21 -2 -48q-10 -134 -51 -261q-7 -21 -13 -35q-29 -69 -76 -74q-6 -1 -12 -1q-31 1 -66 25q-42 30 -78.5 81.5t-62.5 96t-45 85.5 q-155 336 -272 1124q-28 232 -94.5 529.5t-125.5 402.5q-75 135 -124.5 195.5t-102.5 91.5q-12 -99 -18 -426q-4 -175 -15.5 -323.5t-33.5 -295t-58 -260t-85.5 -204t-119.5 -142.5t-157 -61q-9 -1 -18 -1q-56 1 -107 33q-59 38 -95 96q-37 58 -55 122q-14 48 -13 86 q0 12 1 24q11 2 23 0q8 -26 14.5 -72.5t19.5 -88t43 -83.5q44 -60 107 -78q22 -6 43 -6q39 0 74 21q29 17 54 42t44.5 56.5t34.5 61.5t27 69.5t19.5 67.5t14.5 68.5t10 59.5t7 53t4 38q49 407 55 535q4 78 12 171t10 173q2 88 9.5 185t14.5 165.5t24.5 217.5t27.5 245 q5 47 17.5 127l22.5 144q8 66 16 130q5 42 5 72q0 16 -1 30q-4 38 -21 41h-4q-31 0 -81 -74q-54 -80 -139 -267t-138 -312t-159 -381q-5 -12 -7.5 -18.5t-7 -16.5t-7.5 -18q-68 -151 -196 -151q-33 0 -70 10q-21 7 -49.5 20t-50.5 27q-18 12 -18 19q0 2 1 3z" />
<glyph unicode="L" horiz-adv-x="1720" d="M-207 -39q57 75 167 107q84 25 171 26q27 0 53 -3q114 -10 205 -50q16 24 34.5 63t41 96.5t40 103.5t46 123.5t43.5 117.5q56 149 101 309t92 346t83 309q-16 -7 -64 -32t-88 -42.5t-81 -29.5q-79 -25 -159 -33q-40 -4 -80 -4t-78 4q-78 8 -141.5 44.5t-96.5 96.5 q-14 30 -14 59q0 9 1 19q6 39 29 70q37 56 62 56q9 0 16 -7q11 -8 6 -18.5t-13 -17t-20 -15.5t-16 -14q-28 -40 -27 -78q0 -28 15 -54q45 -75 156 -103q62 -15 125 -15q51 0 104 10q119 19 223 68q127 58 154 92q8 9 13 25t9.5 41.5t7.5 37.5q71 272 80 311 q18 76 40.5 151.5t60.5 173.5t80 172.5t100.5 132.5t120.5 71l18 3q18 2 26 2.5t27 1.5h14h17l27 -4.5t26 -8.5t19 -15q29 -34 39 -72q6 -23 7 -46q1 -14 -3 -30q-6 -38 -18.5 -72.5t-29.5 -73.5q-3 -5 -4.5 -9t-3.5 -8q-77 -177 -194 -328q-110 -143 -127 -163 q-6 -6 -18 -19.5t-19 -22t-15 -20t-12 -20.5q-12 -23 -61 -275q-93 -468 -182.5 -741.5t-237.5 -546.5q-11 -20 -30 -55.5t-26 -48.5t-20.5 -36t-21.5 -35.5t-20 -29.5t-25 -33q163 -86 381 -245q24 -15 139.5 -91t161.5 -100q101 -60 164 -95t161 -80t181 -69 q42 -13 72 -21t85 -16q47 -7 83 -7q6 -1 12 -1q40 2 82 18.5t65 49.5q18 25 19 67v9q0 36 -7 72q-8 40 -16 90q-8 45 -8 75v7v18t1 24t4 22t10.5 18.5t19.5 7.5q14 0 36.5 -19t38.5 -51q13 -29 13 -139q-2 -53 -16.5 -106t-47 -101t-76.5 -64q-62 -22 -140 -22 q-163 0 -392 98q-214 93 -604 346h-2l-21 15q-401 258 -420 268q-116 -123 -213 -173q-82 -42 -167 -41q-15 0 -31 1q-87 0 -177 32q-90 31 -136 84q-26 30 -25 59q0 23 16 46zM-180 -105q4 -21 31 -45t79 -43q61 -18 115 -17h3q56 0 101 15.5t86.5 47.5t75.5 72t68 95 q-75 28 -145 38q-62 9 -106 10h-12q-46 -2 -96.5 -16t-72.5 -24t-56 -28q-20 -11 -37 -26q-18 -14 -28 -36q-8 -16 -7 -32q0 -6 1 -11zM1198 1876q-2 -2 -2 -3t3 -1h1h2q62 79 83.5 106t74.5 99.5t78.5 115.5t57.5 106t50 120q1 2 9.5 26.5t10.5 32.5q0 8 6 30q4 16 5 28 q0 4 -1 8q-2 12 -5 31t-13 35.5t-26 31.5q-57 -25 -99 -62.5t-69 -84.5t-43.5 -88.5t-34.5 -96.5q-3 -9 -4 -14q-15 -47 -28.5 -107.5t-20.5 -97.5t-19 -114.5t-16 -100.5z" />
<glyph unicode="M" horiz-adv-x="2560" d="M-205 150q0 8 4.5 11t12.5 2.5t16 -2.5t18.5 -4.5t16.5 -2.5q13 -1 26 0q35 0 67 6q44 8 76.5 22t63.5 41t50.5 50t43 62t35.5 63t32.5 66.5t29.5 61.5q83 148 276 634q13 32 19 48q27 64 68 202t52 198q-62 279 -84.5 417.5t-25.5 270.5q-3 44 -3 82q0 143 44 207 q19 28 57 51.5t86 23.5q70 0 127.5 -62.5t69.5 -146.5q4 -28 4.5 -57.5t-3.5 -63t-8 -58.5t-12.5 -62t-13 -54.5t-14.5 -54.5q-5 -17 -29.5 -95t-38.5 -138q-13 -55 -12 -99v-6q21 -121 176 -536q17 -46 121 -362.5t104 -321.5q3 6 324 496.5t334 508.5q68 99 104 166 q15 52 27.5 120.5t21.5 132.5t39 286q9 69 27.5 116t60.5 76q28 19 54 19q48 0 92 -64q35 -52 40 -110q1 -12 1 -24q0 -46 -15 -86q-19 -52 -42.5 -93t-48 -77t-28.5 -46q-22 -123 -69 -401q-77 -451 -146.5 -896t-80.5 -569q-4 -39 -32.5 -271t-33.5 -298 q-13 -128 -13 -277v-21q1 -161 31 -259q1 -5 7 -24t8.5 -25.5t8 -22t10.5 -21.5t12.5 -16t16 -15t19.5 -7q6 -1 11 -1q35 0 65 30q36 36 57 82t50 113.5t49 100.5q9 14 34 56t37.5 61.5t37 55t44 55.5t46 43.5t55 37.5t59.5 21q15 3 30 3q80 0 163 -77q37 -32 72 -74 q27 -32 27 -44q0 -4 -3 -6q-7 -4 -27 15t-48.5 50.5t-43.5 44.5q-66 53 -130 53q-101 0 -200 -127q-122 -147 -213 -374q-29 -66 -62 -106t-85 -54q-27 -8 -54 -8q-49 0 -97 26q-74 40 -113 142q-30 80 -30 270q0 124 13 293q6 80 19.5 257.5t21.5 276t21 243.5t27 271.5 t30 247.5q39 286 139 750q-54 -64 -210.5 -295t-227.5 -350q-49 -84 -120 -198t-89 -144l-69 -107q5 -27 19.5 -78.5t23 -98t8.5 -93.5q0 -136 -52 -253t-112 -128q-11 -2 -22 -2q-48 0 -87 40q-48 48 -61 118q-2 11 -2 23q1 29 13 59q18 44 52.5 95.5t42.5 67.5q3 4 8 11.5 l7 10.5t5 9.5t3.5 12t0.5 13t-1 17.5q-5 24 -150 561q-29 106 -170 522l-51 134q-4 -8 -76 -196l-55 -144q-171 -479 -352 -805q-18 -35 -27.5 -51.5t-30.5 -49t-38 -50t-44.5 -41t-55.5 -35.5t-68 -20q-35 -8 -75 -7h-9q-2 0 -16 0.5t-21 1.5t-20 2t-21 3.5t-16.5 6 t-12.5 8.5t-4 11zM688 2570q-12 -24 -11 -75q0 -85 32 -245q52 -254 102 -364q21 78 52 181t44 149t25 106q10 49 10 85v15q-2 40 -16 83q-14 51 -52 89.5t-69 43.5q-7 1 -15 1q-28 0 -56 -18q-34 -23 -46 -51zM1016 14q-2 -14 -2 -26q0 -39 20 -74q18 -13 34 -13q6 0 12 2 q20 7 32 22t18 34q7 31 7 70q0 21 -2 45q-6 68 -21 112q-7 -15 -48.5 -74t-49.5 -98zM2265 2101q45 74 56 105q12 35 12 74q0 46 -17 98q-10 -5 -15.5 -14.5t-9 -31t-5.5 -46t-7.5 -74t-13.5 -101.5q1 -3 0 -5v-2.5v-2.5z" />
<glyph unicode="N" horiz-adv-x="1679" d="M-344 70q16 10 28.5 8.5t25.5 -19.5t23 -40t22 -53t21.5 -58.5t22.5 -55.5t25 -45q27 -37 73 -62q33 -18 66 -18q13 0 27 3q34 7 62 28t49 54.5t33.5 59.5t27.5 65q10 27 38.5 123t66 227.5t80 284t83 298t74 264.5t54 189.5t20.5 65.5q-2 20 -48 161q-70 256 -70 439 q0 104 23 184q8 28 20 56t31 57t41.5 45.5t51 20.5t59.5 -17q14 -10 30 -29t34.5 -63.5t23.5 -98.5q5 -51 4 -97v-9q0 -50 -3 -88.5t-12 -87t-17 -81.5t-23 -91q-30 -87 -29 -97l113 -364q31 -101 102.5 -310t124.5 -397q12 -47 42 -146.5t42 -148.5q16 33 355 1485 q42 177 76.5 305t74 248.5t79 201.5t86.5 146t101 101t119 49q19 3 47 5q10 1 21 1q18 0 37 -1q30 -2 50.5 -14.5t20.5 -33.5q-4 -14 -34 -20t-76 -9t-62 -6q-61 -11 -113 -46t-93.5 -91.5t-77.5 -130t-66.5 -167.5t-58.5 -199t-56 -228.5t-56 -252.5q-4 -20 -6.5 -30.5 t-6 -27.5t-6.5 -31q0 -3 -165.5 -684t-164.5 -688q0 -21 15 -79t16 -65q76 -365 76 -551q0 -118 -31 -164q-12 -24 -48 -34q-17 -4 -35 -4q-21 0 -44 6q-27 11 -57.5 69.5t-37.5 102.5q-5 28 -6.5 58t-1 51t5 53.5t6.5 45.5t9 48.5t8 42.5q3 18 9.5 45t10.5 46t7 43t2 48 t-7 49q-14 54 -47 164t-39 129q-14 49 -36 144.5t-37 146.5q-36 123 -150.5 455t-128.5 360q-15 -18 -94.5 -312.5t-172.5 -637.5t-132 -445q-3 -7 -12.5 -29t-13.5 -31t-13 -29t-15.5 -30t-17 -26.5t-20.5 -26t-22.5 -21t-27 -18.5t-30.5 -12q-21 -6 -45 -6q-26 -1 -55 7 q-55 14 -99 50q-74 57 -137 201q-5 12 -14 29t-15 30l-12 24q-5 11 -6 20q0 10 8 14zM588 2154q0 -7 -1 -13q1 -63 5 -123q4 -68 12 -117q25 -123 70 -234q19 66 35 144q16 77 25 165q6 63 6 118v42q-4 72 -28 120.5t-69 51.5h-5q-23 0 -36 -40q-14 -46 -14 -114zM1022 -513 q-1 -13 -1 -25q0 -50 13 -97q16 -59 53 -100q52 52 52 177q0 23 -2 48q-13 148 -66 287q-2 -15 -15 -68.5t-21.5 -106t-12.5 -115.5z" />
<glyph unicode="O" horiz-adv-x="1536" d="M-20 1132q13 276 49 420q52 207 127 351q61 126 125 200q131 158 239 191q51 15 105 16h4q52 0 109 -26q59 -28 100 -82l36 -50q14 -21 4 -30q-10 -10 -30 21l-8 14q-59 70 -78 81q-4 3 -14.5 12t-15 12t-15 9t-17.5 6h-19t-23.5 -6.5t-26.5 -15.5t-32.5 -25t-37.5 -37 q-119 -128 -199 -333t-116 -453q-34 -238 -35 -504q1 -11 1 -23q2 -278 40 -565q13 -93 27.5 -166t38 -155.5t58 -138.5t77.5 -76q45 -21 89 -21q1 0 2 -1q43 0 82 19q40 19 78 49t72.5 73.5t63.5 88.5t57 97q123 220 236.5 626t134.5 687q4 47 4 93q0 190 -64 355 q-28 -34 -49.5 -46t-62.5 -13h-7q-57 0 -121 45q-68 48 -87 111q-6 17 -6 31q0 41 50 55q20 5 44 5q50 0 112 -25q83 -34 115 -89q14 17 25 42t16 41t14.5 53.5t12.5 47.5q4 14 18 68.5t19 71.5t19.5 66.5t22.5 70t24.5 63.5t30 65t34.5 56.5t41.5 56t47 46t56.5 43.5 q3 2 14.5 10t18.5 12t19 11t21 9l20 4q4 1 7 1q6 1 12 -1q9 -2 17 -10q7 -22 7 -34.5t-12 -22.5t-23.5 -14.5t-27.5 -11t-24 -11.5q-172 -98 -225 -217q-31 -71 -77 -252t-71 -252l-20 -55q53 -96 71 -246q10 -86 11 -171q0 -63 -6 -126q-13 -147 -47 -291 q-39 -168 -83.5 -322.5t-101.5 -316t-122.5 -292t-139.5 -235t-160.5 -162.5t-177.5 -58q-79 0 -151 65.5t-125.5 169.5t-97.5 240.5t-72 271.5t-43 269q-13 114 -13 263q0 92 5 197zM930 1943q11 -46 70 -81q42 -25 90 -31q6 -1 13 -1q21 0 41 15q26 20 36 51 q-40 48 -102 80q-47 25 -87 25q-12 0 -24 -2q-39 -10 -39 -41q0 -7 2 -15z" />
<glyph unicode="P" horiz-adv-x="1433" d="M-303 1956q6 6 27 -10q6 -6 17 -18t16.5 -17.5t18 -14t29.5 -16.5q41 -18 84 -17q3 -1 7 -1q46 2 84 18q55 22 110 66t104 104t84 110.5t74 114.5q40 69 56 140q8 47 28 145q64 280 129 487q6 21 16 53t15 48.5t13 39.5t14.5 34t14.5 22q10 12 20 16q8 3 17 2h5 q23 -1 48.5 -27.5t39.5 -60.5q6 -21 6 -49q0 -45 -16 -106q-28 -99 -64 -172q-22 -49 -143 -275q-24 -90 -41.5 -277.5t-22.5 -223.5q7 14 34.5 78.5t41 91.5t52 89t90.5 132q57 76 163 134q91 50 166 50q12 0 23 -2q71 -7 133 -48.5t104.5 -101.5t74 -133.5t47 -145.5 t16.5 -136v-11q0 -179 -95 -397q-58 -130 -159 -237q-31 -33 -105 -88q4 -7 12.5 -20.5t12.5 -20.5q59 -89 80 -228q1 -4 4 -14.5t4.5 -16.5t1.5 -13.5t-6 -10.5q-9 -6 -16.5 12.5t-16 60.5t-12.5 54q-16 55 -84 180q-8 -4 -30.5 -16.5t-38 -20t-47 -16.5t-67.5 -12 q-18 -2 -36 -2q-66 0 -124 29q-74 37 -112 122q-18 43 -18 82q0 43 23 81q41 65 118 64h14q54 -4 105.5 -38.5t115.5 -96.5q59 47 70 60q63 67 115.5 152.5t92 192.5t45.5 217q1 18 1 37q0 92 -25 189q-4 14 -14.5 53t-17 57t-18.5 46t-27.5 46.5t-36.5 31.5q-48 25 -102 25 q-23 0 -48 -5q-82 -15 -153 -67q-39 -29 -73 -62.5t-62 -73t-46.5 -68t-40 -75t-29 -64t-26.5 -63.5q-64 -145 -90 -285q0 -59 -15.5 -563.5t-15.5 -525.5q0 -840 -88 -1149q-30 -111 -100 -193t-138 -92q-8 -1 -17 -1q-57 0 -97 61q-42 80 -42 255q0 270 101 767 q13 59 35.5 173t34.5 169q-1 -10 5 12q14 54 93 407l64 283q37 442 74 760q-27 -29 -83 -107t-112.5 -140t-118.5 -95q-39 -21 -85 -31q-24 -5 -52 -5q-24 0 -52 4q-58 9 -106 44q-24 17 -46 40q-15 16 -16 26q0 5 3 8zM4 -456q12 -165 53 -185q5 -1 9 -1q24 0 44 24 q23 28 41.5 93.5t32 141t29.5 195.5q6 45 13.5 161.5t14 251t13.5 308.5t11 297t8.5 255.5t5.5 147.5q-8 -31 -41.5 -180t-40.5 -179q-45 -182 -74.5 -309t-61.5 -301.5t-45 -310.5q-16 -165 -16 -294q0 -62 4 -115zM569 2689q63 113 127 264q3 7 13 33t14.5 37.5t11 36 t7.5 42.5t-1.5 43t-9.5 50q-32 0 -73.5 -98t-67.5 -220q-22 -102 -22 -165q0 -12 1 -23zM614 1485q-1 -7 -1 -15q-1 -22 11 -44q16 -28 52 -44q20 -8 40 -10h8q16 0 32 4q20 6 39.5 15.5t39.5 23.5t40 29t41 32q11 9 16 13q-40 55 -100 89q-54 30 -103 30h-12 q-22 -1 -45 -19t-38 -46t-20 -58z" />
<glyph unicode="Q" horiz-adv-x="1720" d="M-17 576q-2 47 -2 91q0 107 13 200q20 131 57 237q82 233 225 373l14.5 14.5t18 16.5t19 11t24.5 7q7 -12 7.5 -20.5t-3.5 -13.5t-9 -8.5t-12.5 -7t-10.5 -6.5q-68 -61 -113 -129q-79 -116 -120 -238t-68 -310q-8 -59 -10 -127v-29q0 -56 5 -123q8 -84 26.5 -163.5 t55 -163.5t88.5 -150q51 -66 129.5 -99t160.5 -33t146.5 11t116.5 29q-64 83 -153 136q-61 37 -114 37q-23 0 -44 -7q-37 -12 -68 -43q-4 -4 -15 -21t-20.5 -24t-19.5 0q-18 18 -1.5 44t55.5 51t71 29q13 2 27 2q136 0 325 -178q78 33 156.5 119.5t137.5 192t102 209 t63 186.5q5 19 18 61t20 68t15 64t11 71q11 109 11 228q0 179 -24 382q-41 338 -137 519q-28 52 -119 76q-46 12 -83 12q-35 0 -62 -11q21 -155 21 -247q0 -33 -3 -58q-8 -70 -31.5 -133.5t-67 -118.5t-101.5 -78q-24 -9 -53 -10t-59 8t-53 38t-30 75q-3 21 -3 46 q0 68 24 163q45 164 178 268l17.5 12.5t13.5 10.5t8 9.5t4.5 14.5t-1.5 20.5t-5 31.5q-16 95 -39 170q-19 56 -51.5 121t-63.5 100q-29 34 -96 61q-54 22 -105 22q-11 0 -22 -1q-17 -1 -40 -4.5t-39.5 -5.5t-32 -3t-24 0t-10.5 6q-8 20 31 31q30 8 70 8q21 0 45 -2 q85 -8 143.5 -30t116.5 -76q45 -40 98 -117.5t88 -150.5q7 -15 26.5 -65.5t33.5 -78.5q49 9 92 9q89 0 153 -38q94 -55 170 -200q120 -227 169 -481q29 -152 29 -312q0 -109 -13 -221q-33 -279 -154 -541q-44 -96 -120.5 -212t-163.5 -211.5t-144 -116.5 q211 -310 494 -633.5t524 -503.5q189 -144 289 -156q16 -3 30 -3q37 0 54 20q8 10 8 40q0 22 -4 54q-5 36 -5 59q0 25 6 34q16 18 56 1q17 -19 17 -59q1 -3 1 -6q0 -36 -6 -54q-9 -72 -57 -106q-26 -17 -64 -17q-35 0 -81 15q-92 26 -217 112t-251.5 201.5t-260 255.5 t-245.5 271t-204 252q-18 25 -67 86t-72 94q-6 -2 -39 -10.5t-42.5 -11t-37.5 -8.5t-43 -7.5t-39.5 -3.5t-47 -0.5t-46.5 4.5q-166 26 -306 157t-208 343q-44 136 -52 295zM550 1701q-1 -4 -1 -7q0 -50 19 -88q21 -41 59 -41q24 0 48.5 32.5t42 77.5t28.5 78.5t14 50.5 q15 76 15 154q0 61 -9 123q-61 -13 -126.5 -106.5t-80.5 -166.5q-8 -53 -9 -107z" />
<glyph unicode="R" horiz-adv-x="1495" d="M-311 1831q9 16 31 14.5t46 -8.5t54 2q37 15 57 29q47 30 86.5 71.5t67.5 85t61 114.5t56 130t65 163t76 185q4 9 11.5 30.5t12 33t15.5 29t22.5 27.5t31.5 20t46 14h3q11 0 19 -11q10 -13 15.5 -41t7.5 -43.5t4 -43.5q3 -24 7 -207.5t8 -407.5t4 -231q25 45 92 205 q109 232 207 361.5t209 164.5q43 13 89 13q50 0 103 -15q96 -25 175 -121.5t114 -210.5q20 -63 20 -126q0 -77 -30 -154q-58 -131 -234 -236q-109 -69 -255 -105q-75 -19 -144 -18q-67 0 -129 17q125 -155 221.5 -353t163 -417t119.5 -428t121 -464t137 -446 q26 -72 64 -137.5t76.5 -109.5t67.5 -71t52 -42q39 -27 85 -41q32 -10 64 -9q14 -1 28 1q46 6 68 41q14 19 20 45q5 21 5 51q-1 7 -1 14q-2 39 -3.5 61t-9 73t-9.5 63q-1 7 -8 35t-5.5 41.5t16.5 15.5q18 2 21.5 -6t1.5 -26t-2 -25q3 -17 11 -54t12.5 -62t9 -62.5t4.5 -64 t-4.5 -57.5t-15.5 -51.5t-31.5 -37t-49.5 -23.5q-22 -5 -47 -5q-83 0 -193 56q-228 118 -332 377q-15 38 -305 893q-49 141 -137 430.5t-109 355.5q-42 157 -137.5 311.5t-189.5 213.5q-3 -37 -8.5 -112.5t-19.5 -279t-32 -448.5q-6 -61 -17.5 -178.5t-15.5 -155t-14 -119.5 t-18.5 -119.5t-23.5 -103t-34 -123t-45 -129.5q-24 -63 -77 -117q-43 -43 -78 -44q-9 0 -17 3q-34 24 -48 66q-11 30 -10 82q0 20 2 43q6 83 12 130.5t28 174.5q3 17 4 25q98 511 209 907q22 82 36 208.5t18.5 226t12.5 317.5q4 110 4 215q0 269 -26 505q-6 -9 -96 -233.5 t-99 -241.5q-71 -136 -162.5 -234.5t-185.5 -109.5q-23 -2 -41 -2q-41 0 -57 12q-6 4 -6 11q0 4 2 8zM86 -223q41 8 78.5 104t52.5 191q10 64 18.5 127.5t15 114t12 112.5t9 98t7 98.5t5 86.5t3.5 88t2.5 77t2 81t1.5 73q-39 -130 -123 -522q-48 -228 -80 -460 q-17 -125 -16 -193q0 -59 12 -76zM510 1688q28 -8 73.5 -38t67.5 -40q77 -32 165 -32q52 0 108 12q150 30 243 116q64 59 89.5 129.5t25.5 171.5q0 202 -88 334q-94 145 -170 149q-40 0 -86 -36t-96 -105.5t-93.5 -142t-97.5 -172.5q-94 -208 -108 -244q-2 -5 -8.5 -18 t-9.5 -20.5t-7 -19t-6 -22.5t-2 -22z" />
<glyph unicode="S" horiz-adv-x="1617" d="M2 215q-1 38 -1 74q0 160 29 269q36 134 160 296q-38 84 -46 192q-3 34 -3 68q1 74 13 146q18 106 55 213q3 7 7 20t7 22.5t7 18.5t9 12.5t11 1.5q9 -3 12 -9.5t0 -15.5t-6 -15.5t-10 -15.5l-6 -9q-23 -59 -40 -123q-16 -66 -27 -148q-6 -45 -7 -93q0 -39 5 -79 q9 -90 40 -172q103 103 221 117q20 3 40 3q30 0 62 -6q54 -12 93 -40q61 -44 111 -123t57 -153q1 -9 1 -18q0 -45 -18 -81q-25 -45 -63.5 -67.5t-76.5 -23.5h-8q-36 0 -72 8q-40 10 -67 22.5t-45 25.5q-76 54 -137 128t-100 143q-5 -3 -25 -26.5t-28 -37.5q-59 -90 -88 -206 q-28 -112 -28 -221v-8q1 -112 17 -230q36 -267 176 -436q41 -57 124 -105.5t143 -48.5h7q31 0 65 16q38 18 70.5 48t51 49t31.5 36q65 99 111 211t71 211t38.5 228.5t16.5 228t3 244.5q0 156 7 386q6 228 10 382q2 88 2 135q0 35 -1 47q-56 -45 -160 -156q-55 -62 -116 -71 q-31 -5 -56.5 11t-13.5 44q4 8 24 13t48.5 9t35.5 5q35 11 132 98t104 92q2 7 10 100t20.5 208t44 261.5t75 270t120 223.5t172.5 131q25 6 57 7h4q30 0 70 -12q42 -13 78 -38q51 -38 84 -106q28 -58 28 -124q0 -12 -1 -24q-5 -73 -34 -145t-77 -160q-91 -161 -227.5 -309 t-237.5 -228v-56q0 -164 4 -556q5 -470 5 -518q0 -119 -10.5 -252t-35.5 -297.5t-79.5 -314t-130.5 -242.5q-66 -80 -127 -109.5t-136 -38.5q-24 -3 -48 -3q-129 0 -271 81q-147 85 -235.5 273t-100.5 442zM233 831q30 -56 77 -114.5t102 -106.5q54 -50 114 -76 q43 -19 80 -19q14 0 27 3q73 15 73 100v7q-3 90 -73 186q-75 104 -166 124q-18 4 -36 4q-23 0 -46 -7q-77 -26 -152 -101zM1169 1862q173 136 326 348q6 9 32.5 45.5t38.5 53t30.5 46.5t31.5 55q76 144 84 248q1 9 1 19q-1 45 -17 87q-20 50 -52 84q-32 35 -74 55 q-40 19 -77 19h-4q-76 -2 -146 -92q-44 -60 -74 -147t-45.5 -195.5t-23.5 -202t-16 -222.5t-15 -201z" />
<glyph unicode="T" horiz-adv-x="1495" d="M-408 -841q0 30 8 59q8 31 17 53q25 59 69 106t96.5 82.5t173 122.5t241.5 185q-60 87 -93 178q-34 91 -38 169q-2 28 -1 55q0 47 5 87q8 62 28 115q47 120 130 121q16 0 32 -5q28 -6 61.5 -40.5t55.5 -75.5q39 -81 47 -163q3 -33 4 -63q0 -45 -8 -81q-12 -62 -45 -126 t-61 -101.5t-66 -80.5q38 -41 76 -58q31 -14 57 -15q5 -1 10 1q30 4 59 22.5t50 43t40.5 56.5t30 54.5t19.5 43.5q36 93 62 175.5t48 176.5t34.5 155.5t37 190.5t39.5 205q41 194 80 409t84.5 485t68.5 396l-647 -12l-65 -164q-23 -48 -54.5 -91.5t-76.5 -85.5t-105 -64 q-51 -19 -109 -20q-10 0 -20 1q-91 6 -168 78q-43 37 -68.5 76.5t-31.5 86.5q-1 7 -1 13q0 39 32 72q43 46 162 80t233 42q21 2 102 6q65 3 76 3q3 0 2 0q26 10 54.5 145t33.5 201q2 23 2 45q0 15 -1 30q-2 37 3.5 61t22.5 19q19 -6 21 -31.5t-3 -37.5q-1 -19 -3 -86 t-4.5 -99.5t-11.5 -99.5t-24 -141q55 -1 116 -1q81 0 172 2q159 4 257.5 9.5t103.5 7.5q7 1 37 160t75.5 340.5t88.5 226.5q30 29 80 41q21 5 45 5q34 0 74 -9q18 -6 22.5 -15.5t-3.5 -26.5t-23 -38.5t-36 -57t-42 -75.5t-42.5 -100t-35.5 -125q-9 -42 -30.5 -142 t-32.5 -153q72 9 142.5 23t150 35.5t146.5 52t124 68.5t92 89.5t41 110.5q2 27 -1 58t-2.5 42.5t11.5 11.5q15 -1 21 -26t6 -47q0 -64 -30.5 -127.5t-74.5 -106.5q-44 -45 -106.5 -80.5t-141 -61t-152.5 -42.5t-171 -33q-7 -1 -21.5 -2.5t-24 -3.5t-13.5 -6 q-30 -150 -69.5 -409.5t-66.5 -458t-61 -460t-37 -284.5q-37 -274 -86.5 -446t-144.5 -330q-96 -143 -177 -164q-39 -12 -77 -12q-58 0 -114 27q-93 44 -161 143q-155 -126 -321 -244q-8 -5 -34 -23t-35 -24.5t-32 -23t-33 -25.5t-29.5 -26t-29 -28.5t-24 -29.5t-22.5 -33.5 t-15.5 -34.5t-12.5 -39q-3 -11 -2.5 -39t-4.5 -41q-3 -8 -10 -8q-4 0 -9 2q-17 7 -17 42zM-260 1904q0 -5 -1 -9q0 -34 17 -65q19 -35 47 -58q34 -26 87 -27q61 0 147 35q89 35 154 108t96 162q0 2 3 6t5 7.5t3.5 7t-1 5.5t-8.5 3q-151 -2 -299.5 -29t-212.5 -82 q-35 -24 -37 -64zM103 172v-14q0 -64 8 -121q13 -71 44 -138.5t68 -109.5q70 58 116 153q45 94 53 201q1 16 2 31q0 91 -38 178q-26 54 -62 78q-29 19 -56 20q-6 0 -12 -2q-32 -6 -58 -30q-29 -29 -46.5 -101.5t-18.5 -144.5z" />
<glyph unicode="U" horiz-adv-x="1638" d="M-91 2240q4 84 27 152t60 119q22 31 55 55t77 40q29 10 64 10q17 0 35 -2q56 -8 113 -42q61 -37 98.5 -80.5t55.5 -109.5q24 -92 30 -186q4 -53 4 -99q0 -35 -2 -67q-5 -72 -25.5 -161.5t-37.5 -143t-47 -140.5q-52 -152 -91 -342.5t-55 -357.5q-18 -167 -22 -317 q-1 -34 -1 -67q0 -113 9 -213q12 -130 50 -204q35 -68 91 -68h9q29 2 66.5 30.5t78.5 77.5t75 94.5t73 101.5q12 18 18 26q45 64 144 242.5t106 214.5l12 94q58 382 76 469q27 138 57 270q7 27 20.5 83t25 98.5t24.5 76.5q36 109 90 121q12 3 26 3q23 0 49 -10 q41 -16 58 -44q12 -17 12 -52q0 -31 -10 -77q-11 -61 -25 -112t-24.5 -81t-45.5 -122.5t-59 -159.5q-53 -194 -84.5 -549.5t-33.5 -683.5l2 -741q0 -76 27 -124q25 -45 71 -44h8q15 0 37.5 25.5t50.5 66.5t31 45q53 74 96.5 128.5t99.5 113t111.5 92.5t106.5 39q12 1 23 1 q110 0 179 -124q2 -5 8 -15.5l10 -17.5q2 -8 6 -16q3 -7 4 -14q0 -8 -5 -11q-10 -1 -17.5 7t-15 23t-10.5 19q-38 66 -70 92q-26 22 -72 22q-9 0 -18 -1q-33 -3 -68 -19.5t-74.5 -50t-71.5 -64t-78 -85.5t-73.5 -89.5t-76.5 -97.5q-5 -7 -23 -33t-26 -36t-24.5 -27.5 t-34.5 -26t-40 -12.5q-15 -2 -28 -2q-56 0 -100 38q-54 48 -87 144q-65 191 -65 668q0 135 4 223q18 422 20 449q-3 -3 -25.5 -45t-51 -95.5t-41.5 -74.5q-26 -37 -69.5 -103t-73 -110.5t-71 -99t-74 -87.5t-71 -57t-72.5 -25h-9q-135 0 -232 152q-33 50 -51.5 114.5 t-25.5 126.5q-4 36 -4 88q0 36 2 82q5 108 12.5 192.5t24.5 247.5q6 57 9 87q22 163 58 291t82.5 292.5t86.5 383.5q15 88 15 184.5t-26.5 196.5t-74.5 159q-26 17 -64 17h-12q-46 -3 -98 -32.5t-78 -70.5q-73 -110 -73 -266q0 -38 1.5 -59.5t11 -60t28.5 -77.5 q5 -8 15 -20.5t18.5 -22t16.5 -21t8 -18t-7 -14.5q-5 0 -7 -0.5t-7.5 4t-7.5 7t-6.5 8.5t-6.5 8q-34 37 -68 121q-25 72 -25 145v20zM1274 1543l4 3q8 22 37 98.5t44 130t21 111.5q-70 -100 -102 -305q0 -3 -2 -13q-4 -15 -4 -21q0 -4 2 -4z" />
<glyph unicode="V" horiz-adv-x="1392" d="M-267 2080q4 18 17 11q8 -4 10.5 -22t3.5 -42.5t5 -37.5q19 -56 50 -85t97 -63q81 -35 179 -45q33 -3 62 -2q58 0 101 12q6 8 8 64q2 40 2 78v30v47v37q3 60 22.5 163.5t41.5 164.5q17 47 63.5 88.5t98.5 42.5h11q49 0 81 -31q34 -35 55 -112q14 -47 14 -94q0 -22 -3 -42 q-9 -68 -29.5 -121t-53.5 -102.5t-61.5 -82.5t-52.5 -59t-27 -32q-4 -37 -5 -65v-18q-1 -23 1 -53q2 -42 4.5 -66.5t10 -98.5t12.5 -121q44 -468 73 -665q11 -81 38.5 -214t37.5 -167q35 66 86 203q277 766 391 1041t226 476q115 213 237 362t199 152h3q46 -1 66 -27 q20 -28 31 -108v-6q0 -20 -12 -35q-14 -17 -37 12q-12 18 -12 47.5v49.5t-11 22q-7 1 -13 1q-43 0 -98 -44q-63 -51 -127.5 -142t-111.5 -168.5t-92 -162.5q-123 -226 -261.5 -566t-248.5 -646t-115 -318q-11 -28 -42 -108t-48 -121q8 -49 36 -207t40 -257.5t12 -188.5 q1 -12 0 -23q0 -53 -10 -110q-14 -69 -37 -105q-25 -40 -75 -50q-14 -3 -30 -3q-40 0 -91 18q-63 24 -89 87q-23 56 -22 122v16q5 80 68 234l88 246q1 6 -28.5 187.5t-62.5 378t-34 204.5q-35 236 -109 929q-15 1 -54.5 1.5t-70 1t-76 5.5t-81 13t-77 24t-71.5 38.5 t-55.5 57.5t-38.5 79q-11 41 -11 69q0 12 2 22zM379 -446q-1 -13 -1 -25q0 -25 4 -43q6 -26 15.5 -39.5t24.5 -24.5q26 -11 46 -11q48 0 64 64q9 38 9 157v24v14q0 217 -31 330q-93 -236 -115 -344q-13 -60 -16 -102zM429 1929q1 -17 1 -20q47 40 89.5 99.5t64.5 121.5 q15 41 22 68q6 27 12 71q2 16 3 33q-1 29 -7 58q-10 47 -32 98q-79 -58 -113 -234q-14 -74 -23.5 -128.5t-12.5 -86.5q-3 -31 -4 -47v-16.5v-16.5z" />
<glyph unicode="W" horiz-adv-x="2150" d="M-314 782q0 5 3 10q4 6 10.5 11.5t15 10.5t15.5 8.5t14.5 7t9.5 4.5q78 44 156.5 124.5t127 147.5t91.5 139q21 36 71.5 116t73.5 120l269 485q-3 82 -5 224v49q0 126 6 286q8 192 27 266q11 51 22.5 80.5t27.5 41.5q16 13 29 15q9 2 26 1h14h7q48 0 94 -39 q37 -32 52 -88q13 -49 13 -105v-15q-2 -65 -16 -165q-10 -71 -75.5 -261.5t-115.5 -277.5q13 -159 46 -465t44 -395q23 -186 66 -438q29 35 155.5 259t151.5 284q-18 133 -25 192t-15 137q-6 62 -5 102v20q2 44 10 77q21 93 109 98q47 0 78 -61q25 -53 33 -105q4 -23 4 -46 q0 -28 -6 -56q-10 -50 -19 -77t-27 -70q-7 -16 -8 -39t4 -54.5t10 -55t14 -63t13 -57.5q28 -141 97.5 -414.5t82.5 -326.5q21 51 46 123t39 117t44.5 146.5t38.5 127.5q97 320 197.5 728.5t124.5 490.5q12 40 31 85t48 95.5t68 86t80 42.5q17 3 34 3q28 1 54 -9 q41 -16 62 -45q21 -31 21 -56t-14 -35.5t-38.5 -4.5t-46.5 32q-15 21 -19.5 42.5t-11.5 27.5q-8 1 -17 1q-59 0 -110 -67q-21 -26 -41 -63t-40 -93.5t-36 -107.5t-38.5 -139.5t-38.5 -154t-45.5 -186t-49.5 -202.5q-48 -187 -144 -522.5t-179 -567.5q7 -55 31.5 -206 t36.5 -243q10 -74 10 -167q0 -23 -1 -47q-3 -122 -34 -205q-17 -44 -52.5 -82.5t-76.5 -46.5q-18 -5 -41 -5q-18 0 -39 3q-49 6 -66 29q-19 27 -27 61q-6 26 -6 55v19q2 40 5 55.5t10 50.5q8 49 49 179t78 231q0 22 -6 60.5t-16 88.5t-13 70q-68 400 -197 922 q-73 -130 -129 -226t-73.5 -124.5t-36.5 -62.5t-29.5 -56t-42.5 -88q36 -216 47 -402q4 -64 4 -121q0 -109 -14 -194q-7 -39 -12.5 -60.5t-18.5 -53t-36 -53t-56 -36.5q-61 -23 -121 -23q-40 0 -80 10q-98 26 -133 87q-29 51 -35 106q-4 32 -3 54q-1 14 1 24q4 24 15 64 q26 109 80 194t192 254q-4 44 -15.5 137.5t-26.5 213.5t-21 171q-9 79 -23 373q0 4 -20 531q-9 -15 -74 -122.5t-105 -181.5q-45 -78 -137 -225.5t-117 -187.5q-52 -83 -176 -217q-20 -21 -36 -37t-35 -34.5t-34.5 -32t-32.5 -27t-31 -21t-27 -12.5t-23 -4t-18 8q-7 7 -7 16 zM387 -139q3 -50 29.5 -94.5t66.5 -51.5q10 -2 20 -1q36 0 61 22q32 30 50 69q36 64 48 261q3 50 3 95q0 123 -22 208q-89 -107 -123 -158t-71 -133q-62 -126 -62 -205v-12zM651 2066q40 78 86 233.5t74 270.5q13 54 15 116v20q0 51 -11 96q-13 53 -43 65h-2q-27 1 -44 -31 q-18 -32 -32 -106q-29 -150 -39 -362q-6 -132 -7 -217q1 -51 3 -85zM1212 1674q1 -112 19 -187q30 127 30 180q0 79 -36 123q-13 -3 -13 -101v-15zM1284 -633q10 -2 20 -3q13 0 25 6q20 8 32.5 28t19 38t12.5 42q9 28 9 82v18q-2 68 -7 117.5t-12 120.5t-9 110 q-131 -335 -131 -470q0 -76 41 -89z" />
<glyph unicode="X" horiz-adv-x="1331" d="M-631 -1032q14 5 21.5 -6.5t10.5 -30.5t5 -21q39 -78 116 -106q37 -14 73 -14q39 0 77 16q61 25 111 98q53 75 132.5 303t176.5 578t176 651t183.5 712.5t146.5 571.5q-4 28 -9 70t-7 53.5t-8 37.5t-14 47.5t-23 58.5q-33 81 -71 135.5t-76.5 78t-76.5 23.5t-72.5 -30.5 t-64 -82.5t-52.5 -133t-36 -182q0 -3 -2 -15t-4 -17.5t-4.5 -13.5t-8.5 -11t-14 -2q-18 4 -20.5 19t6.5 48.5t10 40.5q21 134 67.5 231t109.5 142q62 46 134 48h4q70 0 144 -54q76 -55 145 -160q12 -18 25.5 -46.5t21.5 -39.5q20 46 72 176t94.5 225t85.5 173 q43 77 102.5 138t84.5 75q43 24 100 24q32 0 69 -8q79 -17 102 -53q6 -10 6 -19q0 -20 -29 -39q-19 -12 -46 4t-63.5 39t-69.5 23q-19 0 -38 -6t-49 -29.5t-61 -63t-73.5 -113t-87.5 -173.5q-96 -209 -168 -447q30 -77 59 -214.5t37 -227.5q12 -114 37 -352t34.5 -329.5 t30 -277.5t31 -266t29 -221t33 -216.5t34 -178.5t39.5 -181t44 -155q13 -44 26 -81.5t29 -80.5t32 -79t35 -73t40 -65.5t44 -54.5t49 -42.5t54 -26t59.5 -8.5t65.5 13q13 5 21 19.5t10 27t9.5 20.5t20.5 -1q22 -18 22 -38q0 -19 -18 -39q-38 -42 -98 -44h-7q-99 0 -183 52 q-87 54 -178 186q-83 122 -132.5 236.5t-105.5 332.5q-97 384 -203.5 1065t-118.5 967q-129 -557 -312.5 -1229t-262.5 -903q-131 -394 -205 -510q-49 -77 -74 -101q-45 -44 -108 -53q-20 -3 -40 -3l-82 12q-61 18 -103 61q-30 29 -52 73q-13 25 -13 42q0 12 7 20z" />
<glyph unicode="Y" horiz-adv-x="1945" d="M-485 2011q15 -5 28.5 -19t29.5 -34.5t26 -30.5q63 -62 127 -81q33 -10 64 -10t60 10q60 19 119 63t114 108.5t107 135t101.5 143t93 132t86 102.5t76.5 55q24 6 49 6q24 0 48 -5q52 -11 85 -32q68 -47 129 -195q33 -96 43 -187q4 -38 4 -75q0 -54 -9 -109 q-14 -91 -29 -146.5t-45 -145.5q-3 -8 -4 -12t-3 -10t-4 -11l-78 -219q-54 -157 -117 -368.5t-81 -299.5q-20 -99 -28 -278q-3 -63 -3 -123q0 -112 10 -215q15 -157 57 -164q86 12 173 108.5t161.5 241t147.5 316t140.5 339t129.5 304t125 217.5q59 74 110 74q5 0 9 -1 q35 -4 61.5 -42.5t38.5 -98.5q6 -27 6 -66q0 -51 -10 -122q-10 -94 -55 -269.5t-52 -212.5q-75 -312 -158.5 -685t-92.5 -439q291 0 528 -262q99 -111 99 -156q0 -17 -15 -24q-16 -8 -27 14t-28.5 66.5t-40.5 72.5q-47 55 -176 148q-97 67 -205 89q-65 13 -104 13 q-27 0 -42 -6q-14 -71 -35.5 -182.5t-32.5 -166t-29 -140t-30.5 -128t-31 -104t-36 -95.5t-41.5 -74.5t-51.5 -69t-60.5 -52.5q-26 -19 -65 -33t-85 -18q-17 -2 -32 -2q-30 0 -58 6q-42 8 -77 40t-49 85q-6 25 -6 55q0 70 32 173q48 148 130.5 292.5t188.5 266t191 153.5 q19 81 39 197q43 267 55 340.5t55 320t72 376t76 317t96 333.5q-43 -32 -102.5 -134t-108.5 -216q-16 -37 -48 -120t-65 -169t-78.5 -195t-91 -206t-102 -192t-111 -163t-116.5 -110q-62 -41 -120 -41h-3q-197 5 -268 268q-15 60 -20 126q-4 47 -4 82q0 14 1 26q2 42 8 108 t7 90q19 180 72.5 378t110.5 344.5t126.5 334t105.5 316.5q34 124 34 228q0 85 -23 157q-13 47 -41 91t-56 52q-8 2 -18 2q-25 0 -54 -18q-41 -25 -82.5 -75.5t-90.5 -116.5t-98 -139t-105.5 -142t-113 -128t-119.5 -94t-125 -42q-10 -1 -20 -1q-53 0 -111 30 q-69 36 -136 118q-3 3 -9.5 11t-9.5 12t-8 11q-3 7 -3 10zM606 -1286q14 -50 42 -66q16 -9 33 -9q13 0 27 6q31 13 57.5 34.5t45.5 46.5q76 99 161 357.5t132 488.5q-115 -63 -189 -164q-153 -206 -245 -426q-44 -99 -58 -153q-8 -36 -8 -74q0 -20 2 -41z" />
<glyph unicode="Z" horiz-adv-x="1331" d="M-92 -1242q-1 10 -2 21q0 50 28 115q53 104 111 162q92 98 180 168.5t193 113.5q40 19 104 31q41 88 102 302t66 280q24 159 24 308q0 143 -22 276q-5 37 -15 75.5t-19 63.5t-26.5 68.5t-25.5 66.5q-28 -23 -65 -46t-88.5 -47t-94.5 -28q-9 -1 -17 -1q-34 0 -65 13 q-43 25 -69 69.5t-29 100.5v14q0 88 69 141q59 45 138 45q21 0 43 -3q12 -3 47 -16.5t49 -16.5q89 92 188.5 280.5t166.5 377.5q186 524 186 839q0 32 -2 62q-6 72 -19 126t-29 83t-35.5 48.5t-39.5 23t-40 6.5t-38 -1q-46 -3 -88 -15.5t-83.5 -37.5t-66.5 -42.5t-69 -53 t-59 -47.5q5 -43 5 -86q1 -86 -19 -168q-28 -122 -91 -193q-26 -35 -71 -68.5t-84 -37.5h-12q-45 0 -69 28q-27 32 -32 93q-1 9 -1 17q0 90 85 192q68 79 190 184q50 37 64 59q1 32 -35 114t-64 116q-83 105 -212 127q-25 4 -44 0.5t-36 -2t-25 13.5q-11 19 48 18 q13 0 63 -2q125 -18 214 -118.5t124 -245.5l35 28t48 37t54.5 38.5t64.5 38t67 28.5q39 18 73 20q17 1 36 1q18 1 38 -1q38 -2 75.5 -20t71.5 -49q69 -63 109 -213q34 -125 33 -244q0 -24 -1 -47q-10 -200 -56 -430.5t-104 -399.5q-45 -117 -84.5 -204.5t-77.5 -148.5 t-63.5 -97t-67.5 -87.5t-65 -82.5q102 -206 151 -467q34 -180 34 -340q0 -72 -7 -139q-7 -69 -17 -139.5t-19.5 -123.5t-21 -108t-19 -86t-16 -65.5t-9.5 -38.5q48 -10 59 -11q104 -14 189.5 -43.5t150.5 -68.5t121.5 -96t98.5 -116.5t85 -138.5q8 -16 58 -100t67 -128 q8 -19 8 -31q0 -15 -12 -19q-16 -6 -30 1.5t-27.5 37t-18.5 42.5t-18 55q-6 17 -8 24q-23 66 -129 235q-54 80 -127.5 142.5t-142.5 96t-138.5 54t-115.5 25.5q-29 3 -51 3q-13 0 -23 -1q-29 -81 -33 -95q-23 -81 -48 -151t-44 -111.5t-35 -71.5t-24 -42l-9 -11 q-78 -125 -204.5 -198.5t-225.5 -73.5h-9q-40 -1 -82 15q-46 18 -84 55t-46 95zM-68 -1214q0 -95 62 -122q20 -9 42 -9q47 0 107 38q98 54 273 408q1 3 26.5 58.5t45 104.5t22.5 68q-253 -62 -506 -376q-2 -4 -15.5 -25.5t-20 -33.5t-16.5 -32.5t-14.5 -40t-5.5 -38.5z M146 2282q-4 -16 -5 -30q-1 -16 5 -32q10 -30 38 -49q14 -11 31 -10q18 1 39 11q42 22 76 56q74 68 110 179q27 85 28 178q0 29 -3 59q-15 -12 -65.5 -52t-80.5 -65t-68.5 -64.5t-60.5 -74.5q-15 -24 -25.5 -48.5t-18.5 -57.5zM210 876q2 -66 34 -92q8 -2 17 -2.5t18 2.5 q19 5 42 23t40 33t43.5 46t38 45.5t38.5 47.5q-58 56 -123 56q-7 -1 -14 -1q-73 -6 -111 -61q-23 -29 -22 -90q-1 -3 -1 -7z" />
<glyph unicode="[" horiz-adv-x="798" d="M66.5 2678.5q1.5 238.5 31.5 303.5q11 32 31 55t48 35.5t61.5 19t74.5 7t83 -1t90 -4.5q29 -2 44 -3q17 -2 53.5 -4t55.5 -4q8 0 21 -0.5t20.5 -0.5t17.5 -0.5t16 -2t12 -4t9 -6.5t4 -10q4 -53 -133 -25q-62 11 -131 19t-124.5 10t-63.5 -8q-5 -203 -8.5 -686.5 t-1.5 -1115t27 -1135.5t71 -586q12 -20 60 -29.5t96.5 -8t70.5 8.5q8 2 23.5 9t26.5 11t23 5.5t18.5 -5.5t6.5 -24q0 -18 -15 -26t-52 -15q-115 -16 -262 23q-76 21 -117.5 45.5t-69.5 77.5q-25 46 -43.5 142.5t-28.5 241t-16 290.5t-7 348t-0.5 353t2 366t1.5 331 q0 94 -13.5 429.5t-12 574z" />
<glyph unicode="\" d="M-204.5 2719q0.5 20 11.5 27q12 10 24 -1t29.5 -41t26.5 -42q25 -30 142.5 -230t175.5 -318q29 -57 84 -165q137 -269 198.5 -391.5t153.5 -315.5t138.5 -310t111 -294t116.5 -353.5t113 -407.5q13 -50 20.5 -81.5t15.5 -70.5t9 -62t-1 -44.5t-11.5 -30.5t-26.5 -8 q-8 -1 -16.5 5t-16.5 19t-15.5 27.5t-15.5 37.5t-14 41t-13.5 45.5t-12.5 45.5t-12.5 45.5t-10.5 40.5q-57 205 -118.5 381t-156 393.5t-179.5 400t-257 550t-321 694.5q-5 11 -18 36.5t-28 55t-33.5 67t-34.5 72.5t-29.5 70.5t-21 63.5t-7 48z" />
<glyph unicode="]" horiz-adv-x="819" d="M-16 3058q1 6 4 10t9 6.5t12 4t16 2t17.5 0.5t20.5 0.5t21 0.5q19 2 55.5 4t53.5 4q182 11 232 8q143 -8 187 -87q8 -13 13 -29q30 -65 31.5 -303.5t-12 -574t-13.5 -429.5q0 -116 1.5 -331t2 -366t-0.5 -353t-7 -348t-16 -290.5t-28.5 -241t-43.5 -142.5 q-28 -53 -69.5 -77.5t-117.5 -45.5q-147 -39 -262 -23q-25 5 -36.5 8.5t-21 11.5t-9.5 21q0 17 6.5 24t18.5 5.5t23 -5.5t26.5 -11t23.5 -9q22 -7 70.5 -8.5t96.5 8t60 29.5q46 82 71 586t27 1135.5t-1.5 1115t-8.5 686.5q-8 10 -63.5 8t-124.5 -10t-131 -19 q-137 -28 -133 25z" />
<glyph unicode="^" d="M174 1374.5q0 -11.5 6 -26.5q20 -24 36.5 -27t28 13t19 33.5t15.5 42.5q3 9 4 13q4 13 30 93.5t35 119.5q92 335 211 605q233 -566 350 -807q8 -16 19 -41.5t19.5 -46.5t19 -44t21 -38t22 -25t25.5 -8.5t28 14.5q17 16 20.5 39t-4.5 50.5t-21.5 58t-31.5 66.5 q-2 3 -3.5 5.5t-2.5 5.5q-61 124 -157.5 367.5t-170.5 421.5t-108 211q-18 0 -39 -47q-34 -91 -159.5 -489.5t-152.5 -456.5q-5 -9 -15.5 -23.5t-19 -25.5t-16.5 -26.5t-8 -27z" />
<glyph unicode="_" d="M-2 -256q0 24 104 41q45 6 140 6q2 0 63.5 1t148 2t187 1.5t204 -0.5t175.5 -4l24 -1.5t29 -3.5t33 -7.5t25.5 -11.5t18 -19t-0.5 -27q-4 -14 -54.5 -22.5t-122 -10.5t-158 -1t-156.5 4t-124 5.5t-55 2.5q-118 -1 -212 2t-143 6.5t-54 3.5q-69 0 -72 33z" />
<glyph unicode="`" d="M453 2001q0 68 61 84q7 5 18.5 2t17.5 -5t16.5 -10t15.5 -12.5t14.5 -14l13.5 -13.5l80 -76q39 -36 65.5 -87t10.5 -77q-23 -32 -59.5 -29.5t-80.5 32.5t-82 68.5t-64 77.5t-27 60z" />
<glyph unicode="a" horiz-adv-x="1835" d="M-34 610q-2 23 -2 49q0 59 10 137q14 112 25.5 164t33.5 143q1 6 2 9q60 243 179.5 371t324.5 131h13q99 0 190 -41q97 -44 149 -127q42 -67 52 -122q3 -25 -7 -26q-13 -3 -18.5 7t-8.5 32t-6 31q-48 110 -136 166q-73 46 -155 47q-16 0 -32 -2q-80 -7 -174 -98 t-132 -172q-54 -103 -98 -249t-66 -286q-14 -94 -14 -178q0 -41 4 -80q10 -118 58 -162q20 -13 50.5 3t61.5 48.5t66.5 78.5t63 86t52.5 78q2 3 3 5q50 74 116 210t112 217q45 79 75 79h2q21 0 32.5 -11t26.5 -46q31 -71 31 -165q0 -32 -4 -67q-8 -74 -12 -106t-18 -105 t-42 -190q-4 -16 -13 -53t-15.5 -62t-16 -68t-15 -71.5t-13 -72.5t-9.5 -71.5t-4 -68t2 -61.5q3 -50 17.5 -81t44.5 -53q33 -21 66 -23h7q31 0 67 21q42 23 74 46t87 82t88.5 97.5t103.5 121.5q57 68 88 104q73 97 123 166t103 146.5t82.5 122.5t107 164.5t131.5 201.5 q11 16 28 32.5t23 16.5q7 0 7 -6t-7 -18q-3 -6 -12 -21q-23 -35 -37 -60q-148 -258 -285 -457.5t-303 -406.5q-72 -90 -128.5 -151.5t-120 -116t-117.5 -78.5q-50 -23 -104 -23h-6q-58 2 -111 37q-121 77 -121 323q0 107 23 247q2 14 3 20q17 107 45 250.5t35 185.5 q5 31 7 57.5t0.5 46t-3 31.5t-5 26t-3.5 16q-29 -54 -77.5 -152.5t-85 -164t-79.5 -122.5q-14 -18 -49.5 -72t-56.5 -79q-70 -85 -124 -103q-19 -6 -39 -6q-37 0 -77 21q-62 43 -95 124.5t-39 155.5z" />
<glyph unicode="b" d="M2 1014q12 216 57 440q51 253 192.5 552.5t346.5 602.5q196 289 352 289h4q64 0 106 -30q43 -31 57 -80q12 -40 12 -85q0 -10 -1 -20q-3 -56 -24 -111q-21 -57 -106 -189t-208.5 -285.5t-220.5 -229.5q-55 -43 -110.5 -73.5t-84.5 -40.5l-28 -9q-46 -114 -82 -299 q-40 -187 -58 -367q-14 -140 -13 -254q0 -33 1 -63q5 -136 12.5 -213.5t18.5 -138.5q9 -34 14 -50t17.5 -43.5t31.5 -45t46 -27.5q32 -3 51 1t49 17q200 108 246 295q14 51 16 121q1 25 1 47q-1 39 -3 69q-4 47 -12 146q-61 16 -99 37t-59 63q-10 20 -10 50.5t9 57.5 t32 41.5t55 2.5q27 -9 45.5 -33t25.5 -45t14.5 -56.5t11.5 -47.5q42 -17 73 -17q13 -1 26 -1q41 0 80 8q52 10 83 21t80 32t73 30q60 18 99 21q6 2 18 2l43 2q10 0 10 -10q0 -6 -37 -6q-45 -4 -71 -9q-49 -11 -104 -36t-96 -46.5t-111.5 -39.5t-155.5 -19q15 -101 15 -193 q0 -105 -19 -200q-19 -93 -82 -173.5t-174 -133.5q-41 -20 -83 -26q-20 -3 -40 -3q-24 1 -50 5q-48 8 -95 41.5t-87 92.5q-62 92 -88 268q-17 118 -17 255q1 68 5 139zM354 1784q138 41 234 137q69 69 137 151t110.5 138.5t98 143.5t70 112t57.5 98q25 43 35 88q4 18 4 37 q0 27 -10 57q-16 50 -66 78q-19 4 -35 6q-6 1 -12 1q-9 -1 -19 -3q-16 -4 -26 -5t-24.5 -12.5t-21 -16t-22.5 -23.5t-22 -26.5t-26 -34t-28 -37.5q-67 -87 -127 -190.5t-118 -234.5t-87.5 -203.5t-84.5 -216.5q-11 -30 -17 -44zM549 1126q-1 -34 37 -66q38 -33 90 -42 q-3 7 -7.5 27.5t-9.5 38.5t-12.5 37t-20.5 31.5t-30 14.5q-5 1 -9 1q-15 0 -25 -10q-13 -13 -13 -32z" />
<glyph unicode="c" horiz-adv-x="1187" d="M8 474q-8 76 -9 163q0 90 9 192q9 123 37.5 245.5t75.5 229.5t105 184q58 76 134 110q43 19 86 19q34 0 68 -11q36 -9 74 -56q28 -34 34 -85q2 -17 1 -33q0 -32 -7 -61q-11 -43 -30 -68q-23 -29 -37 -15q-8 8 2 25q44 71 44 130q0 62 -48 111q-18 20 -41 20 q-42 0 -99 -69q-95 -114 -171 -325q-65 -185 -74 -338q-3 -55 -4.5 -88.5t-3.5 -99.5q-2 -41 -2 -73v-37q2 -45 5 -105t12 -101.5t21.5 -82t33 -64.5t46.5 -31q18 -5 36 -4.5t32.5 3t33.5 11.5t31 16t32 22t30 23.5t31 26.5q4 4 81.5 88.5t108.5 110.5q53 45 105 79.5 t89.5 54.5t84 37t72.5 24t72 18t65 16q58 16 85 16q13 0 19 -4q5 -4 5 -9q1 -3 -1 -5q-2 -3 -8 -4q-11 -3 -74 -13t-104 -22q-86 -26 -150 -54t-111.5 -54.5t-105.5 -78t-100.5 -95t-128.5 -134.5q-74 -82 -147 -116q-45 -21 -89 -21q-28 0 -55 8q-71 22 -127 105 q-58 115 -74 269z" />
<glyph unicode="d" horiz-adv-x="1679" d="M41 1139q8 111 20.5 190.5t36 150.5t59.5 115.5t89.5 73.5t126.5 37q22 2 43 2q52 0 102 -12q81 -22 136 -64q43 -33 43 -56q0 -7 -3 -13q-9 -7 -32 28q-32 32 -82 54.5t-88 25.5q-7 1 -13 1q-85 0 -151 -96q-70 -102 -119 -337q-7 -36 -12 -81.5t-7 -101.5q0 -13 -1 -25 q-1 -42 5 -82q6 -52 19 -96t40 -72.5t64 -32.5q40 8 80 29t71 44.5t69 61t62 65t60 70.5q33 229 179.5 707t222.5 589q10 24 49 84.5t99.5 135t107.5 106.5q39 19 70 19h3q32 -1 53 -25.5t30 -60.5q6 -22 5 -50q0 -17 -2 -35q-6 -49 -26 -100q-59 -147 -122 -261.5 t-108 -174.5t-117.5 -152t-119.5 -160q-195 -656 -195 -1249v-12v-21q0 -188 48 -217q109 25 257 141.5t291 282.5q127 151 322 453q3 5 19 36.5t29 44.5t28 7q12 -10 12 -21t-6 -19.5t-18 -25t-19 -28.5q-111 -174 -208.5 -306.5t-210.5 -259.5t-231.5 -213t-238.5 -127 q-35 -9 -67 -9q-43 0 -79 18q-62 31 -79 106q-16 89 -16 282v63q3 242 18 358q-13 -13 -48.5 -44.5t-55.5 -50.5q-37 -32 -54 -45.5t-52.5 -36.5t-69.5 -32q-31 -8 -64 -8h-8q-70 3 -122.5 47.5t-79.5 111.5q-27 68 -38 138q-8 48 -8 94q0 21 2 41zM1014 1733 q229 263 370 585q16 38 29.5 77.5t23.5 82.5q8 36 8 66v12q-2 36 -18 53q-76 -10 -229 -323q-54 -111 -110.5 -279.5t-73.5 -273.5z" />
<glyph unicode="e" horiz-adv-x="1136" d="M10 762q0 162 31.5 298t81 236t131.5 217q76 108 168 175q77 55 146 55q14 0 28 -2q55 -16 85 -43q29 -28 35 -68q2 -13 2 -27q0 -29 -7 -59q-11 -46 -39 -104q-57 -124 -180 -231.5t-254 -147.5q-18 -63 -29 -230q-3 -31 -3 -64v-25q2 -46 3.5 -78t8 -67t10.5 -57 t11.5 -47t11 -36.5t9.5 -26.5t6 -16q48 -104 109 -109q61 0 126.5 26.5t119 64t114.5 97t102 107t93 111.5q58 72 110 143.5t82 117t54 82t36.5 51.5t18.5 13q4 -3 6.5 -7t4.5 -6q1 -1 0.5 -3l-2.5 -10q0 -2 -2 -7.5t-3 -7.5q-26 -46 -119 -178q-79 -114 -150 -205.5 t-153.5 -178t-158.5 -141.5q-74 -56 -156 -85q-61 -22 -118 -22q-19 0 -38 3q-86 12 -147 56.5t-111 130.5q-74 130 -74 305zM244 1106q139 48 252 156t163 247q9 25 13 51q4 21 4 47v12q-1 33 -21.5 58t-60.5 33h-6q-30 0 -68 -39q-42 -43 -84.5 -118.5t-72 -137 t-58.5 -127.5q-3 -7 -13 -31t-15.5 -38.5t-13.5 -36t-12.5 -40.5t-6.5 -36z" />
<glyph unicode="f" horiz-adv-x="819" d="M-465 -103v7q0 30 15 55q16 28 48 44t81.5 16t107.5 -19q68 -19 143 -63q0 537 78 982.5t287 1011.5q59 168 154 367.5t212.5 383.5t208.5 249q29 25 93 46t98 21q114 -2 197 -64q76 -58 76 -141q0 -7 -1 -14q-3 -50 -66 -117.5t-133 -111.5q-68 -43 -97 -43h-3 q-16 11 -16 22q0 15 32 30q14 6 46 18q38 14 53 22q20 11 49 36t59 65.5t41 81.5q4 11 4 23q0 29 -21 60q-29 43 -105 72q-20 8 -43 8q-46 0 -105 -31q-89 -45 -149 -141q-62 -97 -151 -293t-171 -414q-213 -561 -351 -1192q-120 -555 -120 -950q0 -55 2 -106q16 -22 30 -53 t23 -46q130 20 239 55.5t234 96.5q2 1 10 7t14.5 9.5t17.5 8.5t20.5 4.5t23.5 -2.5q14 -5 25 -19t6 -26q-10 -13 -29 -13q-12 -2 -43 -2q-40 -4 -98 -24q-16 -5 -61 -24t-123 -44t-211 -61q84 -153 130 -309q41 -142 41 -269q0 -12 -1 -25q-4 -137 -66 -215q-19 -23 -56 -23 h-2q-39 1 -73 23q-52 40 -99.5 166t-59.5 209q-41 285 -41 418q-95 8 -182 32t-126 56q-45 36 -69.5 75.5t-26.5 73.5zM-347 -100.5q0 -38.5 32 -73.5q77 -80 252 -127l-7 197q-57 41 -100.5 63t-95.5 27q-33 0 -57 -24t-24 -62.5zM70 -233v-58l43 4zM88 -330q-1 -5 -1 -22 q0 -24 3 -74q4 -82 11 -171t14.5 -174t7.5 -91q12 -78 39 -158t53 -94q28 9 49 56t28 126q3 32 3 67q0 50 -6 105q-10 94 -50 211t-106 227q-12 -1 -22.5 -4t-22.5 -4z" />
<glyph unicode="g" horiz-adv-x="1331" d="M17 1153q9 130 46.5 251.5t92.5 180.5q73 79 178 121q95 37 176 37q10 0 20 -1q90 -5 132 -50q61 -67 61 -144v-6v-6v-5.5t-0.5 -5.5t-1 -4.5t-1.5 -4l-2 -3t-3 -2t-4 -0.5q-13 0 -13 19q-6 149 -110 168q-10 2 -20 2q-48 0 -104 -42q-67 -50 -121.5 -131.5t-95.5 -176.5 t-52 -172q-16 -117 -16 -203q0 -163 57 -215q18 -12 43 -12q28 0 65 15q70 28 137 81.5t115 111.5q160 192 222.5 276t135.5 212q15 15 38 7t28 -28q30 -125 30 -311q0 -146 -18 -328q-14 -143 -64 -486t-87 -521q29 6 102 23t119 24q13 4 18 -6q1 -2 1 -5q0 -6 -9 -12 l-51 -18q-45 -13 -184 -47q-23 -99 -41 -201t-25.5 -145.5t-26.5 -90t-53 -87.5q-57 -56 -121 -59h-7q-59 0 -100 43q-44 45 -50 120v19q0 128 86 250q93 131 215 165q54 488 59 559q44 489 90 967q-4 -4 -77 -97t-147.5 -186.5t-84.5 -103.5q-91 -86 -148.5 -125.5 t-144.5 -63.5q-32 -4 -59 -4q-68 0 -105 29q-69 55 -99 177q-23 93 -23 191q0 30 2 60zM502 -615q-5 -26 -5 -52q0 -28 5 -55q10 -50 43 -66q34 -17 63 -17q32 0 58 21q48 39 59 104q27 375 27 389q-70 -21 -133 -85t-89 -132q-20 -51 -28 -107z" />
<glyph unicode="h" horiz-adv-x="1638" d="M-51 438q25 257 78 641t84 545q56 293 149.5 555t163.5 330q30 29 56 49t60 36t66 16q1 0 2 -1q32 -1 68 -17q38 -18 74 -55q22 -23 29 -51t-2.5 -61t-24 -63.5t-44.5 -73t-54 -73.5t-63.5 -80t-62.5 -79q-15 -20 -78 -105t-116 -153.5t-88 -105.5q-8 -30 -27 -184.5 t-36.5 -294.5t-20.5 -144q44 54 86.5 98t80 79.5t48.5 47.5q68 72 196 122q76 30 130 30q36 0 61 -14q172 -95 172 -334q0 -23 -2 -47q-3 -40 -42 -179t-86 -289.5t-50 -162.5q-28 -112 -44 -216q-11 -73 -12 -148q0 -32 2 -64q6 -109 46 -168q4 -1 9 -1q25 -1 65 37 q48 44 110 130t121.5 174.5t134 200.5t123.5 178l137 200q76 113 260 363q2 2 8.5 14t13 16t15.5 -1q3 -2 3 -8q0 -23 -52 -101q-66 -100 -194.5 -272t-168.5 -230q-61 -88 -140 -204.5t-127.5 -188t-100 -144t-88 -114t-62.5 -57.5q-19 -18 -55 -23q-9 -1 -18 -1 q-26 0 -56 10q-40 14 -63 46q-64 89 -64 267q0 269 146 743q11 34 60 156.5t52 146.5q7 29 7 66q0 28 -4 61q-9 76 -40 107q-34 19 -78 19h-8q-50 -2 -113.5 -33t-130 -80.5t-139 -123.5t-139.5 -163q-7 -204 -21 -355.5t-28 -189.5q0 -1 -2 -10.5t-6 -19.5t-12 -21.5 t-24.5 -20.5t-39.5 -12q-55 7 -74 17q-16 8 -16 29v7zM262 1776q48 66 104 140t92.5 120.5t98.5 124t84 106.5q27 35 44.5 62t38.5 69q19 37 19 69q-1 3 -1 7q-2 36 -29 61q-18 16 -43 18h-8q-22 0 -46 -9q-28 -11 -60 -37t-61.5 -62.5t-58 -88t-49.5 -111.5 q-88 -251 -125 -469z" />
<glyph unicode="i" horiz-adv-x="1249" d="M-76 402q8 241 82 489q24 78 90 389q1 6 4.5 34.5t8.5 58.5t11 61t15 51t19 20q41 0 76.5 -61.5t50.5 -148.5q9 -50 9 -95q0 -33 -5 -63q-19 -117 -52 -217q-51 -166 -85 -334t-47 -300q-9 -90 -9 -162q0 -34 2 -64q6 -94 33 -123q19 -19 53 -19q15 0 33 4 q59 15 135.5 66t126 94t125.5 115q143 137 395 454q110 138 201 268t120.5 172t39.5 35q6 -6 8 -12q2 -5 3 -10q-1 -7 -3 -15q-2 -6 -7 -15t-9 -15l-12 -18t-13 -19q-69 -106 -231.5 -309t-264.5 -320q-6 -7 -56.5 -65t-64 -73.5t-61.5 -67t-72 -72.5t-70 -61t-80 -61.5 t-79 -45.5t-88 -39q-45 -16 -86 -16t-79 16q-76 32 -114 117q-54 120 -54 323q0 26 1 54zM234 1850q0 44 5 77t15 92q1 7 3.5 18t3.5 15.5t3.5 11.5t5.5 10t8 6.5t12 5t17 1.5q19 0 31 -53q34 -132 37 -242q1 -12 1 -23q0 -75 -38 -75q-66 3 -96 80q-8 30 -8 71v5z" />
<glyph unicode="j" horiz-adv-x="614" d="M-485 -688q-3 28 -3 54q0 90 34 176q43 111 126 190q27 26 43 39.5t61 48t103 66t127 57.5q5 23 5 281q0 111 -1 264q-2 385 -2 538v76q0 104 12 192.5t29 108.5q3 2 6 3.5t6 1.5h4.5t4.5 -1.5l4 -2t5.5 -3.5t6.5 -4q31 -21 61 -63.5t46 -94.5q4 -14 6.5 -55t2.5 -92 t-0.5 -97t-1.5 -84.5t-1 -40.5q-8 -656 -11 -874q27 9 106.5 31t121.5 36q41 13 65 16.5t30.5 0t6.5 -9.5q0 -10 -59 -29q-136 -46 -264 -100q-1 -7 -5.5 -93t-11.5 -161.5t-20 -175.5t-35.5 -188.5t-52.5 -147.5q-94 -172 -230 -172q-64 0 -125.5 31.5t-107.5 80.5 q-79 80 -92 197zM-452 -598q-2 -22 -2 -42q0 -73 22 -120q52 -116 158 -147q18 -5 36 -5q52 0 94 45q55 60 86.5 180t47 264t16.5 310q-283 -83 -412 -313q-39 -70 -46 -172zM-49 1909q0 56 43 132q38 69 76 69q4 0 8 -1q28 -8 38 -74q4 -28 4 -58q0 -42 -8 -89 q-13 -80 -42 -123q-7 -12 -30 -12q-5 0 -12 1q-32 3 -44 18q-16 22 -23 51.5t-10 85.5z" />
<glyph unicode="k" horiz-adv-x="1126" d="M-144 150q-2 6 -3 13q0 8 3 17q5 18 11.5 34.5t16.5 37.5l3 6q29 67 88.5 296.5t77.5 338.5q148 943 148 1280q-56 7 -100.5 33.5t-73 66.5t-49 85t-32 98.5t-18 96.5t-11.5 89q0 4 -0.5 6.5t-0.5 5.5q-1 7 -3 16t-3 14t-1.5 10t2 7t7.5 2q19 0 30 -34t14.5 -85.5 t16.5 -113t33.5 -115t69 -93.5t119.5 -48q21 261 65 479q36 134 106.5 219t157.5 92q11 1 21 1q65 -1 119 -39q62 -44 61 -130q1 -8 1 -18q0 -52 -20 -144q-22 -108 -48 -167q-8 -15 -33.5 -65.5t-36.5 -70t-35.5 -58.5t-43.5 -59t-47 -42.5t-58 -34.5q0 -3 -12.5 -109.5 t-26.5 -242.5t-19 -221q12 8 63.5 41.5t79 49t80 37.5t105.5 33q28 4 59 5h4q29 0 62 -13q35 -14 59 -41q48 -56 52 -126q1 -8 1 -15q-1 -61 -31 -119q-34 -65 -104.5 -122.5t-165.5 -92.5q-51 -19 -146 -38.5t-120 -26.5q160 -89 242 -222q36 -64 58.5 -122t33.5 -103 q12 -45 14 -113q2 -48 1 -87v-30q-1 -50 -4.5 -153.5t-4.5 -185.5q-6 -117 -6 -229q0 -203 19 -391q29 -292 104 -493t184 -237q25 -9 45.5 -9t36.5 9q14 8 22 31t13 35t16 0q6 -9 6 -20q0 -20 -22 -43q-34 -36 -72 -36h-9q-120 1 -219 151q-102 156 -175 456 q-39 208 -55 400q-15 171 -15 294v28q2 104 2 226q-1 30 -1 62q0 156 -7 294q-10 159 -68.5 265t-207.5 192q-2 -12 -34.5 -176t-43.5 -230q-67 -338 -131 -456q-30 -66 -88 -110q-51 -39 -97 -39q-6 0 -12 1q-15 3 -19 15zM297 1204q140 13 280.5 62.5t215.5 124.5 q57 57 75 123q11 40 10 72q0 20 -4 38q-11 45 -36 72q-24 26 -71 34q-23 4 -43 3q-22 0 -40 -4q-72 -8 -194.5 -88t-155.5 -119q-1 -8 -7 -59t-15 -126t-15 -133zM416 2226q74 40 143 158t107 246q33 113 33 191q0 10 -1 20q0 35 -28 78.5t-70 50.5q-8 1 -15 1 q-23 0 -45 -12q-28 -16 -46.5 -55t-32.5 -81t-22 -110.5t-13 -118.5t-7 -130.5t-2.5 -122t-0.5 -115.5z" />
<glyph unicode="l" horiz-adv-x="1576" d="M59 1234q21 390 111 857q53 275 135 479t217 436q34 59 78.5 124t105.5 141q62 75 126 121q57 40 102 41q6 0 12 -1q67 -13 104 -54.5t44 -95.5q3 -21 3 -44q1 -38 -7 -81q-12 -70 -33.5 -132t-51.5 -128t-49.5 -102.5t-35.5 -64.5q-222 -344 -500 -604 q-46 -229 -84 -628q-32 -344 -31 -636v-92q1 -64 2 -96t3.5 -100t6.5 -108.5t10.5 -106t16.5 -109.5t23.5 -101.5t32 -99t41.5 -85.5t53 -78t65 -60q55 -40 122 -42h6q65 0 129 32q68 32 136 85t130.5 121.5t114.5 137.5t91 137q12 22 49.5 91.5t54.5 102.5t50 100t65 140 q28 53 67.5 160t66.5 166q22 49 39 49q3 0 6 -2q10 -6 12 -16q1 -3 1 -6q-1 -9 -5 -22q-6 -18 -12.5 -35t-18 -44t-18.5 -45q-8 -24 -30 -73t-58.5 -122t-64 -126.5t-72 -140.5t-56.5 -109q-90 -175 -194 -309t-217 -215t-225 -102q-31 -6 -61 -6q-79 1 -159 41 q-110 56 -201 189q-149 217 -209 549q-45 246 -44 525q0 96 5 197zM446 2214q108 102 226 251t211 304q90 151 141 289q43 115 43 194q0 15 -2 29q-5 49 -39 82q-32 31 -64 31h-4q-55 -2 -145 -187l-57 -114t-63.5 -129.5t-58 -133t-65.5 -171.5t-59 -194.5t-64 -250.5z" />
<glyph unicode="m" horiz-adv-x="1597" d="M-78 530q3 35 29 167.5t59 238.5q6 20 46 150t54.5 181.5t39.5 148.5q24 98 30 158q3 29 4 53q0 27 -4 48q-11 68 -49.5 143t-85.5 119q-11 11 -8 15q10 9 25 9q2 -1 4 -1q18 -2 49.5 -31t68.5 -82q33 -48 52.5 -81.5t42.5 -90.5t32 -113q8 -48 8 -114q-1 -10 -1 -22 q-2 -80 -19 -173q35 27 88.5 82.5t106.5 102t110 75.5q32 18 62.5 19t51 -10.5t33.5 -23.5t19 -23q40 -70 58 -142t18 -119t-4 -120q-4 -60 -4 -96v-15q26 39 45 66.5t48.5 64t55 59t59.5 43t66 25.5q12 2 25 2q21 0 43 -5q38 -8 75 -34q49 -33 49 -174q0 -128 -40 -346 q-86 -420 -88 -571q-1 -51 0 -95q0 -66 1 -120q3 -88 13.5 -174.5t34 -135t61.5 -59.5q21 0 36 25t23 49.5t13 23.5q10 -5 12 -20q1 -4 1 -9q0 -12 -4 -26q-5 -20 -14.5 -38.5t-25 -32.5t-31.5 -17q-7 -1 -14 -1q-39 0 -72 19q-39 22 -64.5 64t-44 86t-29 98.5t-15.5 85.5 t-8 62q-11 113 -11 210q0 50 2 94q8 134 45 304q12 55 47 181q35 125 52 219q13 72 13 138q0 19 -1 37q-5 56 -18.5 86t-44.5 27q-34 0 -70 -20.5t-62.5 -45.5t-64 -75.5t-55.5 -79t-56 -88.5q-7 -61 -24 -170t-31 -238q-8 -31 -51 -39q-15 -3 -27 -2q-23 0 -37 10 q-17 10 -20 30q-1 8 -1 20q0 21 3 57q16 196 61 426q32 165 35 236q1 17 1 34q0 77 -15 156q-20 73 -70 80q-23 3 -53.5 -14t-52 -36t-68.5 -63q-54 -49 -116.5 -113.5t-69.5 -78.5l-92 -349q-12 -43 -31.5 -119.5t-31.5 -120.5t-28 -93t-29 -72t-26 -23q-74 6 -101.5 31 t-27.5 96z" />
<glyph unicode="n" horiz-adv-x="1454" d="M6 711q-1 26 -1 59q0 44 1 100l23 375l51 590q5 23 58 24h4q50 0 61 -26q7 -16 13 -31.5t8.5 -32t4.5 -27.5t3 -30t1 -26.5v-29.5v-28q0 -85 -11 -266.5t-11 -196.5q22 12 67 53t52 46q6 4 33.5 26t42 32t45.5 26.5t56 22t60 4.5t70 -13q68 -23 90 -74q32 -74 49 -154 q18 -78 20 -172q1 -40 0 -74q0 -44 -1 -77q-2 -57 -12.5 -164t-12.5 -135q-25 -261 -25 -437q0 -128 13 -212q14 -3 42.5 24t74.5 88.5t70 96t73 106.5q76 140 235 389.5t277 476.5l10 19q2 3 5 11.5t5.5 14t7 11.5t9.5 8t12 0q5 -4 7 -10v-4q0 -5 -2 -11q-3 -10 -6 -17 t-10.5 -22.5t-11.5 -23.5q-30 -79 -81 -154q-178 -331 -414 -673q-211 -360 -320 -379q-4 -2 -10 -2q-5 0 -11 2q-14 2 -21 3.5t-21.5 6t-22.5 6.5q-14 9 -24.5 22t-16.5 21t-11.5 28.5t-7 26t-6 33t-5.5 31.5q-7 67 -7 151q0 71 5 155q11 183 32 312q10 59 39 178 q29 120 40 214q5 45 5 93q0 53 -6 109q-2 17 -10 38t-24 45q-15 25 -45 39q-25 12 -55 12q-6 0 -13 -1q-43 -4 -97.5 -41t-128.5 -102.5t-110 -91.5q-1 -16 -2 -73t-5.5 -119t-13.5 -132q-1 -4 -5.5 -38t-9 -62t-14 -67.5t-21 -66.5t-29 -47t-37.5 -20q-28 0 -43 11.5 t-15 29.5q0 13 -3 73t-5 120z" />
<glyph unicode="o" horiz-adv-x="1064" d="M14 1020q0 11 -1 23q0 98 20 167q16 64 40 123.5t59 119t84.5 99t107.5 47.5q9 1 21 1q27 0 63 -6q52 -10 81 -23q34 -14 62.5 -35t17.5 -31q-13 -6 -27 5.5t-36.5 29t-50.5 21.5q-35 1 -63 -7t-49.5 -27t-31 -30t-26.5 -35q-19 -27 -56 -127.5t-49 -197.5 q-20 -151 -22 -283v-32q0 -107 12 -156q2 -10 8.5 -37t10 -41.5t11 -40.5t14.5 -42t18 -37.5t23 -35t28.5 -27t35.5 -20.5q16 -6 53.5 4t63.5 31q66 43 125 122t102 175.5t75 209t47 222.5q15 109 15 215q0 3 1 7q0 102 -17 183q-57 6 -89 14.5t-68 26.5q-43 23 -79 69 q-34 42 -34 81v6q3 49 68 49h8q159 -25 217 -198h8q64 0 98 61q8 14 13 33t7 34t4.5 28.5t8.5 19.5t17 4q16 -6 17 -34q0 -8 -2 -18q-6 -44 -28 -81q-42 -74 -129 -88q23 -84 23 -197q2 -34 2 -69q0 -135 -34 -281q-42 -184 -115.5 -330t-173.5 -241q-98 -93 -193 -93h-4 q-44 2 -87 23t-73 57q-46 55 -82 156.5t-52 211.5t-18 222zM570 1729q0 -35 48 -74q67 -55 158 -56q-13 51 -58.5 104.5t-90.5 57.5q-8 1 -15 1q-42 0 -42 -33z" />
<glyph unicode="p" horiz-adv-x="1576" d="M-332 -893q0 43 7 91.5t19 99.5t31.5 111.5t40.5 119t49 129.5t54.5 136t60.5 146q25 59 37 89q7 15 30.5 67.5t41.5 89.5q13 92 39 867l16 413q3 141 18.5 211t51.5 103q29 15 59 15l13 -1q17 -5 29 -15t15 -17l3 -7q9 -16 14.5 -40t6.5 -63q1 -27 1 -50q0 -12 -1 -22 q0 -33 -5.5 -96.5t-9.5 -102.5t-13 -124.5t-14 -130.5q-12 -104 -24 -206.5t-16.5 -140.5t-6.5 -56q40 120 79 214.5t86.5 178.5t103 137.5t114.5 69.5q22 6 45 6q55 0 109 -37q76 -52 122 -141q61 -116 78 -297q206 19 355 55q78 19 148 47t102.5 45t91.5 52q14 8 55 41 q10 10 31 8q19 -2 19 -9q0 -3 -4 -7q-2 -3 -32 -29q-130 -102 -305 -158q-101 -34 -461 -92q1 -30 1 -58q0 -163 -44 -262q-39 -88 -120 -132q-49 -27 -111 -27q-41 0 -88 12q-104 26 -156 120q-29 55 -29 106q0 37 15 73q36 79 127.5 123.5t234.5 68.5q0 259 -24 328 q-33 88 -82 107q-15 6 -32 6q-38 0 -85 -29q-155 -89 -256 -385l-94 -272q0 -433 -15.5 -701t-41.5 -414t-78 -327q-26 -90 -53.5 -137t-79.5 -92q-36 -32 -99 -35q-72 0 -111.5 35t-54.5 112q-8 37 -8 80zM-292 -914v-7q0 -44 6 -81q7 -41 28.5 -63t56.5 -22q54 3 99 122 t71 310q14 96 29 272l6 59l10 94l23 207q3 33 3 64.5t-3 62.5q-14 -32 -42.5 -97.5t-40 -92.5t-33 -76.5t-32 -75.5t-25 -62t-24 -63.5t-18.5 -54.5q-12 -35 -23 -71t-28 -94.5t-28.5 -110.5t-22.5 -112t-12 -108zM446 504q17 -51 72 -103q42 -39 90 -41q3 -1 6 -1 q43 0 66 30q44 68 70 168.5t32 165.5q5 44 5 60q0 7 -1 8q-108 -3 -213 -66q-44 -25 -75.5 -56.5t-49.5 -72.5q-10 -22 -10 -46q0 -22 8 -46z" />
<glyph unicode="q" d="M-4 950v34q0 76 12 154q16 96 49 189q45 130 134.5 237t208.5 166q95 49 190 49q23 0 45 -3q61 -7 105 -73q33 -50 33 -125q0 -24 -3 -50q-1 -11 -3 -19t-3.5 -12t-4.5 -6t-4 -2.5t-4 -0.5l-3 1q-5 2 -5.5 9.5t2.5 22.5t3 17q1 13 1 26q0 46 -16 93q-12 32 -31.5 52 t-37 28t-46 7t-43 -3.5t-43.5 -9.5q-70 -19 -134.5 -115t-114.5 -225q-41 -104 -69.5 -218t-39.5 -220q-4 -35 -4 -66q0 -64 16 -114q22 -74 80 -85q18 -3 48 5.5t68 28t74 40t81.5 50t74 48.5t67 45.5t46.5 32.5q3 24 36.5 175t41.5 175q8 35 22.5 55t44.5 33q6 2 12 2 q31 0 68 -37q12 -18 14 -51v-15q0 -24 -4 -44q-4 -27 -12 -65t-10 -48q-52 -207 -90 -426.5t-76 -503.5t-57 -405q100 -45 156 -155t63 -241q2 -29 2 -58q0 -103 -20 -206q-24 -133 -76 -235q-59 -111 -109 -158q-51 -49 -102 -53q-43 0 -73.5 23.5t-46.5 63.5t-21 88 q-4 30 -4 64q0 18 1 37q2 25 9 89.5t15 133t9 76.5q12 108 29.5 241t29.5 216.5t13 83.5q-116 57 -249 57q-35 0 -71 -4q-43 -4 -75 -30.5t-47 -61.5q-13 -34 -13 -72v-6q1 -41 19 -75q30 -54 104 -72q9 -2 29.5 -2t33 -2.5t11.5 -11.5q-3 -16 -36 -16q-18 0 -46 5 q-46 9 -86 45.5t-51 77.5t-11 76q0 52 24 93q39 69 124 87q40 8 84 8q116 0 262 -57q21 165 58 485.5t73 585.5q-184 -153 -219 -176q-108 -72 -196 -86q-20 -3 -40 -3q-68 0 -137 36q-65 37 -100 111t-39 165zM612 -1122q-1 -14 -1 -26q0 -57 9 -82q12 -31 37 -38 q26 0 68 49t66 99q52 103 80 230q27 122 27 239v13q-2 124 -50.5 227.5t-140.5 148.5q-11 -69 -56 -447q-20 -166 -28.5 -250.5t-10.5 -162.5z" />
<glyph unicode="r" horiz-adv-x="1536" d="M11 1392q27 160 120 238q41 36 97 40q8 1 15 0q46 0 83 -23q43 -27 49 -76l2 -20q0 -43 -20 -91q-24 -60 -56 -106.5t-75.5 -108t-63.5 -98.5q8 -9 31 -23.5t36 -17.5q23 -5 47 -6q96 0 218 82q49 33 78.5 49.5t63 26.5t57.5 0.5t50 -36t52 -75.5q15 -28 26 -63.5 t15 -85.5q1 -11 1 -21q0 -37 -12 -68q-23 -67 -183.5 -462t-188.5 -484q-15 -49 -17 -97q0 -3 -1 -6q0 -45 20 -87q21 -45 65 -64q7 -2 16 -2q36 0 102 40q82 50 128 101q69 75 161 200t183.5 265t163.5 254t138.5 223t70.5 115q11 17 30 50t33.5 57.5t31 49.5t28 38 t18.5 12q8 -5 8 -14q0 -5 -2 -11q-5 -10 -19 -31l-14 -22q-93 -174 -215 -376t-257.5 -405.5t-263.5 -355t-208 -190.5q-69 -35 -137 -35q-66 0 -116.5 47.5t-59.5 118.5q-4 30 -4 64q0 148 74 370q36 109 114 332t130 375t57 184q7 36 -16 54t-40 14q-8 -2 -31.5 -16 t-46 -28.5t-55.5 -36.5l-45 -30q-78 -54 -167 -74q-44 -10 -84 -10q-42 0 -80 11q-74 21 -103 83q-40 70 -40 167q0 45 8 95zM104 1284q2 -76 35 -110q32 54 95 145q62 91 90 143q24 46 25 82q0 5 -1 10q-4 40 -32 66q-23 21 -50 21q-5 0 -10 -1q-38 -6 -76 -66 q-37 -62 -58 -138q-19 -68 -18 -136v-16z" />
<glyph unicode="s" horiz-adv-x="1474" d="M0 1307q-4 39 -4 73q0 38 5 70q10 62 42 141q12 28 31 54.5t48.5 53.5t65 42t81.5 19q9 1 19 2q38 0 79 -15q26 -8 38.5 -12.5t28.5 -17t23 -29.5q13 -28 13 -63q0 -115 -140 -306q-17 -23 -39 -50t-46.5 -57t-35.5 -43q24 -69 61.5 -178.5t54.5 -159t43 -129.5 t48.5 -154.5t48.5 -168.5q8 5 31 22.5t89.5 61.5t174.5 110q179 102 377 229t297 202q22 17 41 35t31 31.5t22 26t16.5 20t12 12t10.5 3.5t10 -8q8 -7 8 -15q-1 -4 -3 -9q-4 -7 -7.5 -13.5t-12.5 -15.5t-16.5 -15t-19.5 -17t-19 -17q-170 -148 -342 -250 q-372 -223 -497 -305t-185 -135q102 -361 102 -548q0 -83 -20 -132q-21 -52 -76 -88.5t-119 -44.5q-18 -2 -37 -2l-91 14q-65 22 -115 69.5t-74 113.5q-20 56 -20 119q1 12 1 23q4 75 52.5 161.5t138.5 164.5q3 2 49 44t58 53q-27 118 -82 272t-104.5 273.5t-92.5 254 t-53 228.5zM68 -142q-1 -16 -1 -31q0 -49 14 -95q19 -60 59.5 -102t94.5 -66q52 -23 108 -23h5q96 14 105 105q2 29 2 59q-1 116 -31 251q-38 170 -80 277q-73 -53 -98 -75q-82 -75 -127 -154.5t-51 -145.5zM188 1282q4 -45 13 -82q6 7 41 49.5t45.5 56t39.5 51.5t41 59.5 t30 55t27.5 64t14.5 61.5q2 15 2 28q0 22 -6 42q-10 31 -27 43q-11 7 -20 7q-6 0 -12 -3q-64 -32 -107 -87.5t-60 -112.5q-18 -57 -22 -122q-2 -32 -2 -60t2 -50z" />
<glyph unicode="t" horiz-adv-x="1085" d="M-235 1992q4 20 14 46q26 -4 22 -35q-6 -26 -5 -48q0 -49 26 -79q39 -44 119 -43q119 0 243 47q8 39 20.5 105.5t20.5 105.5q35 165 129 389q14 14 31 14t35 -14q4 -4 18.5 -15t18.5 -14.5t13.5 -12.5t13.5 -15.5t9.5 -16t8.5 -20.5q6 -18 6 -48q0 -52 -19 -142 q-30 -142 -73 -267q102 19 276 109q161 83 463 184q69 23 168.5 45t215.5 38q66 9 127 9q46 0 88 -5q98 -12 136 -56q19 -22 19 -45q0 -21 -27.5 -29t-36.5 6q-5 12 1 19t16 9t15.5 9.5t-1.5 22.5q-9 22 -51 32q-43 13 -102 13q-17 0 -37 -1q-82 -5 -169.5 -22.5 t-209.5 -52.5q-79 -23 -140.5 -43.5t-129 -50t-102.5 -46t-128.5 -63t-140.5 -69.5q-100 -49 -271 -97q-110 -496 -133 -616q-88 -458 -88 -831q0 -48 1 -96q5 -187 32 -374q22 -148 46 -213q37 -99 101 -131q11 -5 23 -5q21 1 45 17q36 26 67 74.5t51 87.5t33 72q2 5 22 54 t37 92.5t40.5 107t46 132.5t39.5 134q3 9 7 27.5t8 33t9.5 29.5t13.5 22.5t17 6.5q6 0 6 -16q0 -29 -21 -112q-33 -128 -79 -259q-19 -56 -26 -75.5t-25 -70.5t-27 -72t-26.5 -63.5t-29 -62.5t-29.5 -52t-33 -48.5t-34 -36t-38.5 -30t-40.5 -15.5q-18 -3 -35 -3 q-73 -1 -129 55q-70 68 -115 187q-47 122 -75 255q-26 132 -34 271q-5 91 -5 183q0 49 1 100q4 144 21.5 306t39 321.5t49.5 349.5q21 142 32 215q-11 -1 -44.5 -5.5t-49.5 -6.5t-48 -4t-50.5 0t-46 7t-46 15t-39 26t-35.5 38q-25 35 -33 70q-5 23 -4 39q0 10 1 17z" />
<glyph unicode="u" horiz-adv-x="1208" d="M12 704q0 63 4 123q6 62 54 348.5t69 389.5q11 55 33 207q3 5 8 5q11 0 33 -20q52 -70 76 -133q25 -64 27 -122v-16q0 -53 -14 -129q-16 -88 -36.5 -177t-50 -249t-49.5 -329q-8 -69 -8 -121q0 -128 49 -153q26 -6 52.5 7.5t50 44t40 58.5t35.5 66q203 485 285 614 q92 194 104 217q18 22 42 -3t95 -126q19 -24 25 -74q3 -24 2 -54q0 -32 -3 -72q-6 -76 -15.5 -150.5t-24.5 -188t-23 -198.5q-28 -298 -28 -582q0 -190 61 -223q16 -1 23 6t7 17t7 18t23 8q8 -8 8 -22q0 -5 -2 -13q-5 -24 -33 -44q-21 -16 -44 -16q-7 0 -13 1 q-36 7 -60 34.5t-51 88.5q-59 130 -72 321q-2 35 -3 111v25q1 71 5 181q6 130 19 218q2 12 8.5 52.5t10.5 67.5t12 78.5t12.5 84.5t11.5 85.5t9.5 82.5t7 75t3.5 62t-1 45q-24 -27 -112.5 -187.5t-109.5 -205.5q-26 -57 -62 -138.5t-61.5 -139t-29.5 -66.5q-22 -41 -37 -67 t-36 -56.5t-38.5 -46.5t-41 -29t-46.5 -12t-52 12.5t-61 36.5q-36 32 -58.5 95t-29 138.5t-6.5 138.5z" />
<glyph unicode="v" horiz-adv-x="1536" d="M38 1125q6 19 23 27.5t41 8.5q30 0 63 -51.5t50 -103.5q47 -144 47 -295q0 -112 -12 -280.5t-20 -278.5q-3 -48 -3 -94q-1 -62 5 -122q10 -106 49 -151q21 -25 49 -25q31 0 70 30q75 58 149 198q30 58 147 358t146 402q-38 35 -68.5 82.5t-30.5 89.5q1 55 35 81 q26 19 52 19q9 0 18 -2q48 -10 58 -86q3 -21 3 -43q0 -56 -18 -113q8 -4 23 -10q16 -6 62 -14q36 -7 72 -6h22q48 2 115.5 25.5t131.5 68.5q14 10 105 92q92 82 170 146q66 54 82 54q3 0 5 -2q8 -5 8 -11q-1 -5 -7 -10q-6 -6 -14.5 -12t-22 -16t-23.5 -20q-15 -15 -69.5 -62 t-90.5 -81q-3 -3 -11 -10q-24 -23 -41 -37.5t-55.5 -43t-71.5 -46.5t-83 -38t-98 -27q-32 -5 -70 -5q-18 -1 -38 1q-60 4 -120 23q-51 -177 -132 -389.5t-142 -345.5q-31 -67 -65 -121.5t-60.5 -85t-52.5 -52.5t-39 -29.5t-21 -10.5q-22 -9 -46 -13q-11 -2 -24 -3 q-14 0 -30 3q-30 5 -55 23t-47 60.5t-33 105.5q-12 71 -13 186v35q0 96 4 184q6 104 12.5 234.5t6.5 204.5q-17 241 -84 356q-14 22 -14 39q0 5 1 9zM811 920q3 -26 11 -52t18.5 -45t17.5 -24q19 78 19 125q0 24 -5 41q0 1 -1.5 4.5t-2 5t-2 4.5t-3 4.5t-3.5 3t-4.5 2 t-5.5 0.5q-22 -5 -32 -25q-7 -15 -8 -33q0 -5 1 -11z" />
<glyph unicode="w" horiz-adv-x="1607" d="M37 1018v52q0 117 7 228q9 135 20 207.5t25.5 150t16.5 89.5l27 151l3 8q2 7 7 18t11 20.5t14 14.5q5 3 10 3q4 0 8 -2q15 -6 32 -28.5t35.5 -68t23.5 -113.5q2 -22 2 -48q0 -51 -7 -115q-35 -269 -53 -504q-15 -188 -14 -285q0 -75 8 -96q28 -78 70 -78q46 0 108 97 q21 33 72 170.5t69 206.5q17 72 65.5 178.5t78.5 122.5q8 1 21.5 0t31.5 -16t34 -35.5t28 -59t14 -86.5v-20q-1 -78 -19 -270q-13 -136 -13 -227q0 -55 5 -93q34 -314 72 -344q10 -7 22 -7.5t28 8.5t32.5 29t36.5 59.5t39 94.5q47 136 98.5 425.5t62.5 447.5q16 197 15 219 q-72 25 -97 94q-12 30 -10.5 55.5t12.5 40t26 24.5t30 8.5t24 -7.5q14 -11 23.5 -23.5t19 -46.5t13.5 -86q18 -6 41 -6h18q96 -1 219 37q134 42 228 129q3 4 7.5 8t17.5 12t20 0q6 -3 6 -8q0 -7 -10 -19q-18 -20 -54 -48l-24 -20q-25 -20 -41.5 -31.5t-51 -34t-69.5 -36 t-80 -28.5t-98 -21q-40 -5 -81 -5q-14 0 -28 1h-18q0 -30 -17 -208q-17 -179 -42.5 -330.5t-45 -234.5t-55.5 -220q-9 -35 -17 -62.5t-18 -57.5t-19.5 -52.5t-21 -45.5t-24 -39t-27.5 -30.5t-32 -22.5q-16 -9 -36 -14q-18 -5 -39 -5q-2 1 -4 1q-23 0 -49 5q-50 11 -88.5 74 t-58 149t-32.5 186q-13 96 -13 177v7q0 84 2 142q3 50 8.5 99.5t10.5 80t8.5 55.5t3.5 36t-5 11q-8 0 -17 -19t-21 -57.5t-17 -50.5q0 -1 -19 -66.5t-42 -128.5t-55 -136t-72 -119t-80 -47q-36 -1 -58.5 0.5t-52 9.5t-47.5 25t-38 48.5t-31 77t-19 113.5t-10 156zM1126 1683 q0 -16 13 -41.5t43 -42.5q-6 66 -21 89q-5 8 -13 12q-4 2 -9 3q-5 0 -7 -2q-6 -4 -6 -18z" />
<glyph unicode="x" horiz-adv-x="1617" d="M-344 -623q6 17 31 -15q39 -49 51 -58q76 -49 157 -49q124 0 261 116q29 24 55.5 55.5t47 59.5t45 77t39 79t41 97.5t39 101t44 120t45.5 125.5q26 75 39 152q-19 232 -29 436q-2 67 -2 156v45q0 117 2 224q0 10 1 20q1 95 -13 172q-14 85 -47 104q-20 12 -42 12 q-25 1 -51 -15q-50 -30 -151 -145q-23 -28 -102 -137q-2 -3 -6.5 -10t-6.5 -9.5t-7 -7t-9 -4l-12 1.5q-16 5 0 27q0 2 27 38t71 89.5t80 89.5q52 51 88.5 77t67.5 28t51 -5t55 -28q26 -16 48 -37.5t38.5 -50t29 -53.5t21.5 -63t15 -62t10.5 -67t6.5 -61.5t5 -62.5t4 -53 q5 -56 11 -140t6 -88q15 32 45 88t102 171t143 204q169 217 283 328t227 162q3 1 8.5 3.5t8.5 4.5q2 1 5 1q1 -1 2 -1q4 0 7 -4q2 -2 2 -4q0 -3 -2 -7q-4 -7 -12 -10q-19 -10 -38.5 -23.5t-30.5 -22t-32 -26t-28 -22.5q-42 -35 -111 -106.5t-191.5 -226.5t-230.5 -328 q-16 -26 -30.5 -52t-30.5 -58t-26.5 -53.5t-31.5 -66t-32 -67.5q4 -102 8 -154.5t16 -136.5t38 -161t67 -163q13 -29 39 -50t51 -15q30 7 86.5 66.5t107.5 138.5q37 57 66.5 109.5t53 99.5l24.5 49q10 22 22 20q10 -4 4 -27q-18 -63 -104.5 -213.5t-181.5 -232.5 q-61 -53 -146 -53q-57 0 -114.5 38t-102.5 109q-18 27 -26.5 42t-25 57.5t-28.5 95.5q-5 -36 -49.5 -163.5t-75.5 -207.5q-73 -192 -106 -252q-65 -113 -151 -191q-85 -78 -187 -110q-48 -15 -96 -15q-54 0 -109 19q-42 14 -95 64q-47 44 -47 65q0 3 1 6z" />
<glyph unicode="y" horiz-adv-x="1310" d="M22 1196v59q0 47 2 83q2 59 9 149q2 51 30.5 231.5t32.5 255.5q1 22 1.5 59t1.5 62.5t3.5 52.5t9.5 41.5t19 16.5q20 0 51.5 -42.5t55.5 -90.5q22 -57 30 -109q6 -35 6 -74q0 -19 -1 -38q-4 -62 -11.5 -109t-24.5 -141t-28 -164q-10 -75 -15 -172q-2 -30 -2 -64 q0 -74 8 -164q11 -131 46 -209q0 -1 3.5 -5.5t4 -5.5t3.5 -5t4.5 -5.5t4.5 -5t4.5 -4.5t5 -3.5t6 -3.5t6 -2t7.5 -1q67 0 122 59t105 173q33 74 99 326q37 134 88 235t75 117q25 16 39 1t25 -65q12 -93 20 -177t12 -142t6 -139.5t2 -123.5t-0.5 -143t-0.5 -151 q0 -718 -43 -1002q34 3 163 16.5t201.5 20.5t179.5 13q92 6 162 6h21q310 -4 327 -11q13 -6 13 -9q0 -6 -29 -8l-59 -1q-7 0 -97 1h-76h-48q-33 -1 -108 -2.5t-135.5 -5t-121.5 -9.5q-72 -7 -210 -25.5t-185 -24.5q-18 -139 -51.5 -246.5t-80 -178.5t-98.5 -116.5 t-116 -74.5q-32 -18 -83 -18q-17 0 -36 2q-76 8 -119 45q-47 41 -68 98q-20 52 -20 103v10q1 32 11.5 61.5t24.5 53.5t41.5 49t50 43t63.5 40.5t68 36t77.5 35t78 32t83.5 32.5q1 150 3 227.5t3 114.5t1.5 252.5t0.5 652.5q0 114 9 228.5t18 172.5t12 66h-1q-13 0 -39 -68 q-27 -70 -42 -135q-52 -223 -176 -391q-35 -54 -95 -84q-41 -20 -80 -20q-18 0 -36 5q-32 8 -67.5 32t-49.5 42q-37 46 -61 109.5t-34 123t-12 144.5zM201 -655q-1 -7 -1 -14q0 -36 16 -87q20 -62 65 -92q49 -33 106 -33q53 0 113 29q51 24 89 117t55 201.5t18 214.5 q-199 -79 -252 -106q-154 -77 -194 -171q-11 -29 -15 -59z" />
<glyph unicode="z" horiz-adv-x="1024" d="M-143 1585q1 9 7 15q8 8 25 11q14 2 29 2q2 -1 6 -1q18 0 41 -2q169 -21 287 -316q48 26 98 28h6q46 0 86 -18q43 -20 78 -49.5t66 -68.5q133 -171 139 -340q-7 -121 -33 -199.5t-92 -210.5q-27 -54 -67.5 -118t-63.5 -87q1 -1 19.5 -15.5t26 -20.5t28 -23.5t33 -28.5 t34.5 -32t38 -38t38.5 -41t41 -47.5t40 -52t41.5 -57.5q134 -200 181 -424q38 -182 39 -437q0 -60 -3 -124q130 15 396.5 77.5t338.5 119.5q5 4 13 11.5t15 14.5t15.5 15t16 13t15 8t13.5 1t11 -8q8 -9 9 -18v-3q-1 -7 -5 -14q-6 -8 -12.5 -15t-19.5 -14.5t-23 -12.5 t-25.5 -12t-22.5 -11q-218 -107 -743 -193q-25 -106 -54 -178.5t-83 -140.5q-21 -26 -31 -38.5t-41 -45t-56.5 -52.5t-69.5 -48t-87 -43.5t-102 -27.5t-121 -12q-42 0 -85 7t-92 23.5t-90 50.5t-63 81q-29 60 -35 110q-2 14 -2 27q0 34 12 63q17 40 50 72t92.5 57t129.5 44 t167.5 34t199.5 25.5t234 20.5q22 101 22 215q0 150 -38 322q-66 302 -205 505q-116 169 -228 264q-26 -38 -79.5 -69t-98.5 -41q-16 -4 -35 -4q-23 0 -49 6q-46 10 -80 37q-2 2 -10.5 9t-10 8.5t-8 6.5t-8 7t-6 7t-6.5 8.5t-5 8.5t-5.5 10.5t-5.5 11.5q-5 18 -5 34 q0 28 15 52q23 38 68 54q31 11 69 11q18 -1 38 -3q62 -8 118 -41q38 63 61 102.5t58 104t55.5 112.5t42.5 112t30.5 117.5t8.5 114.5q0 2 1 5q0 59 -13 112q-16 69 -60.5 123.5t-110.5 77.5q-26 9 -54 9q-43 0 -91 -21q4 -15 11.5 -41.5t11 -41t8 -37t6.5 -46.5t2 -53 q0 -49 -27 -90q-28 -41 -64 -60q-28 -14 -58 -14q-10 0 -19 1q-41 6 -67 42q-22 32 -22 72q0 38 22 86q42 94 151 204q-74 215 -203 285q-28 15 -58.5 16.5t-49 -5t-35.5 -8.5q-18 -4 -18 9zM48 -1462q2 -46 28 -103q32 -71 138 -103q59 -18 126 -18q52 0 112 12 q132 26 228 109q42 38 76 88t57.5 109t38 104.5t29.5 106.5q-6 -1 -151 -16t-232 -29q-83 -12 -149 -27.5t-124.5 -37t-96 -49.5t-59.5 -64q-21 -34 -20 -77q-1 -2 -1 -5zM64 201q3 -16 18 -31q13 -10 43 -12q6 0 13 -1q25 1 52 7q35 8 70.5 35t54.5 69q-31 16 -65 26 q-32 10 -69 11q-2 -1 -4 -1q-39 0 -64 -19q-16 -14 -26 -25.5t-18 -27.5q-6 -11 -6 -22q0 -5 1 -9zM78 1000q-1 -8 -1 -15q0 -30 19 -45q87 8 121 86q18 60 18 125q0 43 -8 88l-67 -72q-28 -30 -52 -77.5t-30 -89.5z" />
<glyph unicode="{" horiz-adv-x="1126" d="M-10 1415q-7 40 29 69.5t90 41t115.5 6.5t101.5 -29q18 0 55.5 38t48.5 77q26 77 9.5 222.5t-46.5 272.5t-59.5 262t-30.5 191q-1 93 25 174t61.5 130.5t78 87.5t69 53t41.5 20q93 30 170.5 29.5t147 -40t136.5 -124.5q6 -9 1.5 -17t-11.5 -9.5t-12 1.5q-7 7 -20 21 t-22.5 24t-25 25t-27.5 23.5t-30.5 19.5t-33 14t-36 7t-39.5 -3q-116 -25 -194 -103.5t-88 -184.5q-14 -107 -2.5 -222.5t28.5 -187t39 -174.5t29 -184q29 -369 -191 -484q20 -17 48 -57t62 -105t56 -159t19 -193q-2 -109 -18.5 -203.5t-42.5 -256t-44 -390.5 q-6 -67 -9 -119t-1 -119.5t11 -117.5t29.5 -101.5t52 -84.5t81.5 -54.5t115 -21.5q17 0 53 9t55.5 13.5t32.5 -2.5q3 -16 -6 -26t-20.5 -12.5t-30 -4t-21.5 -2.5q-127 -23 -221 -4q-72 14 -125.5 56.5t-85 101.5t-50 137.5t-23 157t-0.5 168t13 162.5t23 149q79 430 92 560 q22 209 -24 324q-2 6 -4 11q-22 50 -39 81t-26.5 44.5t-24.5 30.5q-56 -30 -128.5 -49t-134.5 -13.5t-71 43.5zM35 1436q9 -29 40 -34.5t69.5 7.5t70.5 29t55 32q-34 28 -94.5 33t-105 -14.5t-35.5 -52.5z" />
<glyph unicode="}" horiz-adv-x="1310" d="M-298.5 -238q0.5 7 5 12.5t12.5 4.5l8 -2q13 -10 13 -49q0 -20 7.5 -47.5t30 -64t55.5 -68t91 -56.5t131 -33q187 -21 273 54q56 49 97.5 106.5t67.5 115t40 126.5t19 129t-1 135.5t-14 133.5t-25.5 134.5t-31 128t-34.5 123.5q-2 7 -15.5 44t-24.5 72t-22.5 91.5 t-15.5 108t3.5 117t28.5 124.5t65 123t108 119q66 53 166 102q-101 67 -153 172q-39 84 -46 229t2 293t11.5 295.5t-30.5 269t-111 179.5q-43 32 -109 36.5t-132.5 -14.5t-130 -59t-103.5 -92q-4 -6 -10 -15.5t-19.5 -28.5t-26 -28.5t-18.5 -3.5q-14 21 0 37l12 16 q12 16 27 33t38 41t52 46t63.5 42.5t77.5 35t88 19.5q160 18 295 -58t207 -208q53 -97 64 -218t-9 -236t-47 -221.5t-44.5 -205.5t-6.5 -157q23 -117 92 -182q191 82 352 67q5 0 13.5 -1.5t29 -7.5t34.5 -16t22.5 -30.5t1.5 -46.5q-18 -69 -103 -84t-215 24q-42 15 -63 23 q-111 -48 -176 -92q-57 -39 -92.5 -129t-38.5 -216.5t43 -275.5q16 -51 41 -126.5t43.5 -130t39.5 -124t34 -125t22 -114t8.5 -110.5t-10.5 -97q-13 -58 -38 -116.5t-64 -122.5t-96.5 -117.5t-128.5 -95.5t-167 -63t-205 -14q-6 0 -17 1t-42.5 7t-61.5 16.5t-68.5 34 t-69 54.5t-57 81t-38.5 112q-1 2 -1.5 5.5t-1.5 12.5t-0.5 16zM881 1507l49 -12q45 -9 69.5 -13t63 -8.5t58.5 -0.5t41 13.5t27.5 30.5t0.5 52q-12 30 -88 14q-65 -13 -221 -76z" />
<glyph unicode="&#xa0;" />
<glyph unicode="&#xa1;" horiz-adv-x="921" d="M332.5 -103q-12.5 245 10.5 502.5t83 477.5q9 34 21.5 68t28 65t32 48t31.5 11q17 -15 21 -45t0.5 -55.5t-13 -75t-12.5 -72.5q-22 -154 -39 -357t-17 -364t76.5 -679.5t140.5 -835.5q40 -222 -16 -234q-16 -1 -27 3.5t-17.5 17t-9.5 21.5t-8 30q-6 22 -69 257.5 t-90 340.5q-49 191 -81.5 411t-45 465zM459 1516q0 66 16 137q8 30 28.5 53t43.5 23q35 0 50 -13.5t16.5 -42.5t-0.5 -74q-1 -17 -1 -26q-2 -51 -9 -93.5t-19.5 -77.5t-33.5 -53t-48 -14q-39 13 -33 54q-7 51 -10 127z" />
<glyph unicode="&#xa2;" horiz-adv-x="983" d="M39 253.5q-1 83.5 5 150t17 137.5q25 179 92 371.5t169 352t208 208.5q19 51 76 137q15 23 34.5 45t47 50.5t39.5 41.5q1 1 6.5 8.5t11.5 13.5t14 11t15 3.5t12 -11.5q7 -19 7.5 -27.5t-11.5 -18t-25 -15.5t-32 -18.5t-33 -27.5q-101 -126 -114 -164q60 8 111 -9.5 t80.5 -68.5t14.5 -127q-5 -21 -11.5 -43.5t-17.5 -48.5t-25 -39.5t-28 -7.5q-8 3 -10 10.5t2 18t9 20t12 21.5t10 18q57 112 10 176q-18 26 -50 30.5t-62.5 -7t-53.5 -24t-32 -21.5q-8 -9 -16 -31.5t-13 -40.5t-12.5 -53t-10.5 -45q-161 -624 -231 -1061q-30 -178 -16 -199 q7 -15 45 -12q39 3 90 44t99.5 99.5t103.5 125t103 121.5t97 87.5t86 24.5q30 -7 58.5 -57t5.5 -76q-10 -12 -22 16q-22 52 -29 61q-14 20 -31 21q-29 2 -79.5 -45t-109 -117.5t-119.5 -143.5t-126 -130t-113 -68q-9 -2 -20.5 -1.5t-22 0.5t-12.5 -3q-4 -15 -3.5 -29 t3 -40.5t2.5 -36.5q0 -33 -2 -61t-6.5 -58t-15.5 -43.5t-27 -5.5q-13 6 -16.5 49.5t-1 90t6.5 93.5t4 49q-53 16 -86.5 67.5t-46.5 115t-14 147zM154 191q0 -32 2.5 -72.5t13 -68t27.5 -50.5q45 321 112.5 632t165.5 697q-63 -62 -120.5 -205t-87.5 -264t-46 -219 q-8 -48 -22.5 -133t-21 -123t-15 -100t-8.5 -94z" />
<glyph unicode="&#xa3;" horiz-adv-x="2150" d="M-289 -193q7 50 62 105q47 43 120.5 62.5t153 16.5t148 -12t133.5 -22t82 -14q122 165 244 510t200 677q-95 -35 -264 -73q-23 -5 -73 -16t-79 -17.5t-67.5 -10.5t-65.5 -1q-26 4 -44 14.5t-17 30.5q1 12 11.5 20t28.5 12.5t32.5 6.5t35.5 3.5t25 2.5q42 6 105.5 22.5 t130.5 38t120.5 40t103 36.5t50.5 18q7 48 22 144q23 155 36 233t38.5 214.5t49 210.5t59.5 179t79 164t99 121t127.5 94t156.5 43q131 18 253 -37t192 -149q5 -8 14.5 -20.5t15 -22t7.5 -18.5q5 -21 -1.5 -53t-31.5 -36q-12 -1 -25 8t-18 19q-7 23 7.5 50.5t14.5 31.5 q0 16 -25.5 48.5t-47.5 49.5q-40 35 -128 71.5t-153 31.5q-62 -5 -118 -38t-100 -86t-83.5 -127.5t-69.5 -155.5t-56 -178t-44 -186t-33.5 -189t-25 -178t-17.5 -161q584 168 619 174q147 35 229 39q126 12 131 -30q2 -14 -16 -26.5t-50 -21.5t-60 -15.5t-61 -12.5t-40 -8 q-225 -54 -464 -125t-308 -105q-62 -284 -220 -695t-272 -607q219 -95 559 -234q247 -104 498.5 -158t427.5 -12q76 20 143 65t99 105q3 5 10 28.5t16 39t21 14.5q10 -1 13 -8.5t-0.5 -18.5t-8.5 -21t-10.5 -18.5t-5.5 -9.5q-29 -79 -118 -158.5t-167 -107.5 q-87 -30 -200.5 -34.5t-213 9t-196.5 39.5q-223 59 -419.5 142.5t-529.5 251.5q-90 -90 -223.5 -143.5t-249.5 -61.5q-55 -5 -110.5 5.5t-101.5 33.5t-71.5 64t-19.5 93zM-248 -249q20 -36 64 -58t96.5 -30.5t95.5 -2.5q172 23 350 215q-11 4 -73 25.5t-97.5 32t-97 20 t-115.5 6.5q-70 -4 -135.5 -41.5t-85.5 -83.5q-22 -47 -2 -83z" />
<glyph unicode="&#xa5;" d="M-569 2140v9.5v12.5t0.5 12.5t2.5 13.5t5 10.5t8 9t12 4.5q10 -11 10.5 -25t-4 -32.5t-4.5 -28.5q0 -70 28.5 -131t77.5 -84t114 26q27 23 52.5 60.5t39.5 67t39 86t38 83.5q106 223 189 281q41 28 102.5 31t116.5 -27q31 -15 69 -65t50 -93q26 -91 30.5 -249t-3 -301.5 t-1.5 -297t35 -239.5q19 -58 64.5 -113t101 -82t109.5 2q89 54 192.5 278.5t181.5 534.5q94 424 193 617q26 55 43 69q31 25 48 2q20 -28 -5 -77q-4 -8 -10 -17q-10 -18 -32 -46.5t-41.5 -56t-51.5 -96.5t-64 -167q-22 -88 -54.5 -243t-65 -262.5t-99.5 -273.5 q-63 -133 -126 -209.5t-144 -107.5l-78 -29q-4 -16 -37 -186q28 4 61.5 11t81 18.5t74.5 17.5q14 3 38.5 9.5t42.5 11t39.5 8t39.5 3.5t33 -5q19 -7 27 -25t-5 -37q-6 -6 -36 -18t-48 -17q-21 -5 -79 -16t-93 -18q-11 -3 -89 -28t-103 -30q-14 -61 -35 -174q216 79 385 127 q99 28 113 4q22 -22 -24 -50t-120 -54q-44 -15 -190 -60t-178 -57q-20 -55 -37 -135q-42 -180 -76 -365q-11 -54 -18 -101.5t-11 -79t-6.5 -80t-3 -71t-1 -88t-1.5 -96.5q0 -5 1.5 -20t1.5 -23.5t-5 -18t-16 -11.5q-8 -3 -24 6t-19 16q-5 10 -5 25t2 44.5t3 43.5 q8 182 12 221q14 127 36.5 244t52 244t44.5 204q-207 -97 -229 -57q-7 18 1 34t31.5 31t45 25t58 25.5t54.5 23.5q9 5 31 14t26 11q4 38 33 182q-37 -8 -123.5 -30t-136.5 -32q-69 -14 -76 17q-3 13 1 23.5t9.5 16.5t21.5 12.5t25 9t31 8.5q19 5 84.5 21.5t106.5 30t72 31.5 q21 190 20 220q-171 54 -233 196q-26 59 -32.5 198.5t-7.5 396.5t-10 442q-9 192 -51 247q-40 52 -106 9q-30 -19 -58 -50t-56 -79t-42.5 -76t-42.5 -86q-8 -17 -30 -66.5t-34 -73.5t-33 -60.5t-43 -61t-48 -41.5q-74 -47 -131 -25t-91 94.5t-34 167.5z" />
<glyph unicode="&#xa8;" d="M362 1828q-7 35 3 58l10 60q1 4 3 12.5t4 14t5.5 12t9.5 10.5t15 6q54 13 82 -21q13 -13 14 -49t-9 -72.5t-37.5 -60t-64.5 -12.5q-28 7 -35 42zM730.5 1828q-7.5 35 2.5 58l10 60q1 4 3 12.5t4 14t5.5 12t9.5 10.5t15 6q30 8 47 4t35 -25q13 -13 14 -49t-9 -72.5 t-37 -60t-64 -12.5q-28 7 -35.5 42z" />
<glyph unicode="&#xa9;" horiz-adv-x="1290" d="M-18.5 614.5q0.5 110.5 32 228.5t87 219.5t138.5 184t179 123.5q105 46 231 46.5t237 -37t203.5 -106.5t137.5 -155q76 -147 74.5 -315.5t-78.5 -323.5q-48 -98 -126 -180.5t-171 -139.5t-200.5 -85t-212 -24t-208.5 50.5t-188 132.5q-68 68 -102 169.5t-33.5 212z M239 704q-24 -147 6 -270t126.5 -212t249.5 -120q85 3 167 31.5t149 76t125.5 111t98.5 136.5t66.5 153t30 161t-10.5 159q-14 66 -42.5 125t-64.5 103t-80 81t-89 58.5t-91 36.5t-87 15t-76 -6q-67 -14 -200 -138.5t-175 -203.5q-79 -150 -103 -297zM463.5 699.5 q2.5 99.5 19.5 166.5q13 50 25.5 85t33 71.5t51 61t71.5 36.5q54 18 109 19t102.5 -23.5t60.5 -68.5q13 -51 2 -58q-8 -2 -12.5 -2.5t-10 9.5t-8 15.5t-5.5 15.5q-1 2 -1 3q-1 3 -4.5 13t-5 14t-5.5 12t-7.5 11.5t-9.5 7.5t-13 6q-90 23 -149 -39q-97 -100 -113 -406 q-18 -338 24 -338q38 -2 69.5 8t57 32.5t42 42t39.5 51.5q7 10 10 14q5 6 20.5 29.5t26 33.5t16.5 4q5 -8 6.5 -16t-2.5 -18t-8 -17.5t-15 -21t-17.5 -21t-22.5 -24.5q-66 -72 -102 -97q-42 -28 -81 -32q-139 -12 -174 129q-9 40 -15.5 116t-4 175.5z" />
<glyph unicode="&#xab;" horiz-adv-x="1597" d="M106 963q0 -18 31 -39q61 -38 331.5 -175t309.5 -167q8 -6 26 -28t33 -31t29 1q15 17 17 32.5t-1.5 25t-18.5 21.5t-21.5 15.5t-24.5 12.5q-13 6 -43 22t-56 28.5t-46 20.5q-146 66 -214 101.5t-155 95.5q488 273 555 340q7 7 25 22.5t29.5 25.5t25 27t19.5 31t5.5 32 t-10.5 36q-18 15 -32 21t-30 1t-25 -10.5t-32 -22.5t-36 -26q-86 -59 -254 -149.5t-291 -160t-146 -103.5zM692 924q0 -16 31 -37q61 -38 327 -170.5t304 -161.5q8 -6 20.5 -20.5t21 -23t22 -15t22.5 3.5q8 9 13 17.5t5 16.5v14t-6 12.5t-9 10.5t-12 9.5t-12.5 7.5t-14 7.5 t-11.5 6.5q-140 69 -144 70q-141 63 -208.5 97.5t-153.5 92.5q477 262 545 330q8 7 25 22t28.5 25.5t25 26.5t19.5 29.5t6 31.5t-10 35q-18 14 -32 20t-30.5 1t-24.5 -9.5t-32 -22.5t-35 -26q-84 -56 -249.5 -144t-286.5 -156t-144 -101z" />
<glyph unicode="&#xad;" horiz-adv-x="1044" d="M61 825q0 24 105 41q45 6 139 6q2 0 46.5 1.5t97.5 2.5t142 0t177 -4q26 -1 40 -3t43 -8.5t41 -21t5 -36.5q-8 -27 -62 -32.5t-158 2t-134 7.5q-9 0 -97.5 -2.5t-134.5 -2t-115 3.5t-102 15t-33 31z" />
<glyph unicode="&#xae;" horiz-adv-x="921" d="M-4 1839q-17 95 7.5 197t77 184t133.5 136t171 57q220 7 332 -105q65 -69 92 -157t22 -162.5t-30 -147.5q-39 -119 -137.5 -198t-231.5 -89q-115 -8 -213 28.5t-156 109.5q-18 21 -39.5 67.5t-27.5 79.5zM123.5 1853.5q0.5 -67.5 23.5 -116.5q38 -81 126.5 -114.5 t191.5 -20.5q98 16 156 63q-9 5 -31 23q-33 29 -59 84.5t-53 106.5t-64 77q-5 -31 -7.5 -84t-3 -125t-0.5 -88q-20 -10 -51 0q-9 14 -12.5 36.5t-3 40t3 49.5t2.5 44q2 28 7 99.5t6.5 107t1 90t-6.5 98.5l-4 5q-3 5 -5 5h-9v19q22 4 37 -3t23.5 -24t12 -32.5t7.5 -41.5 q5 3 24 17.5t31.5 22.5t32 17.5t35.5 12.5q39 4 57 -16t16 -50t-14 -61t-29 -51q-46 -52 -88 -76q8 -13 28.5 -37t29.5 -41q10 -20 28.5 -67t37.5 -82t44 -55q67 63 98.5 173.5t20 221t-61.5 178.5q-82 103 -247 115q-49 -2 -99 -36.5t-91 -88t-74 -122t-50.5 -137.5 t-17 -136.5zM410 2093q1 -17 2 -37t2 -32t4 -23q42 19 78 86q36 70 20 98q-34 2 -106 -92z" />
<glyph unicode="&#xaf;" d="M156 1896q-2 11 1.5 20.5t14 17.5t20.5 14t27.5 12.5t26.5 9.5t26 8q193 57 779 21q26 -1 49 -6.5t36 -13.5t11 -17q-9 -21 -25.5 -30.5t-39.5 -9t-54 2.5q-180 6 -278.5 -3t-208.5 -29t-248 -29q-20 -2 -43.5 -1.5t-43 2.5t-33.5 10t-17 21z" />
<glyph unicode="&#xb0;" horiz-adv-x="532" d="M-21.5 2122.5q-9.5 66.5 7.5 132t59 123.5t98 82q86 35 183 2.5t133 -101.5q29 -57 28 -123.5t-30 -126.5q-28 -57 -80.5 -98.5t-112.5 -58.5t-124.5 -2t-112.5 65q-39 39 -48.5 105.5zM119 2062q19 -90 108 -90q61 2 118.5 51t87.5 123t16 142q-12 58 -69.5 103.5 t-103.5 33.5q-40 -7 -102 -127q-35 -66 -50.5 -122.5t-4.5 -113.5z" />
<glyph unicode="&#xb4;" d="M461 1825q-17 28 10.5 78t65.5 86l79 75l13.5 13.5t15 14.5t15.5 13t16.5 10t18 5t18.5 -2q61 -16 61 -84q-1 -21 -27 -60t-64 -77.5t-82 -68.5t-80.5 -32.5t-59.5 29.5z" />
<glyph unicode="&#xb7;" horiz-adv-x="409" d="M127.5 632q3.5 -42 36.5 -50q37 -11 64 12.5t37 60t9 72.5t-14 49q-28 34 -82 21q-11 -2 -18 -9.5t-9.5 -12.5t-5.5 -18.5t-4 -15.5q-17 -67 -13.5 -109z" />
<glyph unicode="&#xb8;" d="M485 -207q-7 31 3.5 48.5t31.5 15.5q24 0 35 -19q11 -28 -20 -55q33 -31 65.5 -28t54.5 38t17 84q-2 19 -11.5 47.5t-19.5 54t-18 50.5t-7.5 43.5t13.5 25.5q10 0 15 -14t8 -38t5 -32q7 -20 24.5 -53.5t32 -62.5t26.5 -61.5t9.5 -63t-22.5 -54.5q-39 -41 -87.5 -36.5 t-93 37.5t-61.5 73z" />
<glyph unicode="&#xbb;" horiz-adv-x="1679" d="M193 1327q0 -18 6 -31.5t19.5 -29.5t25 -26.5t28.5 -25.5t25 -22q68 -68 545 -330q-86 -57 -153.5 -91.5t-209.5 -98.5q-19 -8 -44.5 -20.5t-55.5 -27.5t-43 -22q-1 -1 -11.5 -6.5t-14 -7.5t-12.5 -7.5t-12 -9.5t-9 -10.5t-6 -12.5v-14t5 -16.5t13 -17.5q9 -10 22.5 -3.5 t22 15t21 23t20.5 20.5q38 29 304 161.5t327 170.5q30 20 30 37q-23 33 -144 101t-286.5 156t-249.5 144q-12 8 -35 26t-31.5 22.5t-24.5 9.5t-30 -1t-32 -20q-10 -17 -10 -35zM765.5 1377q-0.5 -18 5.5 -32t19.5 -31t25 -27t29.5 -25.5t25 -22.5q67 -67 555 -340 q-87 -60 -155.5 -96t-212.5 -101q-20 -8 -46 -20.5t-57 -28.5t-43 -22q-18 -9 -24.5 -12.5t-21.5 -15.5t-18.5 -21.5t-1.5 -25t17 -32.5q14 -10 29 -1t33 31t26 28q39 30 309.5 167t331.5 175q31 21 31 39q-23 34 -145.5 103.5t-290.5 160t-254 149.5q-13 9 -36 26 t-32.5 22.5t-25.5 10.5t-30 -1t-32 -21q-10 -18 -10.5 -36z" />
<glyph unicode="&#xbf;" horiz-adv-x="1331" d="M66 -170q23 108 82.5 213t118 172t152 167.5t140.5 158.5q33 44 106 129q34 40 51.5 61t49 61t48 65.5t41 66.5t36.5 73.5t26 77t18.5 86t4.5 91.5t-8 102q-12 80 -43 143.5t-78 77.5q-16 5 -29 -4t-18.5 -21t-14.5 -19t-18 1q-20 17 -13 35t23 31t31 18 q101 19 183.5 -58.5t95.5 -183.5q18 -140 3 -262.5t-70 -239.5t-97 -184.5t-127 -186.5q-11 -16 -17 -24q-149 -209 -358 -455q-43 -50 -62.5 -73.5t-50 -63t-43 -60.5t-31 -54.5t-24 -59t-12 -60t-6 -69.5t5.5 -78q6 -48 69 -125.5t154 -111.5q32 -12 68 -15t78 6.5t73 18 t80 31.5t70 33.5t72 38t59 32.5q-12 30 -31 101t-25 106q-15 94 9.5 174.5t95.5 122.5q84 49 144 42.5t94 -52.5t36 -117q2 -59 -23 -119t-69 -111.5t-87 -90.5t-93 -74q16 -32 30 -55.5t22 -36.5t22 -27.5t17 -17.5t22 -16.5t22 -16.5q11 -7 25.5 -12t26.5 -7.5t23 -5 t16.5 -5.5t4.5 -9q-1 -8 -16 -11t-41.5 4.5t-57 26t-69 61t-72.5 103.5q-272 -157 -465 -151q-224 11 -331.5 170t-48.5 442zM772 2161q-4 45 3 67.5t34 18.5q37 -5 71 -41t53 -86t25.5 -101.5t-11 -93t-56.5 -53.5q-42 -11 -64 24q-23 36 -35.5 92t-14.5 81.5t-5 91.5z M892 -403q3 -57 10.5 -100t17.5 -58q23 8 84 69q111 108 147.5 195t19.5 147q-10 33 -33 54t-48 24q-59 6 -101 -23t-61.5 -79t-29 -111t-6.5 -118z" />
<glyph unicode="&#xc0;" horiz-adv-x="1884" d="M-395 1853q-17 92 23.5 158t131.5 94q136 30 295 -67q3 -2 8.5 -5t9.5 -5t8.5 -5t7 -5.5t4 -5t1.5 -5.5t-2 -6q-4 -4 -13.5 -0.5t-25 13.5t-16.5 11q-75 36 -140.5 50.5t-120.5 7.5t-90.5 -46t-43.5 -108q-5 -54 18 -119t61 -120.5t69.5 -94t57.5 -63.5 q152 -138 304.5 -200t287.5 -62q45 103 169.5 441.5t213.5 508.5q33 56 63 95t50.5 56.5t39.5 27.5t30.5 8t23.5 -1q70 -8 129 -89t96 -198.5t63 -260.5t37 -269t11 -229q23 -3 83.5 -10.5t92 -12t78 -16t82.5 -27.5q46 -19 137 -66t127 -71q61 -37 49 -49q-7 -5 -25.5 4.5 t-45.5 28.5t-41 26q-121 70 -195 95q-130 42 -336 32l-59 -549l-60 -491l-57 -614q-1 -11 -2 -35q-16 -261 -1 -389q34 -288 220 -349q307 -71 621 232q34 33 55 52.5t59 49t69 45t77 32t91.5 19.5t105 -2.5t124.5 -23.5q10 -3 31.5 -7.5t34.5 -8t27.5 -12.5t21.5 -23 q13 -18 2 -29q-9 -13 -23.5 -7.5t-25 16t-26 24t-27.5 16.5q-178 54 -334 0q-44 -19 -88.5 -53t-85 -74.5t-83.5 -83t-101.5 -89.5t-120.5 -83q-7 -3 -41 -17.5t-53.5 -21.5t-60.5 -17.5t-76 -13t-84.5 0.5t-100.5 16q-86 28 -141 69.5t-101 116.5q-58 93 -86 236 q-61 325 -57 684l20 500l54 845q-57 -3 -171 -15.5t-226.5 -20t-217.5 -2.5q-43 -87 -74 -193q-108 -354 -145 -614q155 -167 227 -328q2 -5 12 -24.5t14.5 -33t0.5 -18.5q-4 0 -7 -1t-6.5 3t-6 6.5t-5.5 8.5t-4.5 9.5t-4 9.5t-3.5 9q-41 89 -100.5 175t-122.5 145 q-3 -9 -9.5 -40t-12.5 -55t-19.5 -61t-29 -65t-42 -58.5t-58 -50.5t-77.5 -33t-100 -12q-102 1 -172 81.5t-76 190.5q-20 275 139 324q50 15 97.5 14.5t85.5 -10t83 -34.5t78 -49t80 -62q67 384 209 766q-237 25 -401 124q-147 89 -273 236.5t-147 275.5zM-315 252 q10 -76 53.5 -141t111.5 -84q36 -10 69 -11t59 7.5t48 19.5t41 29.5t32.5 33.5t27.5 35q24 34 41 82t24 82.5t19 104.5q-74 75 -162.5 121.5t-176.5 46t-140 -63.5q-33 -38 -45 -112t-2 -150zM492 1266q136 -1 343 28t271 45q3 55 9.5 151.5t9.5 149.5t6 129t2 145.5 t-5 143.5q-2 49 -15 112.5t-40 122t-59 64.5q-48 8 -119 -104q-27 -43 -137.5 -294.5t-124.5 -299.5q-76 -200 -141 -393zM786 2798q0 68 62 84q8 5 19 2t17.5 -5t16 -10t15 -13t14.5 -14.5t14 -13.5l80 -75q39 -36 65.5 -87t10.5 -77q-23 -32 -60 -29.5t-80.5 32.5 t-82 68.5t-64.5 77.5t-27 60z" />
<glyph unicode="&#xc1;" horiz-adv-x="1884" d="M-395 1853q-17 92 23.5 158t131.5 94q136 30 295 -67q3 -2 8.5 -5t9.5 -5t8.5 -5t7 -5.5t4 -5t1.5 -5.5t-2 -6q-4 -4 -13.5 -0.5t-25 13.5t-16.5 11q-75 36 -140.5 50.5t-120.5 7.5t-90.5 -46t-43.5 -108q-5 -54 18 -119t61 -120.5t69.5 -94t57.5 -63.5 q152 -138 304.5 -200t287.5 -62q45 103 169.5 441.5t213.5 508.5q33 56 63 95t50.5 56.5t39.5 27.5t30.5 8t23.5 -1q70 -8 129 -89t96 -198.5t63 -260.5t37 -269t11 -229q23 -3 83.5 -10.5t92 -12t78 -16t82.5 -27.5q46 -19 137 -66t127 -71q61 -37 49 -49q-7 -5 -25.5 4.5 t-45.5 28.5t-41 26q-121 70 -195 95q-130 42 -336 32l-59 -549l-60 -491l-57 -614q-1 -11 -2 -35q-16 -261 -1 -389q34 -288 220 -349q307 -71 621 232q34 33 55 52.5t59 49t69 45t77 32t91.5 19.5t105 -2.5t124.5 -23.5q10 -3 31.5 -7.5t34.5 -8t27.5 -12.5t21.5 -23 q13 -18 2 -29q-9 -13 -23.5 -7.5t-25 16t-26 24t-27.5 16.5q-178 54 -334 0q-44 -19 -88.5 -53t-85 -74.5t-83.5 -83t-101.5 -89.5t-120.5 -83q-7 -3 -41 -17.5t-53.5 -21.5t-60.5 -17.5t-76 -13t-84.5 0.5t-100.5 16q-86 28 -141 69.5t-101 116.5q-58 93 -86 236 q-61 325 -57 684l20 500l54 845q-57 -3 -171 -15.5t-226.5 -20t-217.5 -2.5q-43 -87 -74 -193q-108 -354 -145 -614q155 -167 227 -328q2 -5 12 -24.5t14.5 -33t0.5 -18.5q-4 0 -7 -1t-6.5 3t-6 6.5t-5.5 8.5t-4.5 9.5t-4 9.5t-3.5 9q-41 89 -100.5 175t-122.5 145 q-3 -9 -9.5 -40t-12.5 -55t-19.5 -61t-29 -65t-42 -58.5t-58 -50.5t-77.5 -33t-100 -12q-102 1 -172 81.5t-76 190.5q-20 275 139 324q50 15 97.5 14.5t85.5 -10t83 -34.5t78 -49t80 -62q67 384 209 766q-237 25 -401 124q-147 89 -273 236.5t-147 275.5zM-315 252 q10 -76 53.5 -141t111.5 -84q36 -10 69 -11t59 7.5t48 19.5t41 29.5t32.5 33.5t27.5 35q24 34 41 82t24 82.5t19 104.5q-74 75 -162.5 121.5t-176.5 46t-140 -63.5q-33 -38 -45 -112t-2 -150zM492 1266q136 -1 343 28t271 45q3 55 9.5 151.5t9.5 149.5t6 129t2 145.5 t-5 143.5q-2 49 -15 112.5t-40 122t-59 64.5q-48 8 -119 -104q-27 -43 -137.5 -294.5t-124.5 -299.5q-76 -200 -141 -393zM803 2576q-17 28 10.5 78t65.5 86l79 76q4 4 14 13.5t14.5 14t15.5 13t16.5 10t17.5 4.5t19 -2q61 -16 61 -84q-1 -21 -27 -60t-64 -77.5t-82 -68.5 t-80.5 -32.5t-59.5 29.5z" />
<glyph unicode="&#xc2;" horiz-adv-x="1884" d="M-395 1853q-17 92 23.5 158t131.5 94q136 30 295 -67q3 -2 8.5 -5t9.5 -5t8.5 -5t7 -5.5t4 -5t1.5 -5.5t-2 -6q-4 -4 -13.5 -0.5t-25 13.5t-16.5 11q-75 36 -140.5 50.5t-120.5 7.5t-90.5 -46t-43.5 -108q-5 -54 18 -119t61 -120.5t69.5 -94t57.5 -63.5 q152 -138 304.5 -200t287.5 -62q45 103 169.5 441.5t213.5 508.5q33 56 63 95t50.5 56.5t39.5 27.5t30.5 8t23.5 -1q70 -8 129 -89t96 -198.5t63 -260.5t37 -269t11 -229q23 -3 83.5 -10.5t92 -12t78 -16t82.5 -27.5q46 -19 137 -66t127 -71q61 -37 49 -49q-7 -5 -25.5 4.5 t-45.5 28.5t-41 26q-121 70 -195 95q-130 42 -336 32l-59 -549l-60 -491l-57 -614q-1 -11 -2 -35q-16 -261 -1 -389q34 -288 220 -349q307 -71 621 232q34 33 55 52.5t59 49t69 45t77 32t91.5 19.5t105 -2.5t124.5 -23.5q10 -3 31.5 -7.5t34.5 -8t27.5 -12.5t21.5 -23 q13 -18 2 -29q-9 -13 -23.5 -7.5t-25 16t-26 24t-27.5 16.5q-178 54 -334 0q-44 -19 -88.5 -53t-85 -74.5t-83.5 -83t-101.5 -89.5t-120.5 -83q-7 -3 -41 -17.5t-53.5 -21.5t-60.5 -17.5t-76 -13t-84.5 0.5t-100.5 16q-86 28 -141 69.5t-101 116.5q-58 93 -86 236 q-61 325 -57 684l20 500l54 845q-57 -3 -171 -15.5t-226.5 -20t-217.5 -2.5q-43 -87 -74 -193q-108 -354 -145 -614q155 -167 227 -328q2 -5 12 -24.5t14.5 -33t0.5 -18.5q-4 0 -7 -1t-6.5 3t-6 6.5t-5.5 8.5t-4.5 9.5t-4 9.5t-3.5 9q-41 89 -100.5 175t-122.5 145 q-3 -9 -9.5 -40t-12.5 -55t-19.5 -61t-29 -65t-42 -58.5t-58 -50.5t-77.5 -33t-100 -12q-102 1 -172 81.5t-76 190.5q-20 275 139 324q50 15 97.5 14.5t85.5 -10t83 -34.5t78 -49t80 -62q67 384 209 766q-237 25 -401 124q-147 89 -273 236.5t-147 275.5zM-315 252 q10 -76 53.5 -141t111.5 -84q36 -10 69 -11t59 7.5t48 19.5t41 29.5t32.5 33.5t27.5 35q24 34 41 82t24 82.5t19 104.5q-74 75 -162.5 121.5t-176.5 46t-140 -63.5q-33 -38 -45 -112t-2 -150zM492 1266q136 -1 343 28t271 45q3 55 9.5 151.5t9.5 149.5t6 129t2 145.5 t-5 143.5q-2 49 -15 112.5t-40 122t-59 64.5q-48 8 -119 -104q-27 -43 -137.5 -294.5t-124.5 -299.5q-76 -200 -141 -393zM618 2576q-8 11 5.5 24t41.5 30.5t40 29.5q132 121 233 154q36 7 67 -4t50.5 -34.5t35 -53t21.5 -58t9.5 -50.5t-1.5 -31q-15 -21 -41 -21 q-29 1 -52.5 28t-37 59.5t-32.5 67.5t-39 48q-20 -9 -42 -23.5t-34.5 -24.5l-37.5 -30t-34 -27q-13 -8 -52 -39t-64.5 -44.5t-35.5 -0.5z" />
<glyph unicode="&#xc3;" horiz-adv-x="1884" d="M-395 1853q-17 92 23.5 158t131.5 94q136 30 295 -67q3 -2 8.5 -5t9.5 -5t8.5 -5t7 -5.5t4 -5t1.5 -5.5t-2 -6q-4 -4 -13.5 -0.5t-25 13.5t-16.5 11q-75 36 -140.5 50.5t-120.5 7.5t-90.5 -46t-43.5 -108q-5 -54 18 -119t61 -120.5t69.5 -94t57.5 -63.5 q152 -138 304.5 -200t287.5 -62q45 103 169.5 441.5t213.5 508.5q33 56 63 95t50.5 56.5t39.5 27.5t30.5 8t23.5 -1q70 -8 129 -89t96 -198.5t63 -260.5t37 -269t11 -229q23 -3 83.5 -10.5t92 -12t78 -16t82.5 -27.5q46 -19 137 -66t127 -71q61 -37 49 -49q-7 -5 -25.5 4.5 t-45.5 28.5t-41 26q-121 70 -195 95q-130 42 -336 32l-59 -549l-60 -491l-57 -614q-1 -11 -2 -35q-16 -261 -1 -389q34 -288 220 -349q307 -71 621 232q34 33 55 52.5t59 49t69 45t77 32t91.5 19.5t105 -2.5t124.5 -23.5q10 -3 31.5 -7.5t34.5 -8t27.5 -12.5t21.5 -23 q13 -18 2 -29q-9 -13 -23.5 -7.5t-25 16t-26 24t-27.5 16.5q-178 54 -334 0q-44 -19 -88.5 -53t-85 -74.5t-83.5 -83t-101.5 -89.5t-120.5 -83q-7 -3 -41 -17.5t-53.5 -21.5t-60.5 -17.5t-76 -13t-84.5 0.5t-100.5 16q-86 28 -141 69.5t-101 116.5q-58 93 -86 236 q-61 325 -57 684l20 500l54 845q-57 -3 -171 -15.5t-226.5 -20t-217.5 -2.5q-43 -87 -74 -193q-108 -354 -145 -614q155 -167 227 -328q2 -5 12 -24.5t14.5 -33t0.5 -18.5q-4 0 -7 -1t-6.5 3t-6 6.5t-5.5 8.5t-4.5 9.5t-4 9.5t-3.5 9q-41 89 -100.5 175t-122.5 145 q-3 -9 -9.5 -40t-12.5 -55t-19.5 -61t-29 -65t-42 -58.5t-58 -50.5t-77.5 -33t-100 -12q-102 1 -172 81.5t-76 190.5q-20 275 139 324q50 15 97.5 14.5t85.5 -10t83 -34.5t78 -49t80 -62q67 384 209 766q-237 25 -401 124q-147 89 -273 236.5t-147 275.5zM-315 252 q10 -76 53.5 -141t111.5 -84q36 -10 69 -11t59 7.5t48 19.5t41 29.5t32.5 33.5t27.5 35q24 34 41 82t24 82.5t19 104.5q-74 75 -162.5 121.5t-176.5 46t-140 -63.5q-33 -38 -45 -112t-2 -150zM492 1266q136 -1 343 28t271 45q3 55 9.5 151.5t9.5 149.5t6 129t2 145.5 t-5 143.5q-2 49 -15 112.5t-40 122t-59 64.5q-48 8 -119 -104q-27 -43 -137.5 -294.5t-124.5 -299.5q-76 -200 -141 -393zM514 2660.5q1 7.5 10 12.5q10 4 27.5 -15t41 -44t44.5 -31q57 -11 98 -3.5t89 30.5t84 47t83.5 47.5t87.5 31.5q106 19 164 -39l13.5 -13.5 l15.5 -15.5l15 -15t13 -15.5t9 -14t3.5 -12t-5.5 -8.5q-5 -4 -15 4.5t-25 25t-24 23.5q-17 15 -24 20t-19 10t-26 5q-36 -1 -71 -17t-65 -39t-62 -46.5t-75.5 -40.5t-91.5 -19q-44 -1 -86 -1t-86.5 16t-73.5 49q-3 4 -13 14t-17.5 18.5t-13.5 18t-5 17z" />
<glyph unicode="&#xc4;" horiz-adv-x="1884" d="M-395 1853q-17 92 23.5 158t131.5 94q136 30 295 -67q3 -2 8.5 -5t9.5 -5t8.5 -5t7 -5.5t4 -5t1.5 -5.5t-2 -6q-4 -4 -13.5 -0.5t-25 13.5t-16.5 11q-75 36 -140.5 50.5t-120.5 7.5t-90.5 -46t-43.5 -108q-5 -54 18 -119t61 -120.5t69.5 -94t57.5 -63.5 q152 -138 304.5 -200t287.5 -62q45 103 169.5 441.5t213.5 508.5q33 56 63 95t50.5 56.5t39.5 27.5t30.5 8t23.5 -1q70 -8 129 -89t96 -198.5t63 -260.5t37 -269t11 -229q23 -3 83.5 -10.5t92 -12t78 -16t82.5 -27.5q46 -19 137 -66t127 -71q61 -37 49 -49q-7 -5 -25.5 4.5 t-45.5 28.5t-41 26q-121 70 -195 95q-130 42 -336 32l-59 -549l-60 -491l-57 -614q-1 -11 -2 -35q-16 -261 -1 -389q34 -288 220 -349q307 -71 621 232q34 33 55 52.5t59 49t69 45t77 32t91.5 19.5t105 -2.5t124.5 -23.5q10 -3 31.5 -7.5t34.5 -8t27.5 -12.5t21.5 -23 q13 -18 2 -29q-9 -13 -23.5 -7.5t-25 16t-26 24t-27.5 16.5q-178 54 -334 0q-44 -19 -88.5 -53t-85 -74.5t-83.5 -83t-101.5 -89.5t-120.5 -83q-7 -3 -41 -17.5t-53.5 -21.5t-60.5 -17.5t-76 -13t-84.5 0.5t-100.5 16q-86 28 -141 69.5t-101 116.5q-58 93 -86 236 q-61 325 -57 684l20 500l54 845q-57 -3 -171 -15.5t-226.5 -20t-217.5 -2.5q-43 -87 -74 -193q-108 -354 -145 -614q155 -167 227 -328q2 -5 12 -24.5t14.5 -33t0.5 -18.5q-4 0 -7 -1t-6.5 3t-6 6.5t-5.5 8.5t-4.5 9.5t-4 9.5t-3.5 9q-41 89 -100.5 175t-122.5 145 q-3 -9 -9.5 -40t-12.5 -55t-19.5 -61t-29 -65t-42 -58.5t-58 -50.5t-77.5 -33t-100 -12q-102 1 -172 81.5t-76 190.5q-20 275 139 324q50 15 97.5 14.5t85.5 -10t83 -34.5t78 -49t80 -62q67 384 209 766q-237 25 -401 124q-147 89 -273 236.5t-147 275.5zM-315 252 q10 -76 53.5 -141t111.5 -84q36 -10 69 -11t59 7.5t48 19.5t41 29.5t32.5 33.5t27.5 35q24 34 41 82t24 82.5t19 104.5q-74 75 -162.5 121.5t-176.5 46t-140 -63.5q-33 -38 -45 -112t-2 -150zM492 1266q136 -1 343 28t271 45q3 55 9.5 151.5t9.5 149.5t6 129t2 145.5 t-5 143.5q-2 49 -15 112.5t-40 122t-59 64.5q-48 8 -119 -104q-27 -43 -137.5 -294.5t-124.5 -299.5q-76 -200 -141 -393zM636.5 2590q-7.5 35 2.5 58l10 59q1 2 4 15.5t5.5 18.5t9.5 12.5t18 9.5q43 8 54 4t28 -25q13 -13 14 -49t-9 -72.5t-37 -60t-64 -12.5 q-28 7 -35.5 42zM1005 2590q-7 35 3 58l10 59q1 2 4 15.5t5.5 18.5t9.5 12.5t18 9.5q43 8 54 4t28 -25q13 -13 14 -49t-9 -72.5t-37.5 -60t-64.5 -12.5q-28 7 -35 42z" />
<glyph unicode="&#xc5;" horiz-adv-x="1884" d="M-395 1853q-17 92 23.5 158t131.5 94q136 30 295 -67q3 -2 8.5 -5t9.5 -5t8.5 -5t7 -5.5t4 -5t1.5 -5.5t-2 -6q-4 -4 -13.5 -0.5t-25 13.5t-16.5 11q-75 36 -140.5 50.5t-120.5 7.5t-90.5 -46t-43.5 -108q-5 -54 18 -119t61 -120.5t69.5 -94t57.5 -63.5 q152 -138 304.5 -200t287.5 -62q45 103 169.5 441.5t213.5 508.5q33 56 63 95t50.5 56.5t39.5 27.5t30.5 8t23.5 -1q70 -8 129 -89t96 -198.5t63 -260.5t37 -269t11 -229q23 -3 83.5 -10.5t92 -12t78 -16t82.5 -27.5q46 -19 137 -66t127 -71q61 -37 49 -49q-7 -5 -25.5 4.5 t-45.5 28.5t-41 26q-121 70 -195 95q-130 42 -336 32l-59 -549l-60 -491l-57 -614q-1 -11 -2 -35q-16 -261 -1 -389q34 -288 220 -349q307 -71 621 232q34 33 55 52.5t59 49t69 45t77 32t91.5 19.5t105 -2.5t124.5 -23.5q10 -3 31.5 -7.5t34.5 -8t27.5 -12.5t21.5 -23 q13 -18 2 -29q-9 -13 -23.5 -7.5t-25 16t-26 24t-27.5 16.5q-178 54 -334 0q-44 -19 -88.5 -53t-85 -74.5t-83.5 -83t-101.5 -89.5t-120.5 -83q-7 -3 -41 -17.5t-53.5 -21.5t-60.5 -17.5t-76 -13t-84.5 0.5t-100.5 16q-86 28 -141 69.5t-101 116.5q-58 93 -86 236 q-61 325 -57 684l20 500l54 845q-57 -3 -171 -15.5t-226.5 -20t-217.5 -2.5q-43 -87 -74 -193q-108 -354 -145 -614q155 -167 227 -328q2 -5 12 -24.5t14.5 -33t0.5 -18.5q-4 0 -7 -1t-6.5 3t-6 6.5t-5.5 8.5t-4.5 9.5t-4 9.5t-3.5 9q-41 89 -100.5 175t-122.5 145 q-3 -9 -9.5 -40t-12.5 -55t-19.5 -61t-29 -65t-42 -58.5t-58 -50.5t-77.5 -33t-100 -12q-102 1 -172 81.5t-76 190.5q-20 275 139 324q50 15 97.5 14.5t85.5 -10t83 -34.5t78 -49t80 -62q67 384 209 766q-237 25 -401 124q-147 89 -273 236.5t-147 275.5zM-315 252 q10 -76 53.5 -141t111.5 -84q36 -10 69 -11t59 7.5t48 19.5t41 29.5t32.5 33.5t27.5 35q24 34 41 82t24 82.5t19 104.5q-74 75 -162.5 121.5t-176.5 46t-140 -63.5q-33 -38 -45 -112t-2 -150zM492 1266q136 -1 343 28t271 45q3 55 9.5 151.5t9.5 149.5t6 129t2 145.5 t-5 143.5q-2 49 -15 112.5t-40 122t-59 64.5q-48 8 -119 -104q-27 -43 -137.5 -294.5t-124.5 -299.5q-76 -200 -141 -393zM934 2738q11 70 26.5 97.5t43.5 35.5q33 12 62 9t42.5 -8.5t30.5 -16.5q17 -12 24 -42t0.5 -65t-24 -67t-54 -50t-84.5 -10q-43 7 -58.5 48.5 t-8.5 68.5zM997 2748q-4 -21 5.5 -49.5t35.5 -32.5q39 -7 67 14t36.5 52t6 61.5t-17.5 40.5q-21 17 -40.5 19t-49.5 -6q-11 -2 -19.5 -16.5t-12 -28.5t-7.5 -34z" />
<glyph unicode="&#xc6;" horiz-adv-x="2494" d="M-395 1853q-17 92 23.5 158t131.5 94q136 30 295 -67q3 -2 8.5 -5t9.5 -5t8.5 -5t7 -5.5t4 -5t1.5 -5.5t-2 -6q-4 -4 -13.5 -0.5t-25 13.5t-16.5 11q-75 36 -140.5 50.5t-120.5 7.5t-90.5 -46t-43.5 -108q-5 -54 18 -119t61 -120.5t69.5 -94t57.5 -63.5 q152 -138 304.5 -200t287.5 -62q45 103 169.5 441.5t213.5 508.5q33 56 63 95t50.5 56.5t39.5 27.5t30.5 8t23.5 -1q64 -7 119 -76t91.5 -170.5t64 -230t41.5 -247.5t18 -230q39 155 90 260q27 75 102.5 169t171.5 164.5t168 74.5q117 19 204.5 -26t115.5 -140 q23 -80 -4.5 -167.5t-92 -166t-152 -147t-187.5 -119.5q-58 -30 -130 -47t-99.5 -19t-45.5 -2q-2 -91 35 -215.5t82 -169.5q36 39 78.5 57.5t75.5 19.5t66.5 -7.5t49 -16t25.5 -14.5q59 -37 68 -93.5t-51.5 -94t-176.5 -19.5q-30 4 -85.5 25.5t-63.5 23.5q-5 -6 -40 -44 t-57 -63.5t-61 -78t-67.5 -100.5t-60 -116t-52.5 -138q-25 -131 -35 -209t-7 -178t25 -222l62 -237l37 -98q57 -130 160 -201.5t223 -54.5q86 13 166 76.5t129 146.5q108 186 177 268.5t199 167.5q100 58 214 86t208 24t164 -33.5t90 -80.5q11 -28 1.5 -54t-30 -38.5 t-42 -18.5t-33.5 6q-32 28 -26 48t27 30t42.5 18.5t19.5 12.5q-29 36 -67.5 56.5t-84.5 24t-79 2t-82 -8.5q-196 -29 -342 -132.5t-260 -293.5q-5 -12 -17.5 -32.5t-27 -43t-17.5 -27.5q-64 -113 -158 -173.5t-198 -63.5t-214.5 45.5t-209.5 144.5q-18 17 -34.5 35t-30.5 37 t-26 35.5t-24 37t-19.5 33t-17.5 32.5t-13.5 27.5t-11.5 25t-9 18.5q-76 200 -82 340q-3 91 4 180l16 410l54 845q-57 -3 -171 -15.5t-226.5 -20t-217.5 -2.5q-43 -87 -74 -193q-108 -354 -145 -614q155 -167 227 -328q2 -5 12 -24.5t14.5 -33t0.5 -18.5q-4 0 -7 -1t-6.5 3 t-6 6.5t-5.5 8.5t-4.5 9.5t-4 9.5t-3.5 9q-41 89 -100.5 175t-122.5 145q-3 -9 -9.5 -40t-12.5 -55t-19.5 -61t-29 -65t-42 -58.5t-58 -50.5t-77.5 -33t-100 -12q-102 1 -172 81.5t-76 190.5q-20 275 139 324q50 15 97.5 14.5t85.5 -10t83 -34.5t78 -49t80 -62 q67 384 209 766q-237 25 -401 124q-147 89 -273 236.5t-147 275.5zM-315 252q10 -76 53.5 -141t111.5 -84q36 -10 69 -11t59 7.5t48 19.5t41 29.5t32.5 33.5t27.5 35q24 34 41 82t24 82.5t19 104.5q-74 75 -162.5 121.5t-176.5 46t-140 -63.5q-33 -38 -45 -112t-2 -150z M492 1266q136 -1 343 28t271 45q3 55 9.5 151.5t9.5 149.5t6 129t2 145.5t-5 143.5q-2 49 -15 112.5t-40 122t-59 64.5q-48 8 -119 -104q-27 -43 -137.5 -294.5t-124.5 -299.5q-76 -200 -141 -393zM1303 659q77 89 213 195q-69 103 -102 175.5t-52 164.5l-49 -449z M1505 1335q133 0 279.5 73t261.5 185q25 25 37 38t34.5 40t33.5 46t24.5 49t17.5 56.5t2.5 60.5t-12.5 69q-28 71 -75.5 101t-104.5 20t-119 -47.5t-123 -98.5q-112 -95 -190 -277t-66 -315zM1665 838q74 -74 178 -78q33 -2 65 21.5t38 60.5t-41 82q-45 40 -117 20t-115 -92 z" />
<glyph unicode="&#xc7;" horiz-adv-x="1617" d="M8 494q4 80 38 214.5t66 229.5l31 94q7 23 17.5 51.5t23 58t26.5 60.5t28 60.5t27.5 56.5l25.5 51t20.5 40.5t14.5 27.5l6 12q-21 27 -41 57q-72 117 -68 279q4 103 30.5 198.5t79.5 181.5t127.5 152.5t179.5 112t230 59.5q132 15 269.5 10t144.5 -26q6 -16 -19 -19 q-5 -1 -30 -1q-35 2 -103.5 8t-116.5 9.5t-110 1.5t-108 -13q-149 -36 -258.5 -116.5t-173.5 -191.5q-37 -65 -62.5 -133t-41 -148t-6 -165.5t45.5 -163.5q10 -20 41 -63q191 379 477 579q76 51 177.5 82.5t189.5 11.5q70 -15 112.5 -38.5t79.5 -77.5q31 -51 31 -114.5 t-33.5 -134.5t-84 -141.5t-121.5 -136t-145 -116.5t-154.5 -84t-151.5 -39q-85 -4 -201 37q-28 -63 -73.5 -183.5t-113.5 -344.5t-95 -398q-7 -31 -13 -111.5t-4 -212t19 -241.5q41 -291 174 -359q76 -38 130.5 -52t117 -7t137.5 41q78 35 148 95t119 124t105 138t105.5 137 t120 121t149.5 91q90 46 172 48q169 9 269 -105q15 -15 18.5 -31t-6.5 -22q-19 -8 -32.5 -6t-31 16t-30.5 29t-30.5 32t-31.5 25q-59 29 -110 27q-80 -6 -149.5 -35.5t-120.5 -72.5t-108.5 -107.5t-104.5 -127t-116.5 -145t-136.5 -147.5q-158 -162 -364 -160q2 -9 5 -30 t5 -29q7 -20 24.5 -53.5t32 -62.5t26.5 -61.5t9.5 -63t-22.5 -54.5q-39 -41 -87.5 -36.5t-93 37t-61.5 72.5q-7 31 3.5 48.5t31.5 15.5q24 0 35 -18q11 -28 -21 -56q33 -31 65.5 -28t54.5 38t17 84q-2 26 -30 100t-25 99q-132 9 -244 70q-187 103 -254 276q-65 170 -91 384 t-3 399zM535 1331q46 -21 103.5 -27t103 -1t83.5 16q97 29 208.5 113.5t196.5 185.5t125.5 210.5t4.5 182.5q-27 52 -94.5 84t-112.5 19q-51 -14 -79.5 -30t-67.5 -48q-188 -150 -365 -471q-8 -10 -61 -122t-45 -112z" />
<glyph unicode="&#xc8;" horiz-adv-x="1556" d="M-45.5 2159q-9.5 63 5.5 112.5t49.5 89.5t87.5 61t119.5 27.5t145.5 -12.5q17 -2 35 -3.5t30.5 -2.5l25 -2t20.5 -2t15 -3t10.5 -5.5t6 -8.5t1.5 -11.5t-4 -16.5q-4 -9 -19 -9.5t-38 6t-47.5 14t-52.5 15t-48 9.5q-54 3 -99 3t-89.5 -20.5t-79.5 -64.5q-29 -31 -36.5 -90 t1 -108.5t22.5 -78.5q62 -135 155.5 -210.5t227.5 -112.5q48 244 117 383q27 75 102.5 168.5t171.5 164t168 74.5q117 19 204.5 -26t115.5 -140q23 -80 -4.5 -167.5t-92 -166t-152 -147t-187.5 -119.5q-58 -30 -130.5 -47t-99 -18.5t-45.5 -1.5q-2 -91 35 -215.5t82 -169.5 q36 39 78.5 57.5t75.5 19.5t66.5 -7.5t49 -16t25.5 -14.5q59 -37 68 -93.5t-51.5 -94t-176.5 -19.5q-30 4 -85.5 25.5t-63.5 23.5q-4 -5 -39.5 -43.5t-57 -64t-61 -78.5t-68 -100.5t-60 -116t-52.5 -138.5q-25 -131 -35 -209t-7 -177.5t25 -221.5l62 -238l37 -98 q57 -130 160 -201.5t223 -54.5q86 13 166 76.5t129 146.5q108 186 177 268.5t199 167.5q100 58 214 86t208 24t164 -33.5t90 -80.5q9 -23 4 -44.5t-18.5 -34.5t-30.5 -23t-33 -9.5t-26 7.5q-32 28 -26 47.5t27 29.5t42.5 18.5t19.5 12.5q-29 36 -67.5 56.5t-84.5 24t-79 2 t-82 -8.5q-196 -29 -342 -132.5t-260 -293.5q-5 -12 -17.5 -32.5t-27 -42t-17.5 -27.5q-64 -113 -158 -173.5t-198 -63.5t-214.5 45.5t-209.5 144.5q-16 15 -31 32t-27.5 32t-25.5 33.5t-22 32t-19.5 31.5t-16.5 29t-14.5 28t-11.5 24t-10 21.5t-8 16.5q-29 75 -44.5 152.5 t-17.5 102t-4 71.5q-4 107 2 198t23 162.5t27.5 104.5t29.5 84q35 81 80.5 154.5t83.5 121.5t89 97t78.5 71.5t70.5 55.5q-84 126 -117 211.5t-55 228.5q-137 44 -239.5 121.5t-168.5 208.5q-34 66 -43.5 129zM567 1724q130 0 275.5 79t265.5 196q25 26 36.5 38t34.5 39.5 t34 46t25 48.5t17.5 56.5t2 60.5t-12.5 69q-28 71 -75.5 101t-104.5 20.5t-119 -47t-123 -98.5q-111 -94 -189.5 -284.5t-66.5 -324.5zM727 1243q74 -74 178 -78q33 -2 65 21.5t38 60.5t-41 82q-45 40 -117 20t-115 -92zM848 2894q0 68 61 84q7 5 19 2t17.5 -4.5t16.5 -10 t15.5 -13t14.5 -14t14 -13.5l79 -76q39 -36 65.5 -87t10.5 -77q-23 -32 -59.5 -29.5t-80.5 32.5t-82 68.5t-64 77.5t-27 60z" />
<glyph unicode="&#xc9;" horiz-adv-x="1556" d="M-45.5 2159q-9.5 63 5.5 112.5t49.5 89.5t87.5 61t119.5 27.5t145.5 -12.5q17 -2 35 -3.5t30.5 -2.5l25 -2t20.5 -2t15 -3t10.5 -5.5t6 -8.5t1.5 -11.5t-4 -16.5q-4 -9 -19 -9.5t-38 6t-47.5 14t-52.5 15t-48 9.5q-54 3 -99 3t-89.5 -20.5t-79.5 -64.5q-29 -31 -36.5 -90 t1 -108.5t22.5 -78.5q62 -135 155.5 -210.5t227.5 -112.5q48 244 117 383q27 75 102.5 168.5t171.5 164t168 74.5q117 19 204.5 -26t115.5 -140q23 -80 -4.5 -167.5t-92 -166t-152 -147t-187.5 -119.5q-58 -30 -130.5 -47t-99 -18.5t-45.5 -1.5q-2 -91 35 -215.5t82 -169.5 q36 39 78.5 57.5t75.5 19.5t66.5 -7.5t49 -16t25.5 -14.5q59 -37 68 -93.5t-51.5 -94t-176.5 -19.5q-30 4 -85.5 25.5t-63.5 23.5q-4 -5 -39.5 -43.5t-57 -64t-61 -78.5t-68 -100.5t-60 -116t-52.5 -138.5q-25 -131 -35 -209t-7 -177.5t25 -221.5l62 -238l37 -98 q57 -130 160 -201.5t223 -54.5q86 13 166 76.5t129 146.5q108 186 177 268.5t199 167.5q100 58 214 86t208 24t164 -33.5t90 -80.5q9 -23 4 -44.5t-18.5 -34.5t-30.5 -23t-33 -9.5t-26 7.5q-32 28 -26 47.5t27 29.5t42.5 18.5t19.5 12.5q-29 36 -67.5 56.5t-84.5 24t-79 2 t-82 -8.5q-196 -29 -342 -132.5t-260 -293.5q-5 -12 -17.5 -32.5t-27 -42t-17.5 -27.5q-64 -113 -158 -173.5t-198 -63.5t-214.5 45.5t-209.5 144.5q-16 15 -31 32t-27.5 32t-25.5 33.5t-22 32t-19.5 31.5t-16.5 29t-14.5 28t-11.5 24t-10 21.5t-8 16.5q-29 75 -44.5 152.5 t-17.5 102t-4 71.5q-4 107 2 198t23 162.5t27.5 104.5t29.5 84q35 81 80.5 154.5t83.5 121.5t89 97t78.5 71.5t70.5 55.5q-84 126 -117 211.5t-55 228.5q-137 44 -239.5 121.5t-168.5 208.5q-34 66 -43.5 129zM567 1724q130 0 275.5 79t265.5 196q25 26 36.5 38t34.5 39.5 t34 46t25 48.5t17.5 56.5t2 60.5t-12.5 69q-28 71 -75.5 101t-104.5 20.5t-119 -47t-123 -98.5q-111 -94 -189.5 -284.5t-66.5 -324.5zM727 1243q74 -74 178 -78q33 -2 65 21.5t38 60.5t-41 82q-45 40 -117 20t-115 -92zM819 2691q-17 28 10.5 78t65.5 86l80 76l13.5 13.5 t14.5 14t15.5 12.5t16.5 10t17.5 5t18.5 -2q62 -16 62 -84q-1 -21 -27 -60t-64.5 -77.5t-82 -68.5t-80.5 -32.5t-60 29.5z" />
<glyph unicode="&#xca;" horiz-adv-x="1556" d="M-45.5 2159q-9.5 63 5.5 112.5t49.5 89.5t87.5 61t119.5 27.5t145.5 -12.5q17 -2 35 -3.5t30.5 -2.5l25 -2t20.5 -2t15 -3t10.5 -5.5t6 -8.5t1.5 -11.5t-4 -16.5q-4 -9 -19 -9.5t-38 6t-47.5 14t-52.5 15t-48 9.5q-54 3 -99 3t-89.5 -20.5t-79.5 -64.5q-29 -31 -36.5 -90 t1 -108.5t22.5 -78.5q62 -135 155.5 -210.5t227.5 -112.5q48 244 117 383q27 75 102.5 168.5t171.5 164t168 74.5q117 19 204.5 -26t115.5 -140q23 -80 -4.5 -167.5t-92 -166t-152 -147t-187.5 -119.5q-58 -30 -130.5 -47t-99 -18.5t-45.5 -1.5q-2 -91 35 -215.5t82 -169.5 q36 39 78.5 57.5t75.5 19.5t66.5 -7.5t49 -16t25.5 -14.5q59 -37 68 -93.5t-51.5 -94t-176.5 -19.5q-30 4 -85.5 25.5t-63.5 23.5q-4 -5 -39.5 -43.5t-57 -64t-61 -78.5t-68 -100.5t-60 -116t-52.5 -138.5q-25 -131 -35 -209t-7 -177.5t25 -221.5l62 -238l37 -98 q57 -130 160 -201.5t223 -54.5q86 13 166 76.5t129 146.5q108 186 177 268.5t199 167.5q100 58 214 86t208 24t164 -33.5t90 -80.5q9 -23 4 -44.5t-18.5 -34.5t-30.5 -23t-33 -9.5t-26 7.5q-32 28 -26 47.5t27 29.5t42.5 18.5t19.5 12.5q-29 36 -67.5 56.5t-84.5 24t-79 2 t-82 -8.5q-196 -29 -342 -132.5t-260 -293.5q-5 -12 -17.5 -32.5t-27 -42t-17.5 -27.5q-64 -113 -158 -173.5t-198 -63.5t-214.5 45.5t-209.5 144.5q-16 15 -31 32t-27.5 32t-25.5 33.5t-22 32t-19.5 31.5t-16.5 29t-14.5 28t-11.5 24t-10 21.5t-8 16.5q-29 75 -44.5 152.5 t-17.5 102t-4 71.5q-4 107 2 198t23 162.5t27.5 104.5t29.5 84q35 81 80.5 154.5t83.5 121.5t89 97t78.5 71.5t70.5 55.5q-84 126 -117 211.5t-55 228.5q-137 44 -239.5 121.5t-168.5 208.5q-34 66 -43.5 129zM567 1724q130 0 275.5 79t265.5 196q25 26 36.5 38t34.5 39.5 t34 46t25 48.5t17.5 56.5t2 60.5t-12.5 69q-28 71 -75.5 101t-104.5 20.5t-119 -47t-123 -98.5q-111 -94 -189.5 -284.5t-66.5 -324.5zM727 1243q74 -74 178 -78q33 -2 65 21.5t38 60.5t-41 82q-45 40 -117 20t-115 -92zM733 2673q-8 11 5.5 24t41 30.5t39.5 29.5 q129 118 234 153q36 7 67 -4t50.5 -34.5t35 -53t21.5 -58t9.5 -50.5t-1.5 -31q-15 -21 -41 -21q-29 1 -52.5 28t-37 59.5t-33 67.5t-39.5 48q-20 -9 -41.5 -23.5t-34 -24t-38 -29.5t-33.5 -27q-13 -8 -52 -39t-64.5 -44.5t-35.5 -0.5z" />
<glyph unicode="&#xcb;" horiz-adv-x="1556" d="M-45.5 2159q-9.5 63 5.5 112.5t49.5 89.5t87.5 61t119.5 27.5t145.5 -12.5q17 -2 35 -3.5t30.5 -2.5l25 -2t20.5 -2t15 -3t10.5 -5.5t6 -8.5t1.5 -11.5t-4 -16.5q-4 -9 -19 -9.5t-38 6t-47.5 14t-52.5 15t-48 9.5q-54 3 -99 3t-89.5 -20.5t-79.5 -64.5q-29 -31 -36.5 -90 t1 -108.5t22.5 -78.5q62 -135 155.5 -210.5t227.5 -112.5q48 244 117 383q27 75 102.5 168.5t171.5 164t168 74.5q117 19 204.5 -26t115.5 -140q23 -80 -4.5 -167.5t-92 -166t-152 -147t-187.5 -119.5q-58 -30 -130.5 -47t-99 -18.5t-45.5 -1.5q-2 -91 35 -215.5t82 -169.5 q36 39 78.5 57.5t75.5 19.5t66.5 -7.5t49 -16t25.5 -14.5q59 -37 68 -93.5t-51.5 -94t-176.5 -19.5q-30 4 -85.5 25.5t-63.5 23.5q-4 -5 -39.5 -43.5t-57 -64t-61 -78.5t-68 -100.5t-60 -116t-52.5 -138.5q-25 -131 -35 -209t-7 -177.5t25 -221.5l62 -238l37 -98 q57 -130 160 -201.5t223 -54.5q86 13 166 76.5t129 146.5q108 186 177 268.5t199 167.5q100 58 214 86t208 24t164 -33.5t90 -80.5q9 -23 4 -44.5t-18.5 -34.5t-30.5 -23t-33 -9.5t-26 7.5q-32 28 -26 47.5t27 29.5t42.5 18.5t19.5 12.5q-29 36 -67.5 56.5t-84.5 24t-79 2 t-82 -8.5q-196 -29 -342 -132.5t-260 -293.5q-5 -12 -17.5 -32.5t-27 -42t-17.5 -27.5q-64 -113 -158 -173.5t-198 -63.5t-214.5 45.5t-209.5 144.5q-16 15 -31 32t-27.5 32t-25.5 33.5t-22 32t-19.5 31.5t-16.5 29t-14.5 28t-11.5 24t-10 21.5t-8 16.5q-29 75 -44.5 152.5 t-17.5 102t-4 71.5q-4 107 2 198t23 162.5t27.5 104.5t29.5 84q35 81 80.5 154.5t83.5 121.5t89 97t78.5 71.5t70.5 55.5q-84 126 -117 211.5t-55 228.5q-137 44 -239.5 121.5t-168.5 208.5q-34 66 -43.5 129zM567 1724q130 0 275.5 79t265.5 196q25 26 36.5 38t34.5 39.5 t34 46t25 48.5t17.5 56.5t2 60.5t-12.5 69q-28 71 -75.5 101t-104.5 20.5t-119 -47t-123 -98.5q-111 -94 -189.5 -284.5t-66.5 -324.5zM727 1243q74 -74 178 -78q33 -2 65 21.5t38 60.5t-41 82q-45 40 -117 20t-115 -92zM767.5 2768q-7.5 35 2.5 58l10 60q1 4 3 12.5t4 14 t5.5 12t9.5 10.5t15 6q43 8 54 4t28 -25q13 -13 14 -49t-9 -72.5t-37 -60t-64 -12.5q-28 7 -35.5 42zM1136 2768q-7 35 3 58l10 60q1 4 3 12.5t4 14t5.5 12t9.5 10.5t15 6q43 8 54 4t28 -25q13 -13 14 -49t-9 -72.5t-37.5 -60t-64.5 -12.5q-28 7 -35 42z" />
<glyph unicode="&#xcc;" d="M-91.5 2563q-8.5 47 11 100.5t66.5 99.5q68 68 136.5 107t176.5 48q5 25 5.5 79t0 105.5t2.5 99.5t18 72.5t42 14.5q17 -7 25.5 -17.5t9 -27.5t-1.5 -31t-7.5 -39t-7.5 -39q-11 -68 -16 -213q104 -27 197.5 -132t154 -239.5t86.5 -275.5q34 -134 48.5 -366.5t4.5 -474.5 q-13 -324 -106.5 -701t-223.5 -665q-82 -181 -199 -361.5t-165 -230.5q-5 -6 -21.5 -23.5t-25 -26.5t-22.5 -22t-26 -20.5t-24 -12.5q-20 -9 -43.5 -15t-49.5 -3t-32 24q-4 15 5 18.5t27 1.5t23 -1q33 7 64 29.5t52 44t50.5 72t43.5 77.5t47 96q15 30 22 45q184 376 301 815 t147.5 870t-34.5 818q-21 120 -68.5 257.5t-91.5 213.5q-63 108 -137 137q-9 -34 -11 -53q-26 -217 -80 -318t-165 -104q-54 -2 -100.5 20t-73 61t-35 86zM-47.5 2620.5q-13.5 -53.5 7 -100t69.5 -71.5q61 -28 112 -6q46 17 78.5 62.5t48.5 109.5t22.5 128t4.5 134 q-99 -16 -175.5 -57.5t-115 -93.5t-52 -105.5zM340 3574q0 68 61 84q7 5 18.5 2t18 -5t16.5 -10t15.5 -13t15 -14.5l13.5 -13.5l80 -75q39 -36 65 -87t10 -77q-23 -32 -59.5 -29.5t-80.5 32.5t-82 68.5t-64 77.5t-27 60z" />
<glyph unicode="&#xcd;" d="M-91.5 2563q-8.5 47 11 100.5t66.5 99.5q68 68 136.5 107t176.5 48q5 25 5.5 79t0 105.5t2.5 99.5t18 72.5t42 14.5q17 -7 25.5 -17.5t9 -27.5t-1.5 -31t-7.5 -39t-7.5 -39q-11 -68 -16 -213q104 -27 197.5 -132t154 -239.5t86.5 -275.5q34 -134 48.5 -366.5t4.5 -474.5 q-13 -324 -106.5 -701t-223.5 -665q-82 -181 -199 -361.5t-165 -230.5q-5 -6 -21.5 -23.5t-25 -26.5t-22.5 -22t-26 -20.5t-24 -12.5q-20 -9 -43.5 -15t-49.5 -3t-32 24q-4 15 5 18.5t27 1.5t23 -1q33 7 64 29.5t52 44t50.5 72t43.5 77.5t47 96q15 30 22 45q184 376 301 815 t147.5 870t-34.5 818q-21 120 -68.5 257.5t-91.5 213.5q-63 108 -137 137q-9 -34 -11 -53q-26 -217 -80 -318t-165 -104q-54 -2 -100.5 20t-73 61t-35 86zM-47.5 2620.5q-13.5 -53.5 7 -100t69.5 -71.5q61 -28 112 -6q46 17 78.5 62.5t48.5 109.5t22.5 128t4.5 134 q-99 -16 -175.5 -57.5t-115 -93.5t-52 -105.5zM573 3109q-17 28 10.5 78t65.5 86l80 75q5 4 14 13.5t14.5 14.5t15 13t16 10t17.5 5t19 -2q62 -16 62 -84q-1 -21 -27 -60t-64.5 -77.5t-82 -68.5t-80.5 -32.5t-60 29.5z" />
<glyph unicode="&#xce;" d="M-91.5 2563q-8.5 47 11 100.5t66.5 99.5q68 68 136.5 107t176.5 48q5 25 5.5 79t0 105.5t2.5 99.5t18 72.5t42 14.5q17 -7 25.5 -17.5t9 -27.5t-1.5 -31t-7.5 -39t-7.5 -39q-11 -68 -16 -213q104 -27 197.5 -132t154 -239.5t86.5 -275.5q34 -134 48.5 -366.5t4.5 -474.5 q-13 -324 -106.5 -701t-223.5 -665q-82 -181 -199 -361.5t-165 -230.5q-5 -6 -21.5 -23.5t-25 -26.5t-22.5 -22t-26 -20.5t-24 -12.5q-20 -9 -43.5 -15t-49.5 -3t-32 24q-4 15 5 18.5t27 1.5t23 -1q33 7 64 29.5t52 44t50.5 72t43.5 77.5t47 96q15 30 22 45q184 376 301 815 t147.5 870t-34.5 818q-21 120 -68.5 257.5t-91.5 213.5q-63 108 -137 137q-9 -34 -11 -53q-26 -217 -80 -318t-165 -104q-54 -2 -100.5 20t-73 61t-35 86zM-47.5 2620.5q-13.5 -53.5 7 -100t69.5 -71.5q61 -28 112 -6q46 17 78.5 62.5t48.5 109.5t22.5 128t4.5 134 q-99 -16 -175.5 -57.5t-115 -93.5t-52 -105.5zM186 3365q-8 11 5.5 24t41 30.5t39.5 29.5q129 118 234 153q36 7 67 -4t50.5 -34.5t35 -53t21.5 -58t9.5 -50.5t-1.5 -31q-14 -20 -41 -20q-29 1 -52.5 27.5t-37 59t-33 67.5t-39.5 48q-20 -9 -41.5 -23.5t-34 -24t-38 -29.5 t-33.5 -27q-13 -8 -52 -39t-64.5 -44.5t-35.5 -0.5z" />
<glyph unicode="&#xcf;" d="M-91.5 2563q-8.5 47 11 100.5t66.5 99.5q68 68 136.5 107t176.5 48q5 25 5.5 79t0 105.5t2.5 99.5t18 72.5t42 14.5q17 -7 25.5 -17.5t9 -27.5t-1.5 -31t-7.5 -39t-7.5 -39q-11 -68 -16 -213q104 -27 197.5 -132t154 -239.5t86.5 -275.5q34 -134 48.5 -366.5t4.5 -474.5 q-13 -324 -106.5 -701t-223.5 -665q-82 -181 -199 -361.5t-165 -230.5q-5 -6 -21.5 -23.5t-25 -26.5t-22.5 -22t-26 -20.5t-24 -12.5q-20 -9 -43.5 -15t-49.5 -3t-32 24q-4 15 5 18.5t27 1.5t23 -1q33 7 64 29.5t52 44t50.5 72t43.5 77.5t47 96q15 30 22 45q184 376 301 815 t147.5 870t-34.5 818q-21 120 -68.5 257.5t-91.5 213.5q-63 108 -137 137q-9 -34 -11 -53q-26 -217 -80 -318t-165 -104q-54 -2 -100.5 20t-73 61t-35 86zM-47.5 2620.5q-13.5 -53.5 7 -100t69.5 -71.5q61 -28 112 -6q46 17 78.5 62.5t48.5 109.5t22.5 128t4.5 134 q-99 -16 -175.5 -57.5t-115 -93.5t-52 -105.5zM255.5 3425.5q-7.5 35.5 2.5 58.5l10 59q1 4 3 12.5t4 14t5.5 12t9.5 10.5t15 6q43 8 54 4.5t28 -24.5q13 -13 14 -49.5t-9 -73t-37 -60t-64 -12.5q-28 7 -35.5 42.5zM624 3425.5q-7 35.5 3 58.5l10 59q1 4 3 12.5t4 14t5.5 12 t9.5 10.5t15 6q43 8 54 4.5t28 -24.5q13 -13 14 -49.5t-9 -73t-37.5 -60t-64.5 -12.5q-28 7 -35 42.5z" />
<glyph unicode="&#xd0;" horiz-adv-x="2027" d="M-55 2339q-16 97 6 176t89 128.5t169 45.5q105 -3 235 -82q7 -5 6.5 -9.5t-10.5 -4.5q-22 7 -83 32t-104.5 35t-86.5 4q-63 -9 -106.5 -39t-64.5 -74t-27.5 -100t5.5 -118q21 -129 115 -209.5t234.5 -98.5t316.5 19q0 132 36.5 285t65.5 196q55 83 116 110.5t163 22.5 q60 -11 98.5 -60.5t44.5 -110.5t-8 -124q-28 -93 -142 -186t-257 -154q3 -670 -17 -1146q183 0 281 -5q26 -1 40 -3t43 -8.5t41 -21t5 -36.5q-11 -42 -416 -33q-6 -134 -18 -225q-14 -129 -37.5 -241.5t-47 -191.5t-64.5 -171t-69.5 -146.5t-82.5 -150.5q20 -5 89 -23.5 t105.5 -25t126 -12t203.5 -1.5q62 4 117.5 23t99 45t85 68.5t71.5 81t62.5 95t53.5 98.5t50 103q55 119 81.5 279t17 344.5t-52 368t-135 364t-223.5 317.5q-19 20 -48.5 39.5t-53.5 26.5q-56 15 -65 27q-7 10 1 24q18 26 89 -19.5t145 -111.5q190 -170 307.5 -334 t180.5 -367.5t63 -451.5q0 -289 -114.5 -538t-319.5 -406q-48 -38 -137.5 -64.5t-189 -37t-199.5 -10t-179 13.5q-29 5 -81.5 15.5t-95.5 17t-83 8.5q-35 -59 -92.5 -107.5t-117.5 -73t-116.5 -10t-85.5 75.5q-73 147 141 168q75 7 228 -6h4q52 90 114.5 398t106.5 730 l-88 4l-389 4q-7 1 -21.5 2.5t-20 2t-15.5 2.5t-14 4.5t-9.5 6.5t-8 9.5t-3.5 13.5q0 24 104 41q45 6 140 6l333 5q54 547 54 1116q-614 -75 -684 346zM-12 -459q3 -81 76 -93q71 -12 156 42q79 51 106 123q-15 1 -52.5 4t-63.5 4.5t-63.5 2t-62.5 -4t-49 -13t-36 -25 t-11 -40.5zM760 2062q187 82 293.5 221t62.5 248q-24 49 -59 68.5t-70.5 12t-69 -34t-59.5 -66.5q-36 -58 -71 -228.5t-27 -220.5z" />
<glyph unicode="&#xd1;" horiz-adv-x="1679" d="M-351.5 57.5q0.5 8.5 7.5 12.5q16 10 28.5 8.5t25.5 -19.5t23 -40t22 -53t21.5 -58.5t22.5 -55.5t25 -45q27 -37 73 -62t93 -15q34 7 62 28t49 54.5t33.5 59.5t27.5 65q10 27 38.5 123t66 227.5t80 284t83 298t74 264.5t54 189.5t20.5 65.5q-2 20 -48 161 q-110 403 -47 623q8 28 20 56t31 57t41.5 45.5t51 21t59.5 -17.5q14 -10 30 -29t34.5 -63.5t23.5 -98.5q5 -56 4.5 -106.5t-3.5 -88.5t-12 -86.5t-17 -81.5t-23 -91q-30 -87 -29 -97l113 -364q31 -101 102.5 -310t124.5 -397q12 -47 42 -146.5t42 -148.5q16 33 355 1485 q42 177 76.5 305t74 248.5t79 201.5t86.5 146t101 101t119 49q20 4 47.5 5.5t57.5 -1t50.5 -14.5t20.5 -33q-4 -14 -34 -20t-76 -9t-62 -6q-61 -11 -113 -46t-93.5 -91.5t-77.5 -130t-66.5 -167.5t-58.5 -199t-56 -228.5t-56 -252.5q-4 -20 -6.5 -30.5t-6 -27.5t-6.5 -31 q0 -3 -165.5 -684t-164.5 -688q0 -21 15 -79t16 -65q124 -597 45 -715q-12 -24 -48 -33.5t-79 1.5q-27 11 -57.5 69.5t-37.5 102.5q-5 28 -6.5 58t-1 51t5 53.5t6.5 45.5t9 48.5t8 42.5q3 18 9.5 45t10.5 46t7 43t2 48t-7 49q-14 54 -47 164t-39 129q-14 49 -36 144.5 t-37 146.5q-36 123 -150.5 455t-128.5 360q-15 -18 -94.5 -312.5t-172.5 -637.5t-132 -445q-3 -7 -12.5 -29t-13.5 -31t-13 -29t-15.5 -30t-17 -26.5t-20.5 -26t-22.5 -21t-27 -18.5t-30.5 -12q-45 -13 -100 1.5t-99 49.5q-74 57 -137 201q-5 12 -14 29t-15.5 29.5t-12 25 t-5 21zM587.5 2154.5q-0.5 -68.5 4 -136t12.5 -117.5q25 -123 70 -234q19 66 35 144t25 165.5t5.5 159t-27.5 120.5t-69 52q-27 5 -41 -40t-14.5 -113.5zM819 2670.5q1 7.5 10 12.5q10 4 27.5 -15t41 -44t44.5 -31q57 -11 98 -3.5t89 30.5t84 47t83.5 47.5t87.5 31.5 q106 19 164 -39l13.5 -13.5l15.5 -15.5l15 -15t13 -15.5t9 -14t3.5 -12t-5.5 -8.5q-5 -4 -15 4.5t-25 25t-24 23.5q-17 15 -24 20t-19 10t-26 5q-43 -1 -88 -25.5t-78.5 -53.5t-87 -54.5t-111.5 -27.5q-44 -1 -86 -1t-86.5 16t-73.5 48q-3 4 -13 14t-17.5 18.5t-13.5 18 t-5 17zM1022 -513q-4 -63 12 -122t53 -100q61 61 50 225q-13 148 -66 287q-2 -15 -15 -68.5t-21.5 -106t-12.5 -115.5z" />
<glyph unicode="&#xd2;" horiz-adv-x="1536" d="M-20 1132.5q13 275.5 49 419.5q52 207 127 351q61 126 125 200q131 158 239 191q51 15 105 16t113 -26.5t100 -81.5l36 -50q14 -21 4 -30q-10 -10 -30 21l-8 14q-59 70 -78 81q-4 3 -14.5 12t-15 12t-15 9t-17.5 6h-19t-23.5 -6.5t-26.5 -15.5t-32.5 -25t-37.5 -37 q-119 -128 -199.5 -333t-116 -453t-34 -526.5t40.5 -565.5q13 -93 27.5 -166t38 -155.5t58 -138.5t77.5 -76q44 -21 88.5 -21.5t84.5 18.5t78 49t72.5 73.5t63.5 88.5t57 97q123 220 236.5 626t134.5 687q19 244 -60 448q-28 -34 -49.5 -46t-62.5 -13q-60 -3 -127.5 45 t-87.5 111q-23 68 44 86q65 17 156 -20q83 -34 115 -89q14 17 25 42t16 41t14.5 53.5t12.5 47.5q4 14 18 68.5t19 71.5t19.5 66.5t22.5 70t24.5 63.5t30 65t34.5 56.5t41.5 56t47 46t56.5 43.5q3 2 14.5 10t18.5 12t19 11t21 9.5t19.5 4t19.5 -1t17 -9.5q7 -22 7 -34.5 t-12 -22.5t-23.5 -14.5t-27.5 -11t-24 -11.5q-172 -98 -225 -217q-31 -71 -77 -252t-71 -252l-20 -55q54 -95 71.5 -245.5t4.5 -297.5t-47 -291q-39 -168 -83.5 -322.5t-101.5 -316t-122.5 -292t-139.5 -235t-160.5 -162.5t-177.5 -58q-79 0 -151 65.5t-125.5 169.5 t-97.5 240.5t-72 271.5t-43 269q-21 185 -8 460.5zM647 2736q0 68 62 84q7 5 18.5 2t17.5 -5t16.5 -10t15.5 -12.5t14.5 -14l13.5 -13.5l80 -76q39 -36 65.5 -87t10.5 -77q-23 -32 -60 -29.5t-80.5 32.5t-82 68.5t-64.5 77.5t-27 60zM930 1943q11 -46 70 -81q42 -25 90 -31 q28 -6 53.5 14t36.5 51q-40 48 -102 80.5t-111 22.5q-48 -12 -37 -56z" />
<glyph unicode="&#xd3;" horiz-adv-x="1536" d="M-20 1132.5q13 275.5 49 419.5q52 207 127 351q61 126 125 200q131 158 239 191q51 15 105 16t113 -26.5t100 -81.5l36 -50q14 -21 4 -30q-10 -10 -30 21l-8 14q-59 70 -78 81q-4 3 -14.5 12t-15 12t-15 9t-17.5 6h-19t-23.5 -6.5t-26.5 -15.5t-32.5 -25t-37.5 -37 q-119 -128 -199.5 -333t-116 -453t-34 -526.5t40.5 -565.5q13 -93 27.5 -166t38 -155.5t58 -138.5t77.5 -76q44 -21 88.5 -21.5t84.5 18.5t78 49t72.5 73.5t63.5 88.5t57 97q123 220 236.5 626t134.5 687q19 244 -60 448q-28 -34 -49.5 -46t-62.5 -13q-60 -3 -127.5 45 t-87.5 111q-23 68 44 86q65 17 156 -20q83 -34 115 -89q14 17 25 42t16 41t14.5 53.5t12.5 47.5q4 14 18 68.5t19 71.5t19.5 66.5t22.5 70t24.5 63.5t30 65t34.5 56.5t41.5 56t47 46t56.5 43.5q3 2 14.5 10t18.5 12t19 11t21 9.5t19.5 4t19.5 -1t17 -9.5q7 -22 7 -34.5 t-12 -22.5t-23.5 -14.5t-27.5 -11t-24 -11.5q-172 -98 -225 -217q-31 -71 -77 -252t-71 -252l-20 -55q54 -95 71.5 -245.5t4.5 -297.5t-47 -291q-39 -168 -83.5 -322.5t-101.5 -316t-122.5 -292t-139.5 -235t-160.5 -162.5t-177.5 -58q-79 0 -151 65.5t-125.5 169.5 t-97.5 240.5t-72 271.5t-43 269q-21 185 -8 460.5zM647 2515q-17 28 10.5 78t65.5 86l80 76l13.5 13.5t14.5 14t15.5 12.5t16.5 10t17.5 5t18.5 -2q62 -16 62 -84q-1 -21 -27 -60t-64.5 -77.5t-82 -68.5t-80.5 -32.5t-60 29.5zM930 1943q11 -46 70 -81q42 -25 90 -31 q28 -6 53.5 14t36.5 51q-40 48 -102 80.5t-111 22.5q-48 -12 -37 -56z" />
<glyph unicode="&#xd4;" horiz-adv-x="1536" d="M-20 1132.5q13 275.5 49 419.5q52 207 127 351q61 126 125 200q131 158 239 191q51 15 105 16t113 -26.5t100 -81.5l36 -50q14 -21 4 -30q-10 -10 -30 21l-8 14q-59 70 -78 81q-4 3 -14.5 12t-15 12t-15 9t-17.5 6h-19t-23.5 -6.5t-26.5 -15.5t-32.5 -25t-37.5 -37 q-119 -128 -199.5 -333t-116 -453t-34 -526.5t40.5 -565.5q13 -93 27.5 -166t38 -155.5t58 -138.5t77.5 -76q44 -21 88.5 -21.5t84.5 18.5t78 49t72.5 73.5t63.5 88.5t57 97q123 220 236.5 626t134.5 687q19 244 -60 448q-28 -34 -49.5 -46t-62.5 -13q-60 -3 -127.5 45 t-87.5 111q-23 68 44 86q65 17 156 -20q83 -34 115 -89q14 17 25 42t16 41t14.5 53.5t12.5 47.5q4 14 18 68.5t19 71.5t19.5 66.5t22.5 70t24.5 63.5t30 65t34.5 56.5t41.5 56t47 46t56.5 43.5q3 2 14.5 10t18.5 12t19 11t21 9.5t19.5 4t19.5 -1t17 -9.5q7 -22 7 -34.5 t-12 -22.5t-23.5 -14.5t-27.5 -11t-24 -11.5q-172 -98 -225 -217q-31 -71 -77 -252t-71 -252l-20 -55q54 -95 71.5 -245.5t4.5 -297.5t-47 -291q-39 -168 -83.5 -322.5t-101.5 -316t-122.5 -292t-139.5 -235t-160.5 -162.5t-177.5 -58q-79 0 -151 65.5t-125.5 169.5 t-97.5 240.5t-72 271.5t-43 269q-21 185 -8 460.5zM553 2574q-8 11 5.5 24t41 30.5t39.5 29.5q132 121 233 154q43 9 78.5 -9t55 -50t34 -68.5t15.5 -65t0 -39.5q-14 -20 -41 -20q-29 1 -52.5 28t-37 59.5t-33 67.5t-39.5 48q-20 -9 -41.5 -23t-35 -24.5t-37 -30 t-33.5 -27.5q-13 -8 -52 -39t-64.5 -44.5t-35.5 -0.5zM930 1943q11 -46 70 -81q42 -25 90 -31q28 -6 53.5 14t36.5 51q-40 48 -102 80.5t-111 22.5q-48 -12 -37 -56z" />
<glyph unicode="&#xd5;" horiz-adv-x="1536" d="M-20 1132.5q13 275.5 49 419.5q52 207 127 351q61 126 125 200q131 158 239 191q51 15 105 16t113 -26.5t100 -81.5l36 -50q14 -21 4 -30q-10 -10 -30 21l-8 14q-59 70 -78 81q-4 3 -14.5 12t-15 12t-15 9t-17.5 6h-19t-23.5 -6.5t-26.5 -15.5t-32.5 -25t-37.5 -37 q-119 -128 -199.5 -333t-116 -453t-34 -526.5t40.5 -565.5q13 -93 27.5 -166t38 -155.5t58 -138.5t77.5 -76q44 -21 88.5 -21.5t84.5 18.5t78 49t72.5 73.5t63.5 88.5t57 97q123 220 236.5 626t134.5 687q19 244 -60 448q-28 -34 -49.5 -46t-62.5 -13q-60 -3 -127.5 45 t-87.5 111q-23 68 44 86q65 17 156 -20q83 -34 115 -89q14 17 25 42t16 41t14.5 53.5t12.5 47.5q4 14 18 68.5t19 71.5t19.5 66.5t22.5 70t24.5 63.5t30 65t34.5 56.5t41.5 56t47 46t56.5 43.5q3 2 14.5 10t18.5 12t19 11t21 9.5t19.5 4t19.5 -1t17 -9.5q7 -22 7 -34.5 t-12 -22.5t-23.5 -14.5t-27.5 -11t-24 -11.5q-172 -98 -225 -217q-31 -71 -77 -252t-71 -252l-20 -55q54 -95 71.5 -245.5t4.5 -297.5t-47 -291q-39 -168 -83.5 -322.5t-101.5 -316t-122.5 -292t-139.5 -235t-160.5 -162.5t-177.5 -58q-79 0 -151 65.5t-125.5 169.5 t-97.5 240.5t-72 271.5t-43 269q-21 185 -8 460.5zM393 2684.5q1 7.5 10 12.5q10 4 27.5 -15t41 -44t44.5 -31q57 -11 98 -3.5t89 31t84 47.5t83.5 47.5t87.5 31.5q106 19 164 -39l13.5 -13.5l15.5 -15.5l15 -15t13 -15.5t9 -14t3.5 -12t-5.5 -8.5q-5 -4 -15 4.5t-25 25 t-24 23.5q-17 15 -24 20t-19 10t-26 5q-36 -1 -71 -17t-65 -39t-62 -46.5t-75.5 -40.5t-91.5 -19q-44 -1 -86 -1t-86.5 16t-73.5 48q-3 4 -13 14t-17.5 18.5t-13.5 18t-5 17zM930 1943q11 -46 70 -81q42 -25 90 -31q28 -6 53.5 14t36.5 51q-40 48 -102 80.5t-111 22.5 q-48 -12 -37 -56z" />
<glyph unicode="&#xd6;" horiz-adv-x="1536" d="M-20 1132.5q13 275.5 49 419.5q52 207 127 351q61 126 125 200q131 158 239 191q51 15 105 16t113 -26.5t100 -81.5l36 -50q14 -21 4 -30q-10 -10 -30 21l-8 14q-59 70 -78 81q-4 3 -14.5 12t-15 12t-15 9t-17.5 6h-19t-23.5 -6.5t-26.5 -15.5t-32.5 -25t-37.5 -37 q-119 -128 -199.5 -333t-116 -453t-34 -526.5t40.5 -565.5q13 -93 27.5 -166t38 -155.5t58 -138.5t77.5 -76q44 -21 88.5 -21.5t84.5 18.5t78 49t72.5 73.5t63.5 88.5t57 97q123 220 236.5 626t134.5 687q19 244 -60 448q-28 -34 -49.5 -46t-62.5 -13q-60 -3 -127.5 45 t-87.5 111q-23 68 44 86q65 17 156 -20q83 -34 115 -89q14 17 25 42t16 41t14.5 53.5t12.5 47.5q4 14 18 68.5t19 71.5t19.5 66.5t22.5 70t24.5 63.5t30 65t34.5 56.5t41.5 56t47 46t56.5 43.5q3 2 14.5 10t18.5 12t19 11t21 9.5t19.5 4t19.5 -1t17 -9.5q7 -22 7 -34.5 t-12 -22.5t-23.5 -14.5t-27.5 -11t-24 -11.5q-172 -98 -225 -217q-31 -71 -77 -252t-71 -252l-20 -55q54 -95 71.5 -245.5t4.5 -297.5t-47 -291q-39 -168 -83.5 -322.5t-101.5 -316t-122.5 -292t-139.5 -235t-160.5 -162.5t-177.5 -58q-79 0 -151 65.5t-125.5 169.5 t-97.5 240.5t-72 271.5t-43 269q-21 185 -8 460.5zM575 2594q-7 35 3 58l10 60q1 4 3 12.5t4 14t5.5 12t9.5 10.5t15 6q43 8 54 4t28 -25q13 -13 14 -49t-9 -72.5t-37.5 -60t-64.5 -12.5q-28 7 -35 42zM930 1943q11 -46 70 -81q42 -25 90 -31q28 -6 53.5 14t36.5 51 q-40 48 -102 80.5t-111 22.5q-48 -12 -37 -56zM943.5 2594q-7.5 35 2.5 58l10 60q1 4 3 12.5t4 14t5.5 12t9.5 10.5t15 6q43 8 54 4t28 -25q13 -13 14 -49t-9 -72.5t-37 -60t-64 -12.5q-28 7 -35.5 42z" />
<glyph unicode="&#xd7;" d="M91.5 1217q-0.5 4 1 7.5t3.5 6.5q32 38 256 -170q24 -19 275 -246q245 224 272 246q224 208 256 170q13 -17 -22 -74q-29 -43 -71.5 -84t-141.5 -126.5t-175 -155.5l-17.5 -17.5t-27.5 -25.5q288 -266 369 -347l5 -5q128 -127 65 -158q-48 -18 -512 436 q-469 -453 -514 -436q-63 32 65 159l4 4q81 81 369 347q-13 11 -27.5 25.5l-17.5 17.5q-75 69 -174.5 155t-141.5 127t-71 84q-1 2 -5 8t-5.5 8.5t-5 8.5t-5 9.5t-3.5 8.5t-2.5 9z" />
<glyph unicode="&#xd8;" horiz-adv-x="1536" d="M-46.5 -248q-3.5 17 8.5 51.5t26 66.5t41 87l80 154q-88 267 -121 561q-21 185 -8 460.5t49 419.5q52 207 127 351q61 126 125 200q131 158 239 191q51 15 105 16t113 -26.5t100 -81.5l36 -50q14 -21 4 -30q-10 -10 -30 21l-8 14q-59 70 -78 81q-4 3 -14.5 12t-15 12 t-15 9t-17.5 6h-19t-23.5 -6.5t-26.5 -15.5t-32.5 -25t-37.5 -37q-116 -126 -196 -326.5t-115.5 -439.5t-38.5 -515t35 -552q34 55 149.5 230.5t206.5 318.5q64 95 156.5 210t188 227t126.5 151q10 10 178 199q-12 70 -43 149q-28 -34 -49.5 -46t-62.5 -13q-60 -3 -127.5 45 t-87.5 111q-23 68 44 86q65 17 156 -20q83 -34 115 -89q14 17 25 42t16 41t14.5 53.5t12.5 47.5q4 14 18 68.5t19 71.5t19.5 66.5t22.5 70t24.5 63.5t30 65t34.5 56.5t41.5 56t47 46t56.5 43.5q3 2 14.5 10t18.5 12t19 11t21 9.5t19.5 4t19.5 -1t17 -9.5q7 -22 7 -34.5 t-12 -22.5t-23.5 -14.5t-27.5 -11t-24 -11.5q-172 -98 -225 -217q-31 -71 -77 -252t-71 -252l-20 -55q35 -63 53 -141l111 123q7 6 16.5 16t16 17.5t14.5 14.5t12.5 7t9.5 -6q25 -25 -161 -269q35 -265 -43 -596q-39 -168 -83.5 -322.5t-101.5 -316t-122.5 -292t-139.5 -235 t-160.5 -162.5t-177.5 -58q-96 0 -178.5 92.5t-148.5 251.5q-15 -25 -31 -57q-71 -143 -99 -179q-28 -38 -45 -32q-18 3 -21.5 20zM270 195q66 -360 183 -416q44 -21 88.5 -21.5t84.5 18.5t78 49t72.5 73.5t63.5 88.5t57 97q123 220 236.5 626t134.5 687q7 107 0 192 q-55 -72 -206 -263.5t-256.5 -332t-168.5 -239.5q-62 -99 -202 -309.5t-165 -249.5zM930 1943q11 -46 70 -81q42 -25 90 -31q28 -6 53.5 14t36.5 51q-40 48 -102 80.5t-111 22.5q-48 -12 -37 -56z" />
<glyph unicode="&#xd9;" horiz-adv-x="1638" d="M-91 2240.5q4 83.5 27 151.5t60 119q22 31 55 55t76.5 39.5t99.5 8t113 -41.5q61 -37 98.5 -80.5t55.5 -109.5q24 -92 30.5 -186t1.5 -165.5t-25.5 -161.5t-37.5 -143.5t-47 -140.5q-52 -152 -91 -342.5t-55 -357.5q-19 -167 -22.5 -317.5t8.5 -280t50 -203.5t100 -68 q29 2 66.5 30.5t78.5 77.5t75 94.5t73 101.5q12 18 18 26q45 64 144 242.5t106 214.5l12 94q58 382 76 469q27 138 57 270q7 27 20.5 83t25 98.5t24.5 76.5q36 109 90 121q34 9 75 -6.5t58 -44.5q22 -33 2 -129q-11 -61 -25 -112t-24.5 -81t-45.5 -122.5t-59 -159.5 q-53 -194 -84.5 -549.5t-33.5 -683.5l2 -741q0 -75 27 -123.5t79 -44.5q15 0 37.5 25.5t50.5 66.5t31 45q53 74 96.5 128.5t99.5 113t111.5 92.5t106.5 39q126 14 202 -123q2 -5 8 -15.5t9.5 -18t7 -16t3 -15t-4.5 -9.5q-10 -1 -17.5 7t-15 23t-10.5 19q-38 66 -69.5 92 t-90.5 21q-33 -3 -68 -19.5t-74.5 -50t-71.5 -64t-78 -85.5t-73.5 -89.5t-76.5 -97.5q-5 -7 -23 -33t-26 -36t-24.5 -27.5t-34.5 -26t-40 -12.5q-73 -12 -127.5 36t-87.5 144q-65 191 -65 668q0 135 4 223q18 422 20 449q-3 -3 -25.5 -45t-51 -95.5t-41.5 -74.5 q-26 -37 -69.5 -103t-73 -110.5t-71 -99t-74 -87.5t-71 -57t-72.5 -25q-140 -5 -241 152q-33 50 -51.5 114.5t-25.5 126.5t-2 170.5t12.5 192.5t24.5 247q6 57 9 87q22 163 58 291t82.5 292.5t86.5 383.5q15 88 15 184.5t-26.5 196.5t-74.5 159q-30 20 -76 17t-98 -32.5 t-78 -70.5q-73 -110 -73 -266q0 -38 1.5 -59.5t11 -60t28.5 -77.5q5 -8 15 -20.5t18.5 -22t16.5 -21t8 -18t-7 -14.5q-5 0 -7 -0.5t-7.5 4t-7.5 7t-6.5 8.5t-6.5 8q-34 37 -68 121q-29 82 -25 165.5zM774 2673q0 68 62 84q8 5 19 2t17.5 -5t16 -10t15 -13t14.5 -14.5 t14 -13.5l80 -75q39 -36 65 -87t10 -77q-23 -32 -59.5 -29.5t-80.5 32.5t-82 68.5t-64 77.5t-27 60zM1274 1543l4 3q8 22 37 98.5t44 130t21 111.5q-70 -100 -102 -305q0 -3 -2 -13q-6 -25 -2 -25z" />
<glyph unicode="&#xda;" horiz-adv-x="1638" d="M-91 2240.5q4 83.5 27 151.5t60 119q22 31 55 55t76.5 39.5t99.5 8t113 -41.5q61 -37 98.5 -80.5t55.5 -109.5q24 -92 30.5 -186t1.5 -165.5t-25.5 -161.5t-37.5 -143.5t-47 -140.5q-52 -152 -91 -342.5t-55 -357.5q-19 -167 -22.5 -317.5t8.5 -280t50 -203.5t100 -68 q29 2 66.5 30.5t78.5 77.5t75 94.5t73 101.5q12 18 18 26q45 64 144 242.5t106 214.5l12 94q58 382 76 469q27 138 57 270q7 27 20.5 83t25 98.5t24.5 76.5q36 109 90 121q34 9 75 -6.5t58 -44.5q22 -33 2 -129q-11 -61 -25 -112t-24.5 -81t-45.5 -122.5t-59 -159.5 q-53 -194 -84.5 -549.5t-33.5 -683.5l2 -741q0 -75 27 -123.5t79 -44.5q15 0 37.5 25.5t50.5 66.5t31 45q53 74 96.5 128.5t99.5 113t111.5 92.5t106.5 39q126 14 202 -123q2 -5 8 -15.5t9.5 -18t7 -16t3 -15t-4.5 -9.5q-10 -1 -17.5 7t-15 23t-10.5 19q-38 66 -69.5 92 t-90.5 21q-33 -3 -68 -19.5t-74.5 -50t-71.5 -64t-78 -85.5t-73.5 -89.5t-76.5 -97.5q-5 -7 -23 -33t-26 -36t-24.5 -27.5t-34.5 -26t-40 -12.5q-73 -12 -127.5 36t-87.5 144q-65 191 -65 668q0 135 4 223q18 422 20 449q-3 -3 -25.5 -45t-51 -95.5t-41.5 -74.5 q-26 -37 -69.5 -103t-73 -110.5t-71 -99t-74 -87.5t-71 -57t-72.5 -25q-140 -5 -241 152q-33 50 -51.5 114.5t-25.5 126.5t-2 170.5t12.5 192.5t24.5 247q6 57 9 87q22 163 58 291t82.5 292.5t86.5 383.5q15 88 15 184.5t-26.5 196.5t-74.5 159q-30 20 -76 17t-98 -32.5 t-78 -70.5q-73 -110 -73 -266q0 -38 1.5 -59.5t11 -60t28.5 -77.5q5 -8 15 -20.5t18.5 -22t16.5 -21t8 -18t-7 -14.5q-5 0 -7 -0.5t-7.5 4t-7.5 7t-6.5 8.5t-6.5 8q-34 37 -68 121q-29 82 -25 165.5zM815 2529q-17 28 10.5 78t65.5 86l80 76l13.5 13.5t14.5 14t15.5 12.5 t16.5 10t17.5 5t18.5 -2q61 -16 61 -84q-1 -21 -27 -60t-64 -77.5t-82 -68.5t-80.5 -32.5t-59.5 29.5zM1274 1543l4 3q8 22 37 98.5t44 130t21 111.5q-70 -100 -102 -305q0 -3 -2 -13q-6 -25 -2 -25z" />
<glyph unicode="&#xdb;" horiz-adv-x="1638" d="M-91 2240.5q4 83.5 27 151.5t60 119q22 31 55 55t76.5 39.5t99.5 8t113 -41.5q61 -37 98.5 -80.5t55.5 -109.5q24 -92 30.5 -186t1.5 -165.5t-25.5 -161.5t-37.5 -143.5t-47 -140.5q-52 -152 -91 -342.5t-55 -357.5q-19 -167 -22.5 -317.5t8.5 -280t50 -203.5t100 -68 q29 2 66.5 30.5t78.5 77.5t75 94.5t73 101.5q12 18 18 26q45 64 144 242.5t106 214.5l12 94q58 382 76 469q27 138 57 270q7 27 20.5 83t25 98.5t24.5 76.5q36 109 90 121q34 9 75 -6.5t58 -44.5q22 -33 2 -129q-11 -61 -25 -112t-24.5 -81t-45.5 -122.5t-59 -159.5 q-53 -194 -84.5 -549.5t-33.5 -683.5l2 -741q0 -75 27 -123.5t79 -44.5q15 0 37.5 25.5t50.5 66.5t31 45q53 74 96.5 128.5t99.5 113t111.5 92.5t106.5 39q126 14 202 -123q2 -5 8 -15.5t9.5 -18t7 -16t3 -15t-4.5 -9.5q-10 -1 -17.5 7t-15 23t-10.5 19q-38 66 -69.5 92 t-90.5 21q-33 -3 -68 -19.5t-74.5 -50t-71.5 -64t-78 -85.5t-73.5 -89.5t-76.5 -97.5q-5 -7 -23 -33t-26 -36t-24.5 -27.5t-34.5 -26t-40 -12.5q-73 -12 -127.5 36t-87.5 144q-65 191 -65 668q0 135 4 223q18 422 20 449q-3 -3 -25.5 -45t-51 -95.5t-41.5 -74.5 q-26 -37 -69.5 -103t-73 -110.5t-71 -99t-74 -87.5t-71 -57t-72.5 -25q-140 -5 -241 152q-33 50 -51.5 114.5t-25.5 126.5t-2 170.5t12.5 192.5t24.5 247q6 57 9 87q22 163 58 291t82.5 292.5t86.5 383.5q15 88 15 184.5t-26.5 196.5t-74.5 159q-30 20 -76 17t-98 -32.5 t-78 -70.5q-73 -110 -73 -266q0 -38 1.5 -59.5t11 -60t28.5 -77.5q5 -8 15 -20.5t18.5 -22t16.5 -21t8 -18t-7 -14.5q-5 0 -7 -0.5t-7.5 4t-7.5 7t-6.5 8.5t-6.5 8q-34 37 -68 121q-29 82 -25 165.5zM723 2562q-8 11 5.5 24t41 30.5t39.5 29.5q132 121 233 154q43 9 78.5 -9 t55 -50t34 -68.5t15.5 -65t0 -39.5q-14 -20 -41 -20q-29 1 -52.5 27.5t-37 59t-33 67.5t-39.5 48q-20 -10 -42.5 -24t-33.5 -22.5t-38.5 -30.5t-33.5 -27q-13 -8 -51.5 -39t-64 -44.5t-35.5 -0.5zM1274 1543l4 3q8 22 37 98.5t44 130t21 111.5q-70 -100 -102 -305 q0 -3 -2 -13q-6 -25 -2 -25z" />
<glyph unicode="&#xdc;" horiz-adv-x="1638" d="M-91 2240.5q4 83.5 27 151.5t60 119q22 31 55 55t76.5 39.5t99.5 8t113 -41.5q61 -37 98.5 -80.5t55.5 -109.5q24 -92 30.5 -186t1.5 -165.5t-25.5 -161.5t-37.5 -143.5t-47 -140.5q-52 -152 -91 -342.5t-55 -357.5q-19 -167 -22.5 -317.5t8.5 -280t50 -203.5t100 -68 q29 2 66.5 30.5t78.5 77.5t75 94.5t73 101.5q12 18 18 26q45 64 144 242.5t106 214.5l12 94q58 382 76 469q27 138 57 270q7 27 20.5 83t25 98.5t24.5 76.5q36 109 90 121q34 9 75 -6.5t58 -44.5q22 -33 2 -129q-11 -61 -25 -112t-24.5 -81t-45.5 -122.5t-59 -159.5 q-53 -194 -84.5 -549.5t-33.5 -683.5l2 -741q0 -75 27 -123.5t79 -44.5q15 0 37.5 25.5t50.5 66.5t31 45q53 74 96.5 128.5t99.5 113t111.5 92.5t106.5 39q126 14 202 -123q2 -5 8 -15.5t9.5 -18t7 -16t3 -15t-4.5 -9.5q-10 -1 -17.5 7t-15 23t-10.5 19q-38 66 -69.5 92 t-90.5 21q-33 -3 -68 -19.5t-74.5 -50t-71.5 -64t-78 -85.5t-73.5 -89.5t-76.5 -97.5q-5 -7 -23 -33t-26 -36t-24.5 -27.5t-34.5 -26t-40 -12.5q-73 -12 -127.5 36t-87.5 144q-65 191 -65 668q0 135 4 223q18 422 20 449q-3 -3 -25.5 -45t-51 -95.5t-41.5 -74.5 q-26 -37 -69.5 -103t-73 -110.5t-71 -99t-74 -87.5t-71 -57t-72.5 -25q-140 -5 -241 152q-33 50 -51.5 114.5t-25.5 126.5t-2 170.5t12.5 192.5t24.5 247q6 57 9 87q22 163 58 291t82.5 292.5t86.5 383.5q15 88 15 184.5t-26.5 196.5t-74.5 159q-30 20 -76 17t-98 -32.5 t-78 -70.5q-73 -110 -73 -266q0 -38 1.5 -59.5t11 -60t28.5 -77.5q5 -8 15 -20.5t18.5 -22t16.5 -21t8 -18t-7 -14.5q-5 0 -7 -0.5t-7.5 4t-7.5 7t-6.5 8.5t-6.5 8q-34 37 -68 121q-29 82 -25 165.5zM667 2586q-7 35 3 58l10 59q1 2 4 15.5t5.5 18.5t9.5 12.5t18 9.5 q43 8 54 4t28 -25q13 -13 14 -49t-9 -72.5t-37.5 -60t-64.5 -12.5q-28 7 -35 42zM1035.5 2586q-7.5 35 2.5 58l11 59q1 3 3.5 15.5t5 18.5t9.5 13t18 9q43 8 54 4t28 -25q13 -13 14 -49t-9 -72.5t-37 -60t-64 -12.5q-28 7 -35.5 42zM1274 1543l4 3q8 22 37 98.5t44 130 t21 111.5q-70 -100 -102 -305q0 -3 -2 -13q-6 -25 -2 -25z" />
<glyph unicode="&#xdd;" horiz-adv-x="1945" d="M-487 2000q1 4 2 11q15 -5 28.5 -19t29.5 -34.5t26 -30.5q63 -62 127.5 -81.5t124 0t118.5 63.5t114 108.5t107 135t101.5 143t93 132t86 102.5t76.5 55q46 12 97.5 1t84.5 -32q68 -47 129 -195q33 -96 43 -187.5t-4.5 -183t-29.5 -147t-45 -145.5q-3 -8 -4 -12t-3 -10 t-4 -11l-78 -219q-54 -157 -117 -368.5t-81 -299.5q-20 -99 -28 -278.5t7 -337t57 -164.5q86 12 173 108.5t161.5 241t147.5 316t140.5 339t129.5 304t125.5 217t118.5 73.5q35 -4 61.5 -42.5t38.5 -98.5q13 -62 -4 -188q-10 -94 -55 -269.5t-52 -212.5 q-75 -312 -158.5 -685t-92.5 -439q291 0 528 -262q137 -154 84 -180q-16 -8 -27 14t-28.5 66.5t-40.5 72.5q-47 55 -176 148q-97 67 -205.5 89t-145.5 7q-14 -71 -35.5 -182.5t-32.5 -166t-29 -140t-30.5 -128t-31 -104t-36 -95.5t-41.5 -74.5t-51.5 -69t-60.5 -52.5 q-26 -19 -65 -33t-85.5 -18.5t-89 4t-77.5 40.5t-49 85q-21 80 26.5 228t130 292.5t188.5 266t191 153.5q19 81 39 197q43 267 55 340.5t55 320t72 376t76 317t96 333.5q-43 -32 -102.5 -134t-108.5 -216q-16 -37 -48 -120t-65 -169t-78.5 -195t-91 -206t-102 -192 t-111 -163t-117 -110t-122.5 -41q-197 5 -268 268q-15 60 -20 126t-3 108t8 108t7 90q19 180 72.5 378t110.5 344.5t126.5 334t105.5 316.5q62 226 11 385q-13 47 -41 91t-56 52q-32 9 -72.5 -16t-82 -75.5t-90.5 -116.5t-98 -139t-105.5 -142t-113 -128t-119.5 -94 t-125 -42t-131 29t-136 118q-3 3 -9.5 11t-9.5 12t-7.5 11.5t-3.5 11.5zM606 -1286q14 -50 42.5 -66t59.5 -3t57.5 34.5t45.5 46.5q76 99 161 357.5t132 488.5q-115 -63 -189 -164q-153 -206 -245 -426q-44 -99 -57.5 -153t-6.5 -115zM1192 2425q-17 28 10.5 78t65.5 86 l80 75q5 4 14 13.5t14.5 14.5t15 13t16 10t17.5 5t19 -2q61 -16 61 -84q-1 -21 -27 -60t-64 -77.5t-82 -68.5t-80.5 -32.5t-59.5 29.5z" />
<glyph unicode="&#xde;" horiz-adv-x="1392" d="M23 127q1 59 19 338t19 303l48 760q42 491 38 667q-3 170 48 166q16 -1 32 -18q14 -22 35.5 -99.5t28.5 -132.5q8 -55 13 -108.5t6 -82t2.5 -87.5t2.5 -80q90 39 200 66t237 27t204 -46q72 -66 112.5 -141t66.5 -221.5t32 -382.5q-2 -138 -20.5 -251t-61.5 -216.5 t-110 -179.5t-169.5 -131t-236.5 -78q-28 -3 -73.5 -3t-67.5 3q-78 7 -143 90q-29 43 -29 86q0 12 7.5 16.5t17 -0.5t14.5 -18q8 -37 47.5 -79.5t75.5 -49.5q87 -20 168 9.5t143.5 96t114 160t84.5 201.5t50 221.5t15 218.5q-1 57 -3 94.5t-9.5 105t-19.5 114t-36 103.5 t-56 93t-82 62t-113 30q-62 5 -149 -19t-143.5 -50.5t-57.5 -32.5q-9 -93 -52 -473t-71.5 -693t-28.5 -485q0 -44 3.5 -96.5t7.5 -95t8 -86.5t5 -76.5t-2.5 -59t-13.5 -40t-28 -13.5q-107 0 -125 94.5t-4 499.5z" />
<glyph unicode="&#xdf;" horiz-adv-x="1290" d="M-539.5 -918q-8.5 20 7.5 41q10 5 19.5 -7.5t23 -29.5t30.5 -20q31 -6 75.5 9t82.5 40q64 39 114.5 95t88.5 138t65.5 171t46 217.5t30 251t17 299.5t7.5 334.5t2 382.5q0 1126 233 1187q37 6 121 -37.5t151 -93.5q69 -51 149 -181t71 -224q-9 -135 -91.5 -219.5 t-224.5 -94.5q38 -30 96 -74.5t94.5 -72.5t86 -71t81.5 -78t69.5 -86t62.5 -103t47 -121t35 -147q23 -138 -5.5 -286t-114.5 -277.5t-214 -188.5q-90 -44 -197.5 -19t-171.5 109q-46 54 -41 103q2 5 10 5.5t11 -5.5q18 -55 65.5 -105t102.5 -63q82 -19 204 73 q119 87 168.5 252t29.5 343.5t-98 354t-198 285.5q-126 115 -155.5 150t-20.5 57q39 5 78 33q185 140 164 350q-30 260 -320 408q-53 -47 -86 -166t-44.5 -268t-15.5 -346t-0.5 -374t2.5 -378.5t-9 -335.5q-7 -105 -12.5 -182t-14.5 -167t-20 -156t-26 -139.5t-34.5 -128.5 t-44.5 -113t-56.5 -102.5t-70.5 -87t-87 -76.5t-105 -62q-2 -1 -16.5 -8.5t-17 -8.5t-14.5 -7t-16.5 -7.5t-14.5 -5.5t-16.5 -5.5t-16 -3.5t-18 -3t-18.5 -1q-41 -2 -74 12.5t-41.5 34.5z" />
<glyph unicode="&#xe0;" horiz-adv-x="1835" d="M-33.5 609.5q-6.5 74.5 8 187t25.5 164t33 142.5q1 6 2 9q60 243 179.5 371t324.5 131q106 3 203 -41t149 -127q42 -67 52 -122q3 -25 -7 -26q-13 -3 -18.5 7t-8.5 32t-6 31q-48 111 -136 166.5t-187 44.5q-80 -7 -174 -98t-132 -172q-54 -103 -98 -248.5t-65.5 -286 t-11 -258.5t58.5 -162q20 -13 50.5 3t61.5 48.5t66.5 78.5t63 86t52.5 78q2 3 3 5q50 74 116 210t112 217t77 79q21 0 32.5 -11t26.5 -46q41 -95 27 -232q-8 -74 -12 -106t-18 -105t-42 -190q-4 -16 -13 -53t-15.5 -62t-16 -68t-15 -71.5t-13 -72.5t-9.5 -71.5t-4.5 -68 t2.5 -61.5q3 -50 17.5 -81t44.5 -53q33 -20 66 -22.5t74.5 20.5t73.5 46t87 82t88.5 97.5t103.5 121.5q57 68 88 104q73 97 123 166t103 146.5t82.5 122.5t107 164.5t131.5 201.5q11 16 28 32.5t23 16.5q14 -1 0 -24q-3 -6 -12 -21q-23 -35 -37 -60q-148 -258 -285 -457.5 t-303 -406.5q-72 -90 -128.5 -151.5t-120 -116t-117 -78.5t-111 -22.5t-110.5 36.5q-174 110 -98 570q2 14 3 20q17 107 45 250.5t35 185.5q5 31 7 57.5t0.5 46t-3 31.5t-5 26t-3.5 16q-29 -54 -77.5 -152.5t-85 -164t-79.5 -122.5q-14 -18 -49.5 -72t-56.5 -79 q-71 -85 -124.5 -103t-115.5 15q-62 43 -94.5 124t-39 155.5zM348 2001q0 68 62 84q7 5 18.5 2t17.5 -5t16.5 -10t15.5 -12.5t14.5 -14l13.5 -13.5l80 -76q39 -36 65.5 -87t10.5 -77q-23 -32 -60 -29.5t-80.5 32.5t-82 68.5t-64.5 77.5t-27 60z" />
<glyph unicode="&#xe1;" horiz-adv-x="1835" d="M-33.5 609.5q-6.5 74.5 8 187t25.5 164t33 142.5q1 6 2 9q60 243 179.5 371t324.5 131q106 3 203 -41t149 -127q42 -67 52 -122q3 -25 -7 -26q-13 -3 -18.5 7t-8.5 32t-6 31q-48 111 -136 166.5t-187 44.5q-80 -7 -174 -98t-132 -172q-54 -103 -98 -248.5t-65.5 -286 t-11 -258.5t58.5 -162q20 -13 50.5 3t61.5 48.5t66.5 78.5t63 86t52.5 78q2 3 3 5q50 74 116 210t112 217t77 79q21 0 32.5 -11t26.5 -46q41 -95 27 -232q-8 -74 -12 -106t-18 -105t-42 -190q-4 -16 -13 -53t-15.5 -62t-16 -68t-15 -71.5t-13 -72.5t-9.5 -71.5t-4.5 -68 t2.5 -61.5q3 -50 17.5 -81t44.5 -53q33 -20 66 -22.5t74.5 20.5t73.5 46t87 82t88.5 97.5t103.5 121.5q57 68 88 104q73 97 123 166t103 146.5t82.5 122.5t107 164.5t131.5 201.5q11 16 28 32.5t23 16.5q14 -1 0 -24q-3 -6 -12 -21q-23 -35 -37 -60q-148 -258 -285 -457.5 t-303 -406.5q-72 -90 -128.5 -151.5t-120 -116t-117 -78.5t-111 -22.5t-110.5 36.5q-174 110 -98 570q2 14 3 20q17 107 45 250.5t35 185.5q5 31 7 57.5t0.5 46t-3 31.5t-5 26t-3.5 16q-29 -54 -77.5 -152.5t-85 -164t-79.5 -122.5q-14 -18 -49.5 -72t-56.5 -79 q-71 -85 -124.5 -103t-115.5 15q-62 43 -94.5 124t-39 155.5zM461 1812q-17 28 10.5 78t65.5 86l79 76q4 4 14 13.5t14.5 14t15.5 13t16.5 10t17.5 4.5t19 -2q61 -16 61 -84q-1 -21 -27 -60t-64 -77.5t-82 -68.5t-80.5 -32.5t-59.5 29.5z" />
<glyph unicode="&#xe2;" horiz-adv-x="1835" d="M-33.5 609.5q-6.5 74.5 8 187t25.5 164t33 142.5q1 6 2 9q60 243 179.5 371t324.5 131q106 3 203 -41t149 -127q42 -67 52 -122q3 -25 -7 -26q-13 -3 -18.5 7t-8.5 32t-6 31q-48 111 -136 166.5t-187 44.5q-80 -7 -174 -98t-132 -172q-54 -103 -98 -248.5t-65.5 -286 t-11 -258.5t58.5 -162q20 -13 50.5 3t61.5 48.5t66.5 78.5t63 86t52.5 78q2 3 3 5q50 74 116 210t112 217t77 79q21 0 32.5 -11t26.5 -46q41 -95 27 -232q-8 -74 -12 -106t-18 -105t-42 -190q-4 -16 -13 -53t-15.5 -62t-16 -68t-15 -71.5t-13 -72.5t-9.5 -71.5t-4.5 -68 t2.5 -61.5q3 -50 17.5 -81t44.5 -53q33 -20 66 -22.5t74.5 20.5t73.5 46t87 82t88.5 97.5t103.5 121.5q57 68 88 104q73 97 123 166t103 146.5t82.5 122.5t107 164.5t131.5 201.5q11 16 28 32.5t23 16.5q14 -1 0 -24q-3 -6 -12 -21q-23 -35 -37 -60q-148 -258 -285 -457.5 t-303 -406.5q-72 -90 -128.5 -151.5t-120 -116t-117 -78.5t-111 -22.5t-110.5 36.5q-174 110 -98 570q2 14 3 20q17 107 45 250.5t35 185.5q5 31 7 57.5t0.5 46t-3 31.5t-5 26t-3.5 16q-29 -54 -77.5 -152.5t-85 -164t-79.5 -122.5q-14 -18 -49.5 -72t-56.5 -79 q-71 -85 -124.5 -103t-115.5 15q-62 43 -94.5 124t-39 155.5zM369 1847q-8 11 6 21t46 28.5t52 38.5q8 7 33.5 31t34.5 31.5t30.5 25t36 26t36 19t44.5 17.5q36 7 67 -4.5t50.5 -34.5t35 -53t21.5 -58.5t9.5 -50.5t-1.5 -31q-14 -20 -41 -20q-29 1 -52.5 28t-37 59.5 t-32.5 67.5t-39 48q-20 -9 -42 -23.5t-34.5 -24.5l-37.5 -30t-34 -27q-13 -8 -51.5 -39t-64 -44.5t-35.5 -0.5z" />
<glyph unicode="&#xe3;" horiz-adv-x="1835" d="M-33.5 609.5q-6.5 74.5 8 187t25.5 164t33 142.5q1 6 2 9q60 243 179.5 371t324.5 131q106 3 203 -41t149 -127q42 -67 52 -122q3 -25 -7 -26q-13 -3 -18.5 7t-8.5 32t-6 31q-48 111 -136 166.5t-187 44.5q-80 -7 -174 -98t-132 -172q-54 -103 -98 -248.5t-65.5 -286 t-11 -258.5t58.5 -162q20 -13 50.5 3t61.5 48.5t66.5 78.5t63 86t52.5 78q2 3 3 5q50 74 116 210t112 217t77 79q21 0 32.5 -11t26.5 -46q41 -95 27 -232q-8 -74 -12 -106t-18 -105t-42 -190q-4 -16 -13 -53t-15.5 -62t-16 -68t-15 -71.5t-13 -72.5t-9.5 -71.5t-4.5 -68 t2.5 -61.5q3 -50 17.5 -81t44.5 -53q33 -20 66 -22.5t74.5 20.5t73.5 46t87 82t88.5 97.5t103.5 121.5q57 68 88 104q73 97 123 166t103 146.5t82.5 122.5t107 164.5t131.5 201.5q11 16 28 32.5t23 16.5q14 -1 0 -24q-3 -6 -12 -21q-23 -35 -37 -60q-148 -258 -285 -457.5 t-303 -406.5q-72 -90 -128.5 -151.5t-120 -116t-117 -78.5t-111 -22.5t-110.5 36.5q-174 110 -98 570q2 14 3 20q17 107 45 250.5t35 185.5q5 31 7 57.5t0.5 46t-3 31.5t-5 26t-3.5 16q-29 -54 -77.5 -152.5t-85 -164t-79.5 -122.5q-14 -18 -49.5 -72t-56.5 -79 q-71 -85 -124.5 -103t-115.5 15q-62 43 -94.5 124t-39 155.5zM92 1924.5q1 7.5 10 12.5q10 4 27.5 -15t41 -44t44.5 -31q57 -11 98 -3.5t89 31t84 47.5t83.5 47.5t87.5 31.5q106 19 164 -39l13.5 -13.5l15.5 -15.5l15 -15t13 -15.5t9 -14t3.5 -12t-5.5 -8.5q-5 -4 -15 4.5 t-25 25t-24 23.5q-17 15 -24 20t-19 10t-26 5q-36 -1 -71 -17t-65 -39t-62 -46.5t-75.5 -40.5t-91.5 -19q-44 -1 -86 -1t-86.5 16t-73.5 49q-3 4 -13 14t-17.5 18t-13.5 17.5t-5 17z" />
<glyph unicode="&#xe4;" horiz-adv-x="1835" d="M-33.5 609.5q-6.5 74.5 8 187t25.5 164t33 142.5q1 6 2 9q60 243 179.5 371t324.5 131q106 3 203 -41t149 -127q42 -67 52 -122q3 -25 -7 -26q-13 -3 -18.5 7t-8.5 32t-6 31q-48 111 -136 166.5t-187 44.5q-80 -7 -174 -98t-132 -172q-54 -103 -98 -248.5t-65.5 -286 t-11 -258.5t58.5 -162q20 -13 50.5 3t61.5 48.5t66.5 78.5t63 86t52.5 78q2 3 3 5q50 74 116 210t112 217t77 79q21 0 32.5 -11t26.5 -46q41 -95 27 -232q-8 -74 -12 -106t-18 -105t-42 -190q-4 -16 -13 -53t-15.5 -62t-16 -68t-15 -71.5t-13 -72.5t-9.5 -71.5t-4.5 -68 t2.5 -61.5q3 -50 17.5 -81t44.5 -53q33 -20 66 -22.5t74.5 20.5t73.5 46t87 82t88.5 97.5t103.5 121.5q57 68 88 104q73 97 123 166t103 146.5t82.5 122.5t107 164.5t131.5 201.5q11 16 28 32.5t23 16.5q14 -1 0 -24q-3 -6 -12 -21q-23 -35 -37 -60q-148 -258 -285 -457.5 t-303 -406.5q-72 -90 -128.5 -151.5t-120 -116t-117 -78.5t-111 -22.5t-110.5 36.5q-174 110 -98 570q2 14 3 20q17 107 45 250.5t35 185.5q5 31 7 57.5t0.5 46t-3 31.5t-5 26t-3.5 16q-29 -54 -77.5 -152.5t-85 -164t-79.5 -122.5q-14 -18 -49.5 -72t-56.5 -79 q-71 -85 -124.5 -103t-115.5 15q-62 43 -94.5 124t-39 155.5zM362 1828q-7 35 3 58l10 60q1 4 3 12.5t4 14t5.5 12t9.5 10.5t15 6q54 13 82 -21q13 -13 14 -49t-9 -72.5t-37.5 -60t-64.5 -12.5q-28 7 -35 42zM730.5 1828q-7.5 35 2.5 58l10 60q1 4 3 12.5t4 14t5.5 12 t9.5 10.5t15 6q30 8 47 4t35 -25q13 -13 14 -49t-9 -72.5t-37 -60t-64 -12.5q-28 7 -35.5 42z" />
<glyph unicode="&#xe5;" horiz-adv-x="1835" d="M-33.5 609.5q-6.5 74.5 8 187t25.5 164t33 142.5q1 6 2 9q60 243 179.5 371t324.5 131q106 3 203 -41t149 -127q42 -67 52 -122q3 -25 -7 -26q-13 -3 -18.5 7t-8.5 32t-6 31q-48 111 -136 166.5t-187 44.5q-80 -7 -174 -98t-132 -172q-54 -103 -98 -248.5t-65.5 -286 t-11 -258.5t58.5 -162q20 -13 50.5 3t61.5 48.5t66.5 78.5t63 86t52.5 78q2 3 3 5q50 74 116 210t112 217t77 79q21 0 32.5 -11t26.5 -46q41 -95 27 -232q-8 -74 -12 -106t-18 -105t-42 -190q-4 -16 -13 -53t-15.5 -62t-16 -68t-15 -71.5t-13 -72.5t-9.5 -71.5t-4.5 -68 t2.5 -61.5q3 -50 17.5 -81t44.5 -53q33 -20 66 -22.5t74.5 20.5t73.5 46t87 82t88.5 97.5t103.5 121.5q57 68 88 104q73 97 123 166t103 146.5t82.5 122.5t107 164.5t131.5 201.5q11 16 28 32.5t23 16.5q14 -1 0 -24q-3 -6 -12 -21q-23 -35 -37 -60q-148 -258 -285 -457.5 t-303 -406.5q-72 -90 -128.5 -151.5t-120 -116t-117 -78.5t-111 -22.5t-110.5 36.5q-174 110 -98 570q2 14 3 20q17 107 45 250.5t35 185.5q5 31 7 57.5t0.5 46t-3 31.5t-5 26t-3.5 16q-29 -54 -77.5 -152.5t-85 -164t-79.5 -122.5q-14 -18 -49.5 -72t-56.5 -79 q-71 -85 -124.5 -103t-115.5 15q-62 43 -94.5 124t-39 155.5zM553 1907q12 72 32 103.5t56 39.5q25 6 43 7t29 -3t17 -8t14 -11.5t14 -11.5q17 -12 24.5 -42t1 -65t-24 -66.5t-54 -49.5t-84.5 -10q-43 7 -59 48.5t-9 68.5zM616 1917q-4 -21 5.5 -49.5t35.5 -32.5 q39 -7 67 14t37 52t6.5 61.5t-17.5 40.5q-55 32 -84.5 10.5t-49.5 -96.5z" />
<glyph unicode="&#xe6;" horiz-adv-x="1781" d="M-33.5 660.5q-6.5 74.5 8 187t25.5 164t33 142.5q1 6 2 9q60 243 179.5 371t324.5 131q100 3 193 -36.5t147 -115.5q76 108 168.5 175t173.5 53q55 -16 85 -43.5t35 -67.5t-6 -85.5t-39 -104.5q-57 -124 -180 -231.5t-254 -147.5q-17 -59 -28 -230q-4 -43 -2.5 -88.5 t3 -78t8 -67.5t10.5 -57t11.5 -47t11 -36.5t9.5 -26.5t6 -16q49 -104 108 -109q61 0 126.5 26.5t119 64t114.5 97t102 107t93 111.5q58 72 110 143.5t82 117t54 82t36.5 51.5t18.5 13q4 -3 6.5 -5.5t3.5 -6t1.5 -5t-0.5 -6t-1 -5.5t-2.5 -6.5t-2.5 -6.5q-26 -46 -119 -178 q-79 -114 -150 -205.5t-153.5 -178t-158 -142t-157 -84.5t-155.5 -19q-86 12 -147 56.5t-111 130.5q-74 130 -74 305q0 115 16 227l-49 -98t-51.5 -102t-46 -81t-58.5 -87q-14 -19 -49.5 -73t-56.5 -79q-71 -85 -124.5 -103t-115.5 15q-62 43 -94.5 124t-39 155.5zM99.5 568 q10.5 -118 58.5 -162q20 -13 50.5 3t61.5 48.5t66.5 78.5t63 86t52.5 78q2 3 3 5q50 76 129.5 235.5t99.5 194.5q55 174 180 356q-53 76 -128.5 112t-155.5 27q-80 -7 -174 -98t-132 -172q-54 -103 -98 -248.5t-65.5 -285.5t-11 -258zM868 1106q139 48 252.5 156t163.5 247 q9 25 13.5 51t3.5 59t-21.5 58t-60.5 33q-32 4 -74 -39t-84.5 -118.5t-72 -137t-58.5 -127.5q-2 -6 -16.5 -39t-21 -50t-14.5 -44.5t-10 -48.5z" />
<glyph unicode="&#xe7;" horiz-adv-x="1187" d="M7.5 473.5q-16.5 154.5 0.5 355.5q9 123 37.5 245.5t75.5 229.5t105 184t133.5 110.5t154.5 7.5q36 -9 74 -56q28 -34 33.5 -85t-5.5 -94t-30 -68q-23 -29 -37 -15q-8 8 2 25q90 145 -4 241q-51 58 -140 -49q-95 -114 -171 -325q-65 -185 -74 -338q-3 -55 -4.5 -88.5 t-4 -99t-1 -110.5t4.5 -105t12 -101.5t21.5 -82t33 -64.5t46.5 -31q18 -5 36 -4.5t32.5 3t33.5 11.5t31 16t32 22t30 23.5t31 26.5q4 4 81.5 88.5t108.5 110.5q53 45 105 79.5t89.5 54.5t84 37t72.5 24t72 18t65 16q87 24 104 12q4 -3 5 -7t-1.5 -7t-7.5 -4q-11 -3 -74 -13 t-104 -22q-86 -26 -150 -54t-111.5 -54.5t-105.5 -78t-100.5 -95t-128.5 -134.5q-114 -123 -217 -135q5 -41 8 -51q7 -20 24.5 -53.5t32 -62.5t26 -61.5t9 -63t-22.5 -54.5q-39 -41 -87.5 -36.5t-92.5 37.5t-61 73q-7 31 3.5 48t31.5 15q23 0 34 -18q11 -28 -20 -55 q33 -31 65.5 -28t54.5 38t17 84q-2 26 -28 93.5t-27 92.5q-97 6 -168 113q-58 114 -74.5 268.5z" />
<glyph unicode="&#xe8;" horiz-adv-x="1136" d="M10 762q0 162 31.5 298t81 236t131.5 217q76 108 168.5 175t173.5 53q55 -16 85 -43.5t35.5 -67.5t-5.5 -85.5t-39 -104.5q-57 -124 -180 -231.5t-254 -147.5q-18 -63 -29 -230q-4 -43 -2.5 -88.5t3 -78t8 -67.5t10.5 -57t11.5 -47t11 -36.5t9.5 -26.5t6 -16 q48 -104 109 -109q61 0 126.5 26.5t119 64t114.5 97t102 107t93 111.5q58 72 110 143.5t82 117t54 82t36.5 51.5t18.5 13q4 -3 6.5 -7t4 -6t0.5 -6.5t-1.5 -6.5t-2.5 -7.5t-3 -7.5q-26 -46 -119 -178q-79 -114 -150 -205.5t-153.5 -178t-158 -142t-157 -84.5t-155.5 -19 q-86 12 -147 56.5t-111 130.5q-74 130 -74 305zM244 1106q139 48 252 156t163 247q9 25 13.5 51t3.5 59t-21.5 58t-60.5 33q-32 4 -74 -39t-84.5 -118.5t-72 -137t-58.5 -127.5q-3 -7 -13 -31t-15.5 -38.5t-13.5 -36t-12.5 -40.5t-6.5 -36zM356 2140q0 68 62 84q7 5 18.5 2 t17.5 -5t16.5 -10t15.5 -12.5t14.5 -14l13.5 -13.5l80 -76q39 -36 65.5 -87t10.5 -77q-23 -32 -60 -29.5t-80.5 32.5t-82 68.5t-64.5 77.5t-27 60z" />
<glyph unicode="&#xe9;" horiz-adv-x="1136" d="M10 762q0 162 31.5 298t81 236t131.5 217q76 108 168.5 175t173.5 53q55 -16 85 -43.5t35.5 -67.5t-5.5 -85.5t-39 -104.5q-57 -124 -180 -231.5t-254 -147.5q-18 -63 -29 -230q-4 -43 -2.5 -88.5t3 -78t8 -67.5t10.5 -57t11.5 -47t11 -36.5t9.5 -26.5t6 -16 q48 -104 109 -109q61 0 126.5 26.5t119 64t114.5 97t102 107t93 111.5q58 72 110 143.5t82 117t54 82t36.5 51.5t18.5 13q4 -3 6.5 -7t4 -6t0.5 -6.5t-1.5 -6.5t-2.5 -7.5t-3 -7.5q-26 -46 -119 -178q-79 -114 -150 -205.5t-153.5 -178t-158 -142t-157 -84.5t-155.5 -19 q-86 12 -147 56.5t-111 130.5q-74 130 -74 305zM244 1106q139 48 252 156t163 247q9 25 13.5 51t3.5 59t-21.5 58t-60.5 33q-32 4 -74 -39t-84.5 -118.5t-72 -137t-58.5 -127.5q-3 -7 -13 -31t-15.5 -38.5t-13.5 -36t-12.5 -40.5t-6.5 -36zM496 1901q-17 28 10 77.5t65 85.5 l80 76q4 4 14 13.5t14.5 14t15.5 13t16.5 10t17.5 4.5t19 -2q61 -16 61 -84q-1 -21 -27 -60t-64 -77.5t-82 -68t-80.5 -32t-59.5 29.5z" />
<glyph unicode="&#xea;" horiz-adv-x="1136" d="M10 762q0 162 31.5 298t81 236t131.5 217q76 108 168.5 175t173.5 53q55 -16 85 -43.5t35.5 -67.5t-5.5 -85.5t-39 -104.5q-57 -124 -180 -231.5t-254 -147.5q-18 -63 -29 -230q-4 -43 -2.5 -88.5t3 -78t8 -67.5t10.5 -57t11.5 -47t11 -36.5t9.5 -26.5t6 -16 q48 -104 109 -109q61 0 126.5 26.5t119 64t114.5 97t102 107t93 111.5q58 72 110 143.5t82 117t54 82t36.5 51.5t18.5 13q4 -3 6.5 -7t4 -6t0.5 -6.5t-1.5 -6.5t-2.5 -7.5t-3 -7.5q-26 -46 -119 -178q-79 -114 -150 -205.5t-153.5 -178t-158 -142t-157 -84.5t-155.5 -19 q-86 12 -147 56.5t-111 130.5q-74 130 -74 305zM244 1106q139 48 252 156t163 247q9 25 13.5 51t3.5 59t-21.5 58t-60.5 33q-32 4 -74 -39t-84.5 -118.5t-72 -137t-58.5 -127.5q-3 -7 -13 -31t-15.5 -38.5t-13.5 -36t-12.5 -40.5t-6.5 -36zM307 1892q-8 11 6.5 21t46.5 28.5 t52 38.5q8 7 33.5 31t34.5 31.5t30.5 25t36 26t36 19t44.5 17.5q36 7 67 -4.5t50.5 -34.5t35 -53t21.5 -58.5t9.5 -50.5t-1.5 -31q-14 -20 -41 -20q-29 1 -52.5 28t-37 59.5t-33 67.5t-39.5 48q-20 -9 -41.5 -23t-35 -24.5t-37 -30t-33.5 -27.5q-13 -8 -52 -39t-64.5 -44.5 t-35.5 -0.5z" />
<glyph unicode="&#xeb;" horiz-adv-x="1136" d="M10 762q0 162 31.5 298t81 236t131.5 217q76 108 168.5 175t173.5 53q55 -16 85 -43.5t35.5 -67.5t-5.5 -85.5t-39 -104.5q-57 -124 -180 -231.5t-254 -147.5q-18 -63 -29 -230q-4 -43 -2.5 -88.5t3 -78t8 -67.5t10.5 -57t11.5 -47t11 -36.5t9.5 -26.5t6 -16 q48 -104 109 -109q61 0 126.5 26.5t119 64t114.5 97t102 107t93 111.5q58 72 110 143.5t82 117t54 82t36.5 51.5t18.5 13q4 -3 6.5 -7t4 -6t0.5 -6.5t-1.5 -6.5t-2.5 -7.5t-3 -7.5q-26 -46 -119 -178q-79 -114 -150 -205.5t-153.5 -178t-158 -142t-157 -84.5t-155.5 -19 q-86 12 -147 56.5t-111 130.5q-74 130 -74 305zM244 1106q139 48 252 156t163 247q9 25 13.5 51t3.5 59t-21.5 58t-60.5 33q-32 4 -74 -39t-84.5 -118.5t-72 -137t-58.5 -127.5q-3 -7 -13 -31t-15.5 -38.5t-13.5 -36t-12.5 -40.5t-6.5 -36zM321 1936.5q-7 35.5 3 58.5l10 59 q1 4 3 12.5t4 14t5.5 12t9.5 10.5t15 6q54 13 82 -20q13 -13 14 -49.5t-9 -73t-37.5 -60t-64.5 -12.5q-28 7 -35 42.5zM689.5 1936.5q-7.5 35.5 2.5 58.5l10 59q1 4 3 12.5t4 14t5.5 12t9.5 10.5t15 6q30 8 47 4.5t35 -24.5q13 -13 14 -49.5t-9 -73t-37 -60t-64 -12.5 q-28 7 -35.5 42.5z" />
<glyph unicode="&#xec;" horiz-adv-x="1249" d="M-76 402q8 241 82 489q24 78 90 389q1 6 4.5 34.5t8.5 58.5t11 61t15 51t19 20q41 0 76.5 -61.5t50.5 -148.5t4 -158q-19 -117 -52 -217q-51 -166 -85 -334t-47 -299.5t-7 -226t33 -123.5q27 -27 86 -15q59 15 135.5 66t126 94t125.5 115q143 137 395 454 q110 138 201 268t120.5 172t39.5 35q6 -6 8.5 -11.5t2 -12.5t-2 -13t-7 -15t-9.5 -15l-12 -18t-13 -19q-69 -106 -231.5 -309t-264.5 -320q-6 -7 -56.5 -65t-64 -73.5t-61.5 -67t-72 -72.5t-70 -61t-80 -61.5t-79 -45.5t-88 -39q-89 -32 -165 -0.5t-114 117.5 q-61 136 -53 377zM23 2067.5q2 4.5 6 12t12 15.5q38 36 68 14q36 -22 70.5 -54t68 -69.5t49.5 -52.5q43 -43 50 -64q6 -20 -7 -34q-52 -46 -127 -8q-67 38 -162 184q-4 6 -11.5 17t-9.5 15t-5.5 12t-1.5 12.5z" />
<glyph unicode="&#xed;" horiz-adv-x="1249" d="M-76 402q8 241 82 489q24 78 90 389q1 6 4.5 34.5t8.5 58.5t11 61t15 51t19 20q41 0 76.5 -61.5t50.5 -148.5t4 -158q-19 -117 -52 -217q-51 -166 -85 -334t-47 -299.5t-7 -226t33 -123.5q27 -27 86 -15q59 15 135.5 66t126 94t125.5 115q143 137 395 454 q110 138 201 268t120.5 172t39.5 35q6 -6 8.5 -11.5t2 -12.5t-2 -13t-7 -15t-9.5 -15l-12 -18t-13 -19q-69 -106 -231.5 -309t-264.5 -320q-6 -7 -56.5 -65t-64 -73.5t-61.5 -67t-72 -72.5t-70 -61t-80 -61.5t-79 -45.5t-88 -39q-89 -32 -165 -0.5t-114 117.5 q-61 136 -53 377zM272 1862q17 28 51 57t60.5 46t79.5 50l17.5 10.5t16 9t12 4.5t13 0.5t12 -6.5t15.5 -12q32 -38 10 -69q-24 -35 -57 -67t-72.5 -64.5t-54.5 -46.5q-49 -45 -71 -49q-18 -3 -30 10q-43 54 -2 127z" />
<glyph unicode="&#xee;" horiz-adv-x="1249" d="M-76 402q8 241 82 489q24 78 90 389q1 6 4.5 34.5t8.5 58.5t11 61t15 51t19 20q41 0 76.5 -61.5t50.5 -148.5t4 -158q-19 -117 -52 -217q-51 -166 -85 -334t-47 -299.5t-7 -226t33 -123.5q27 -27 86 -15q59 15 135.5 66t126 94t125.5 115q143 137 395 454 q110 138 201 268t120.5 172t39.5 35q6 -6 8.5 -11.5t2 -12.5t-2 -13t-7 -15t-9.5 -15l-12 -18t-13 -19q-69 -106 -231.5 -309t-264.5 -320q-6 -7 -56.5 -65t-64 -73.5t-61.5 -67t-72 -72.5t-70 -61t-80 -61.5t-79 -45.5t-88 -39q-89 -32 -165 -0.5t-114 117.5 q-61 136 -53 377zM-35 1745q-8 11 5.5 21.5t38.5 22.5t34 21q128 118 242 172q36 7 67 -4t50.5 -34.5t35 -53t21.5 -58t9.5 -50.5t-1.5 -31q-14 -20 -41 -20q-29 1 -52.5 27.5t-37 59t-33 67.5t-39.5 48q-20 -9 -41.5 -23.5t-34 -24t-38 -29.5t-33.5 -27q-13 -8 -52 -39 t-64.5 -44.5t-35.5 -0.5z" />
<glyph unicode="&#xef;" horiz-adv-x="1249" d="M-76 402q8 241 82 489q24 78 90 389q1 6 4.5 34.5t8.5 58.5t11 61t15 51t19 20q41 0 76.5 -61.5t50.5 -148.5t4 -158q-19 -117 -52 -217q-51 -166 -85 -334t-47 -299.5t-7 -226t33 -123.5q27 -27 86 -15q59 15 135.5 66t126 94t125.5 115q143 137 395 454 q110 138 201 268t120.5 172t39.5 35q6 -6 8.5 -11.5t2 -12.5t-2 -13t-7 -15t-9.5 -15l-12 -18t-13 -19q-69 -106 -231.5 -309t-264.5 -320q-6 -7 -56.5 -65t-64 -73.5t-61.5 -67t-72 -72.5t-70 -61t-80 -61.5t-79 -45.5t-88 -39q-89 -32 -165 -0.5t-114 117.5 q-61 136 -53 377zM-12.5 1834q8.5 -33 35.5 -40q37 -11 64 12.5t37 60t9 73t-14 49.5q-28 33 -82 20q-9 -2 -15.5 -6.5t-9.5 -7.5t-6 -13t-3.5 -12.5t-2.5 -15.5l-10 -60q-11 -27 -2.5 -60zM355.5 1834q8.5 -33 35.5 -40q37 -11 64 12.5t37 60t9 73t-14 49.5q-28 33 -81 20 q-8 -1 -13.5 -4.5t-8.5 -6t-6 -9.5t-3.5 -9.5t-2.5 -13t-3 -12.5l-11 -60q-11 -27 -2.5 -60z" />
<glyph unicode="&#xf0;" horiz-adv-x="1310" d="M-154 2601q24 11 54 -31q271 -319 467 -491q10 14 37.5 51t47.5 67t48 74q72 118 88 256q2 12 2.5 32t2 30.5t7 22t18.5 14.5t35 0q15 -7 21 -27t3 -51t-7.5 -53.5t-12.5 -55.5q-24 -67 -61 -133t-88.5 -143.5t-73.5 -114.5q17 -19 62 -55t120.5 -96t135.5 -111 q5 -5 38 -31.5t48.5 -40.5t50 -45.5t54.5 -57t50 -63t48 -75t37 -82t29 -95t13 -104.5q11 -236 -48 -421t-208 -318q-92 -84 -225 -127t-287 -7q-115 28 -198.5 104t-124.5 181q-22 58 -25 129.5t10.5 142.5t42 141.5t67 128t88 99.5t101.5 58q74 25 150.5 25t137.5 -22 t96.5 -71t29.5 -115q-6 -60 -49 -106q-13 3 -15.5 11t1.5 14.5t10.5 15.5t7.5 12q19 51 11 102.5t-46 79.5q-38 29 -81.5 35t-83.5 -8t-75.5 -38.5t-64.5 -57.5l-18 -24q-18 -24 -31.5 -46.5t-34 -61.5t-32 -81.5t-20 -94.5t-2.5 -113t25 -124q11 -37 22.5 -67t27 -60.5 t32 -52.5t38.5 -43.5t46.5 -33t56 -20.5t67 -7.5t79.5 7.5q116 21 212.5 99.5t157.5 190t90.5 244t20.5 263.5q-9 94 -19.5 151.5t-40 121t-65 107.5t-112.5 115.5t-163 141.5t-235 188q-7 5 -11 8t-10 8t-11 9q-71 -81 -131.5 -144.5t-91.5 -92.5t-107 -99 q-22 -22 -43.5 -45.5t-31.5 -34.5t-20 -21.5t-17 -12.5t-15.5 -0.5t-20.5 8.5q-32 32 119 188q14 15 145 143.5t154 155.5q-98 77 -309 303.5t-197 247.5z" />
<glyph unicode="&#xf1;" horiz-adv-x="1454" d="M5.5 711q-1.5 60 0.5 159l23 375l51 590q5 23 58 24t65 -26q7 -16 12.5 -31.5t8.5 -32l5 -27.5t3 -30t1 -26.5v-29.5v-28q0 -85 -11 -266.5t-11 -196.5q22 12 67 53t52 46q6 4 33.5 26t42 32t45.5 26.5t56 22t60 4.5t70 -13q68 -23 90 -74q32 -74 49.5 -153.5t19 -173 t-0.5 -150.5t-12.5 -164t-12.5 -135q-44 -450 -12 -649q14 -3 42.5 24t74.5 88.5t70 96t73 106.5q76 140 235 389.5t277 476.5l10 19q2 3 5 11.5t5.5 14t7 11.5t9.5 8t12 0q5 -4 6.5 -9.5t-1.5 -15.5t-6 -17t-10.5 -22.5t-11.5 -23.5q-30 -79 -81 -154q-178 -331 -414 -673 q-211 -360 -320 -379q-7 -3 -21.5 -0.5t-21 4t-21 6t-22.5 6.5q-14 9 -24.5 22t-16.5 21t-11.5 28.5t-7 26t-6 33t-5.5 31.5q-13 123 -2 306t32 312q10 59 39 178t40 213.5t-1 202.5q-2 17 -10 38t-23.5 45t-45.5 38.5t-68 11.5q-43 -4 -97.5 -41t-128.5 -102.5t-110 -91.5 q-1 -16 -2.5 -73t-5.5 -119t-13 -132q-1 -4 -5.5 -38t-9 -62t-14 -67.5t-21 -66.5t-29 -47t-37.5 -20q-28 0 -43 11.5t-15 29.5q0 13 -3.5 73t-5 120zM45 2101.5q1 7.5 10 12.5q10 4 27.5 -15.5t41 -44.5t44.5 -31q57 -11 98 -3.5t89 31t84 47.5t83.5 47.5t87.5 31.5 q106 19 164 -39l13.5 -13.5l15.5 -15.5l15 -15t13 -15.5t9 -14t3.5 -12t-5.5 -8.5q-5 -4 -15 4.5t-25 25t-24 23.5q-17 15 -24 20t-19 10t-26 5q-36 -1 -71 -17t-65 -39t-62 -46.5t-75.5 -40.5t-91.5 -19q-44 -1 -86 -1t-86.5 16t-73.5 49q-3 4 -13 14t-17.5 18.5t-13.5 18 t-5 17z" />
<glyph unicode="&#xf2;" horiz-adv-x="1064" d="M13.5 1020.5q-2.5 112.5 19.5 189.5q16 64 40 123.5t59 119t84.5 99t107.5 47.5q32 4 83.5 -5.5t81.5 -22.5q34 -14 62.5 -35t17.5 -31q-13 -6 -27 5.5t-36.5 29t-50.5 21.5q-35 1 -63 -7t-49.5 -27t-31 -30t-26.5 -35q-19 -27 -56 -127.5t-49 -197.5 q-20 -151 -22 -283.5t12 -187.5q2 -10 8.5 -37t10 -41.5t11 -40.5t14.5 -42t18 -37.5t23 -35t28.5 -27t35.5 -20.5q16 -6 53.5 4t63.5 31q66 43 125 122t102 175.5t75 209t47 222.5t15.5 215.5t-16.5 189.5q-57 6 -89 14.5t-68 26.5q-43 23 -79.5 68.5t-33.5 87.5 q3 52 76 49q159 -25 217 -198q70 -4 106 61q8 14 13 33t7 34t4.5 28.5t8.5 19.5t17 4q21 -8 14.5 -52.5t-27.5 -80.5q-42 -74 -129 -88q23 -84 23 -197q11 -165 -31.5 -349.5t-116 -330.5t-173.5 -241t-197 -93q-44 2 -87 23t-73 57q-46 55 -82 156.5t-52 211.5t-18.5 222.5 zM360 2175q0 68 62 84q7 5 18.5 2t17.5 -5t16.5 -10t15.5 -12.5t14.5 -14l13.5 -13.5l80 -76q39 -36 65.5 -87t10.5 -77q-23 -32 -60 -29.5t-80.5 32.5t-82 68.5t-64.5 77.5t-27 60zM570 1732q-2 -36 48 -77q67 -55 158 -56q-13 51 -58.5 104.5t-90.5 57.5q-55 6 -57 -29z " />
<glyph unicode="&#xf3;" horiz-adv-x="1064" d="M13.5 1020.5q-2.5 112.5 19.5 189.5q16 64 40 123.5t59 119t84.5 99t107.5 47.5q32 4 83.5 -5.5t81.5 -22.5q34 -14 62.5 -35t17.5 -31q-13 -6 -27 5.5t-36.5 29t-50.5 21.5q-35 1 -63 -7t-49.5 -27t-31 -30t-26.5 -35q-19 -27 -56 -127.5t-49 -197.5 q-20 -151 -22 -283.5t12 -187.5q2 -10 8.5 -37t10 -41.5t11 -40.5t14.5 -42t18 -37.5t23 -35t28.5 -27t35.5 -20.5q16 -6 53.5 4t63.5 31q66 43 125 122t102 175.5t75 209t47 222.5t15.5 215.5t-16.5 189.5q-57 6 -89 14.5t-68 26.5q-43 23 -79.5 68.5t-33.5 87.5 q3 52 76 49q159 -25 217 -198q70 -4 106 61q8 14 13 33t7 34t4.5 28.5t8.5 19.5t17 4q21 -8 14.5 -52.5t-27.5 -80.5q-42 -74 -129 -88q23 -84 23 -197q11 -165 -31.5 -349.5t-116 -330.5t-173.5 -241t-197 -93q-44 2 -87 23t-73 57q-46 55 -82 156.5t-52 211.5t-18.5 222.5 zM461 1974q-17 28 10.5 78t65.5 86l79 76q4 4 14 13.5t14.5 14t15.5 13t16.5 10t17.5 4.5t19 -2q61 -16 61 -84q-1 -21 -27 -60t-64 -77.5t-82 -68.5t-80.5 -32.5t-59.5 29.5zM570 1732q-2 -36 48 -77q67 -55 158 -56q-13 51 -58.5 104.5t-90.5 57.5q-55 6 -57 -29z" />
<glyph unicode="&#xf4;" horiz-adv-x="1064" d="M13.5 1020.5q-2.5 112.5 19.5 189.5q16 64 40 123.5t59 119t84.5 99t107.5 47.5q32 4 83.5 -5.5t81.5 -22.5q34 -14 62.5 -35t17.5 -31q-13 -6 -27 5.5t-36.5 29t-50.5 21.5q-35 1 -63 -7t-49.5 -27t-31 -30t-26.5 -35q-19 -27 -56 -127.5t-49 -197.5 q-20 -151 -22 -283.5t12 -187.5q2 -10 8.5 -37t10 -41.5t11 -40.5t14.5 -42t18 -37.5t23 -35t28.5 -27t35.5 -20.5q16 -6 53.5 4t63.5 31q66 43 125 122t102 175.5t75 209t47 222.5t15.5 215.5t-16.5 189.5q-57 6 -89 14.5t-68 26.5q-43 23 -79.5 68.5t-33.5 87.5 q3 52 76 49q159 -25 217 -198q70 -4 106 61q8 14 13 33t7 34t4.5 28.5t8.5 19.5t17 4q21 -8 14.5 -52.5t-27.5 -80.5q-42 -74 -129 -88q23 -84 23 -197q11 -165 -31.5 -349.5t-116 -330.5t-173.5 -241t-197 -93q-44 2 -87 23t-73 57q-46 55 -82 156.5t-52 211.5t-18.5 222.5 zM295 1950q-8 11 6 21t46 28.5t52 38.5q5 5 33 31t35 32t30 24.5t36.5 26t35.5 18t45 17.5q43 9 78.5 -9t55 -49.5t34 -68t15.5 -65t0 -39.5q-15 -21 -41 -21q-29 1 -52.5 28t-37 59.5t-33 67.5t-39.5 48q-20 -10 -42.5 -24t-33.5 -22.5t-38.5 -30.5t-33.5 -27 q-13 -8 -51.5 -39t-64 -44.5t-35.5 -0.5zM570 1732q-2 -36 48 -77q67 -55 158 -56q-13 51 -58.5 104.5t-90.5 57.5q-55 6 -57 -29z" />
<glyph unicode="&#xf5;" horiz-adv-x="1064" d="M13.5 1020.5q-2.5 112.5 19.5 189.5q16 64 40 123.5t59 119t84.5 99t107.5 47.5q32 4 83.5 -5.5t81.5 -22.5q34 -14 62.5 -35t17.5 -31q-13 -6 -27 5.5t-36.5 29t-50.5 21.5q-35 1 -63 -7t-49.5 -27t-31 -30t-26.5 -35q-19 -27 -56 -127.5t-49 -197.5 q-20 -151 -22 -283.5t12 -187.5q2 -10 8.5 -37t10 -41.5t11 -40.5t14.5 -42t18 -37.5t23 -35t28.5 -27t35.5 -20.5q16 -6 53.5 4t63.5 31q66 43 125 122t102 175.5t75 209t47 222.5t15.5 215.5t-16.5 189.5q-57 6 -89 14.5t-68 26.5q-43 23 -79.5 68.5t-33.5 87.5 q3 52 76 49q159 -25 217 -198q70 -4 106 61q8 14 13 33t7 34t4.5 28.5t8.5 19.5t17 4q21 -8 14.5 -52.5t-27.5 -80.5q-42 -74 -129 -88q23 -84 23 -197q11 -165 -31.5 -349.5t-116 -330.5t-173.5 -241t-197 -93q-44 2 -87 23t-73 57q-46 55 -82 156.5t-52 211.5t-18.5 222.5 zM78 2074.5q1 7.5 10 12.5q10 4 27.5 -15t41 -44t44.5 -31q57 -11 98 -3.5t89 30.5t84 47t83.5 47.5t87.5 31.5q106 19 164 -39l13.5 -13.5t15 -15.5t14.5 -15.5t13.5 -15.5t9 -13.5t3 -12t-5.5 -8.5q-5 -4 -15 5t-24.5 25.5t-23.5 23.5q-23 20 -36.5 27t-33.5 7 q-43 -1 -87.5 -25.5t-78 -53.5t-87 -54.5t-111.5 -27.5q-44 -1 -86 -1t-86.5 16t-73.5 48q-3 4 -13 14t-17.5 18.5t-13.5 18t-5 17zM570 1732q-2 -36 48 -77q67 -55 158 -56q-13 51 -58.5 104.5t-90.5 57.5q-55 6 -57 -29z" />
<glyph unicode="&#xf6;" horiz-adv-x="1064" d="M13.5 1020.5q-2.5 112.5 19.5 189.5q16 64 40 123.5t59 119t84.5 99t107.5 47.5q32 4 83.5 -5.5t81.5 -22.5q34 -14 62.5 -35t17.5 -31q-13 -6 -27 5.5t-36.5 29t-50.5 21.5q-35 1 -63 -7t-49.5 -27t-31 -30t-26.5 -35q-19 -27 -56 -127.5t-49 -197.5 q-20 -151 -22 -283.5t12 -187.5q2 -10 8.5 -37t10 -41.5t11 -40.5t14.5 -42t18 -37.5t23 -35t28.5 -27t35.5 -20.5q16 -6 53.5 4t63.5 31q66 43 125 122t102 175.5t75 209t47 222.5t15.5 215.5t-16.5 189.5q-57 6 -89 14.5t-68 26.5q-43 23 -79.5 68.5t-33.5 87.5 q3 52 76 49q159 -25 217 -198q70 -4 106 61q8 14 13 33t7 34t4.5 28.5t8.5 19.5t17 4q21 -8 14.5 -52.5t-27.5 -80.5q-42 -74 -129 -88q23 -84 23 -197q11 -165 -31.5 -349.5t-116 -330.5t-173.5 -241t-197 -93q-44 2 -87 23t-73 57q-46 55 -82 156.5t-52 211.5t-18.5 222.5 zM319 2014.5q-7 35.5 3 58.5l10 59q1 4 3 12.5t4 14t5.5 12t9.5 10.5t15 6q54 13 82 -20q13 -13 14 -49.5t-9 -73t-37.5 -60t-64.5 -12.5q-28 7 -35 42.5zM570 1732q-2 -36 48 -77q67 -55 158 -56q-13 51 -58.5 104.5t-90.5 57.5q-55 6 -57 -29zM687.5 2014.5 q-7.5 35.5 2.5 58.5l10 59q1 4 3 12.5t4 14t5.5 12t9.5 10.5t15 6q30 8 47 4.5t35 -24.5q13 -13 14 -49.5t-9 -73t-37 -60t-64 -12.5q-28 7 -35.5 42.5z" />
<glyph unicode="&#xf7;" d="M2 731q0 47 244 47q2 0 63.5 1t148 2t187 1.5t204 -0.5t175.5 -4q26 -1 40 -3t43 -8.5t41 -21t5 -36.5q-5 -15 -69 -23t-159 -8.5t-184 1t-169 4.5t-89 3q-83 0 -187 -3.5t-151.5 -2t-87.5 11.5q-3 1 -12.5 4.5t-15 6t-12.5 6.5t-10.5 9.5t-4.5 12.5zM487 354 q1 -1 2.5 -4t2.5 -4t2.5 -3.5t3.5 -3.5t5 -3t6.5 -3.5t8.5 -2.5q37 -11 64 12.5t37 60t9 72.5t-14 49q-28 34 -82 21q-11 -2 -18 -9t-9.5 -13t-5 -18.5t-3.5 -15.5q-25 -112 -9 -135zM543 967q1 -1 3 -5.5t3.5 -6l4.5 -4.5t7.5 -5t11.5 -4q37 -11 64.5 12.5t37.5 60t9 73 t-14 49.5q-28 33 -82 20q-11 -2 -18 -9t-9.5 -12t-5.5 -18.5t-4 -15.5q-24 -111 -8 -135z" />
<glyph unicode="&#xf8;" horiz-adv-x="1064" d="M-33 596q-5 24 15.5 49t66.5 62q-30 134 -35 269t19 234q16 64 40 123.5t59 119t84.5 99t107.5 47.5q32 4 83.5 -5.5t81.5 -22.5q34 -14 62.5 -35t17.5 -31q-13 -6 -27 5.5t-36.5 29t-50.5 21.5q-35 1 -63 -7t-49.5 -27t-31 -30t-26.5 -35q-19 -27 -56 -127.5t-49 -197.5 q-25 -202 -22 -342q2 1 5 4t5 4q495 456 594 540l39 31q0 90 -17 180q-57 6 -89 14.5t-68 26.5q-43 23 -79.5 68.5t-33.5 87.5q3 52 76 49q159 -25 217 -198q70 -4 106 61q8 14 13 33t7 34t4.5 28.5t8.5 19.5t17 4q21 -8 14.5 -52.5t-27.5 -80.5q-42 -74 -129 -88 q20 -72 23 -158q96 63 110 33q6 -7 -26.5 -36.5t-81.5 -66.5q4 -132 -23.5 -275t-79 -267.5t-117.5 -225.5t-145 -159t-155 -56q-44 2 -87 23t-73 57q-58 70 -98 207q-13 -13 -21 -20.5t-19 -15t-19.5 -10t-19.5 -1.5t-22 6zM162 729q4 -46 8 -63q2 -10 8.5 -37t10 -41.5 t11 -40.5t14.5 -42t18 -37.5t23 -35t28.5 -27t35.5 -20.5q16 -6 53.5 4t63.5 31q153 98 252.5 354.5t110.5 523.5q-11 -9 -29 -22t-22 -16q-181 -147 -292.5 -249t-293.5 -282zM570 1732q-2 -36 48 -77q67 -55 158 -56q-13 51 -58.5 104.5t-90.5 57.5q-55 6 -57 -29z" />
<glyph unicode="&#xf9;" horiz-adv-x="1208" d="M12 704q0 63 4 123q6 62 54 348.5t69 389.5q11 55 33 207q8 14 41 -15q52 -70 76 -133.5t26.5 -121t-13 -145.5t-36.5 -177t-50.5 -249t-49.5 -329q-28 -240 41 -274q26 -6 52.5 7.5t50 44t40 58.5t35.5 66q203 485 285 614q92 194 104 217q18 22 42 -3t95 -126 q19 -25 24.5 -74.5t-0.5 -125.5t-15.5 -150.5t-24.5 -188t-23 -198.5q-28 -298 -28 -582q0 -190 61 -223q16 -1 23 6t7 17t7 18t23 8q11 -12 6 -35.5t-32.5 -44t-57.5 -14.5q-36 7 -60 34.5t-51 88.5q-59 130 -72 321q-2 35 -3 111t4.5 205.5t19.5 218.5q2 12 8.5 52.5 t10.5 67.5t12 78.5t12.5 84.5t11.5 85.5t9.5 82.5t7 75t3.5 62t-1 45q-24 -27 -112.5 -187.5t-109.5 -205.5q-26 -57 -62 -138.5t-61.5 -139t-29.5 -66.5q-22 -41 -37 -67t-36 -56.5t-38.5 -46.5t-41 -29t-46.5 -12t-52 12.5t-61 36.5q-36 32 -58.5 95t-29 138.5t-6.5 138.5 zM453 2001q0 68 61 84q7 5 18.5 2t17.5 -5t16.5 -10t15.5 -12.5t14.5 -14l13.5 -13.5l80 -76q39 -36 65.5 -87t10.5 -77q-23 -32 -59.5 -29.5t-80.5 32.5t-82 68.5t-64 77.5t-27 60z" />
<glyph unicode="&#xfa;" horiz-adv-x="1208" d="M12 704q0 63 4 123q6 62 54 348.5t69 389.5q11 55 33 207q8 14 41 -15q52 -70 76 -133.5t26.5 -121t-13 -145.5t-36.5 -177t-50.5 -249t-49.5 -329q-28 -240 41 -274q26 -6 52.5 7.5t50 44t40 58.5t35.5 66q203 485 285 614q92 194 104 217q18 22 42 -3t95 -126 q19 -25 24.5 -74.5t-0.5 -125.5t-15.5 -150.5t-24.5 -188t-23 -198.5q-28 -298 -28 -582q0 -190 61 -223q16 -1 23 6t7 17t7 18t23 8q11 -12 6 -35.5t-32.5 -44t-57.5 -14.5q-36 7 -60 34.5t-51 88.5q-59 130 -72 321q-2 35 -3 111t4.5 205.5t19.5 218.5q2 12 8.5 52.5 t10.5 67.5t12 78.5t12.5 84.5t11.5 85.5t9.5 82.5t7 75t3.5 62t-1 45q-24 -27 -112.5 -187.5t-109.5 -205.5q-26 -57 -62 -138.5t-61.5 -139t-29.5 -66.5q-22 -41 -37 -67t-36 -56.5t-38.5 -46.5t-41 -29t-46.5 -12t-52 12.5t-61 36.5q-36 32 -58.5 95t-29 138.5t-6.5 138.5 zM461 1825q-17 28 10.5 78t65.5 86l79 75l13.5 13.5t15 14.5t15.5 13t16.5 10t18 5t18.5 -2q61 -16 61 -84q-1 -21 -27 -60t-64 -77.5t-82 -68.5t-80.5 -32.5t-59.5 29.5z" />
<glyph unicode="&#xfb;" horiz-adv-x="1208" d="M12 704q0 63 4 123q6 62 54 348.5t69 389.5q11 55 33 207q8 14 41 -15q52 -70 76 -133.5t26.5 -121t-13 -145.5t-36.5 -177t-50.5 -249t-49.5 -329q-28 -240 41 -274q26 -6 52.5 7.5t50 44t40 58.5t35.5 66q203 485 285 614q92 194 104 217q18 22 42 -3t95 -126 q19 -25 24.5 -74.5t-0.5 -125.5t-15.5 -150.5t-24.5 -188t-23 -198.5q-28 -298 -28 -582q0 -190 61 -223q16 -1 23 6t7 17t7 18t23 8q11 -12 6 -35.5t-32.5 -44t-57.5 -14.5q-36 7 -60 34.5t-51 88.5q-59 130 -72 321q-2 35 -3 111t4.5 205.5t19.5 218.5q2 12 8.5 52.5 t10.5 67.5t12 78.5t12.5 84.5t11.5 85.5t9.5 82.5t7 75t3.5 62t-1 45q-24 -27 -112.5 -187.5t-109.5 -205.5q-26 -57 -62 -138.5t-61.5 -139t-29.5 -66.5q-22 -41 -37 -67t-36 -56.5t-38.5 -46.5t-41 -29t-46.5 -12t-52 12.5t-61 36.5q-36 32 -58.5 95t-29 138.5t-6.5 138.5 zM303 1804q-8 11 6.5 21t46.5 28.5t52 38.5q8 7 33.5 31t34.5 31.5t30.5 25t36 26t36 19t44.5 17.5q36 7 67 -4.5t50.5 -34.5t35 -53t21.5 -58.5t9.5 -50.5t-1.5 -31q-14 -20 -41 -20q-29 1 -52.5 28t-37 59.5t-33 67.5t-39.5 48q-20 -9 -41.5 -23t-35 -24.5t-37 -30 t-33.5 -27.5q-13 -8 -52 -39t-64.5 -44.5t-35.5 -0.5z" />
</font>
</defs>
</svg>
